{"glyphs":{"0":{"ha":811,"x_min":76,"x_max":735,"o":"m 406 1018 q 579 961 505 1018 q 694 787 653 903 q 735 500 735 671 q 694 215 735 330 q 578 43 653 99 q 404 -14 504 -14 q 231 42 304 -14 q 117 213 157 99 q 76 497 76 327 q 117 786 76 669 q 232 960 158 903 q 406 1018 306 1018 m 407 43 q 602 154 535 43 q 669 500 669 265 q 601 849 669 736 q 406 961 533 961 q 208 848 278 961 q 139 500 139 735 q 208 155 139 267 q 407 43 278 43 z "},"1":{"ha":532,"x_min":69,"x_max":338,"o":"m 278 846 l 69 846 l 69 900 q 209 910 163 900 q 273 942 256 920 q 289 1004 289 963 l 338 1004 l 338 0 l 278 0 l 278 846 z "},"2":{"ha":799,"x_min":83,"x_max":715,"o":"m 108 88 q 147 239 108 175 q 241 344 185 302 q 389 442 297 387 q 526 531 475 492 q 611 623 577 569 q 646 751 646 678 q 616 860 646 813 q 531 934 585 908 q 403 960 476 960 q 267 930 324 960 q 178 847 210 899 q 144 728 147 794 l 83 728 q 125 873 86 807 q 236 979 164 940 q 408 1018 309 1018 q 564 985 497 1018 q 667 891 631 951 q 704 750 704 830 q 666 599 704 663 q 572 493 628 535 q 425 397 517 451 q 288 309 339 347 q 202 216 237 271 q 168 88 168 162 l 168 57 l 715 57 l 715 0 l 108 0 l 108 88 z "},"3":{"ha":826,"x_min":69,"x_max":750,"o":"m 89 728 q 131 878 89 813 q 245 981 174 944 q 400 1018 317 1018 q 568 987 495 1018 q 680 899 640 956 q 719 769 719 843 q 667 630 719 693 q 519 533 615 567 q 691 434 633 503 q 750 269 750 365 q 707 122 750 186 q 585 22 664 58 q 402 -14 506 -14 q 239 21 313 -14 q 119 120 164 56 q 69 267 74 183 l 131 267 q 175 149 140 199 q 269 71 210 99 q 401 43 327 43 q 552 71 487 43 q 653 149 617 99 q 689 265 689 199 q 647 394 689 341 q 535 474 606 447 q 376 500 464 500 l 292 500 l 292 557 l 376 557 q 518 587 453 557 q 620 666 583 617 q 658 769 658 715 q 630 863 658 819 q 543 934 601 906 q 403 961 485 961 q 282 934 340 961 q 187 855 224 908 q 150 728 150 801 l 89 728 z "},"4":{"ha":843,"x_min":69,"x_max":788,"o":"m 610 1004 l 610 347 l 788 347 l 788 290 l 610 290 l 610 0 l 553 0 l 553 290 l 69 290 l 69 358 l 547 1004 l 610 1004 m 547 347 l 547 911 l 128 347 l 547 347 z "},"5":{"ha":869,"x_min":83,"x_max":779,"o":"m 724 1004 l 724 949 l 228 949 l 196 542 q 306 627 239 600 q 456 654 372 654 q 614 617 540 654 q 734 506 688 580 q 779 329 779 433 q 737 150 779 228 q 618 29 694 72 q 440 -14 541 -14 q 280 21 354 -14 q 155 118 206 56 q 83 264 103 181 l 147 264 q 210 146 168 197 q 313 68 253 96 q 443 40 372 40 q 588 74 526 40 q 684 173 650 108 q 718 328 718 238 q 682 472 718 410 q 585 567 645 534 q 456 600 525 600 q 356 590 399 600 q 274 552 314 581 q 193 469 233 524 l 125 469 l 169 1004 l 724 1004 z "},"6":{"ha":813,"x_min":76,"x_max":743,"o":"m 440 1029 q 574 1002 513 1029 q 678 922 636 974 q 738 797 721 869 l 681 797 q 595 927 658 878 q 440 975 531 975 q 210 855 289 975 q 132 494 132 735 q 133 433 132 475 q 189 555 148 501 q 291 638 231 608 q 421 668 351 668 q 590 629 517 668 q 703 517 663 590 q 743 340 743 443 q 706 160 743 238 q 597 40 668 83 q 426 -3 526 -3 q 242 57 322 -3 q 120 230 163 116 q 76 503 76 344 q 117 781 76 663 q 239 964 158 899 q 440 1029 321 1029 m 428 611 q 299 578 360 611 q 201 489 238 546 q 164 364 164 433 q 195 207 163 277 q 290 95 228 136 q 431 54 351 54 q 561 90 505 54 q 649 189 618 125 q 681 338 681 253 q 618 538 681 465 q 428 611 555 611 z "},"7":{"ha":799,"x_min":69,"x_max":729,"o":"m 729 1004 l 729 949 q 547 627 636 812 q 393 272 457 443 q 310 0 330 100 l 249 0 q 330 270 274 112 q 471 608 386 429 q 658 949 556 788 l 69 949 l 69 1004 l 729 1004 z "},"8":{"ha":888,"x_min":83,"x_max":804,"o":"m 443 1024 q 605 992 533 1024 q 717 900 676 960 q 758 758 758 840 q 715 622 758 675 q 590 538 672 568 q 694 489 644 528 q 774 393 743 449 q 804 279 804 337 q 760 132 804 196 q 634 34 715 69 q 443 -1 552 -1 q 253 34 335 -1 q 127 132 172 69 q 83 279 83 196 q 114 393 83 337 q 194 489 144 449 q 297 538 243 528 q 172 622 216 568 q 128 758 128 676 q 169 900 128 840 q 282 992 210 960 q 443 1024 353 1024 m 443 568 q 629 618 560 568 q 697 761 697 667 q 665 871 697 824 q 576 943 633 918 q 443 968 519 968 q 310 943 368 968 q 221 870 253 917 q 189 761 189 824 q 258 618 189 667 q 443 568 326 568 m 443 53 q 601 80 533 53 q 706 158 669 108 q 743 275 743 208 q 706 394 743 341 q 600 476 668 447 q 443 506 532 506 q 287 476 355 506 q 182 394 219 447 q 144 275 144 341 q 182 158 144 208 q 286 80 219 108 q 443 53 354 53 z "},"9":{"ha":826,"x_min":76,"x_max":750,"o":"m 381 -3 q 244 24 308 -3 q 137 104 181 51 q 76 228 92 156 l 133 228 q 183 135 148 175 q 269 73 218 95 q 381 51 319 51 q 615 172 533 51 q 696 535 696 293 q 694 593 696 554 q 639 472 680 525 q 537 388 597 418 q 407 358 477 358 q 238 397 310 358 q 126 510 165 436 q 86 686 86 583 q 123 866 86 789 q 231 986 160 944 q 401 1029 302 1029 q 585 970 506 1029 q 707 797 664 910 q 750 524 750 683 q 708 246 750 365 q 583 62 666 127 q 381 -3 501 -3 m 400 415 q 529 448 468 415 q 627 537 590 481 q 664 663 664 594 q 632 820 665 749 q 538 931 599 890 q 397 972 477 972 q 266 937 323 972 q 178 837 210 901 q 147 689 147 773 q 210 488 147 561 q 400 415 273 415 z "},"\r":{"ha":318,"x_min":0,"x_max":0,"o":""}," ":{"ha":353,"x_min":0,"x_max":0,"o":""},"A":{"ha":964,"x_min":76,"x_max":888,"o":"m 444 1004 l 521 1004 l 888 0 l 828 0 l 713 317 l 253 317 l 135 0 l 76 0 l 444 1004 m 692 376 l 483 946 l 272 376 l 692 376 z "},"Á":{"ha":964,"x_min":76,"x_max":888,"o":"m 444 1004 l 521 1004 l 888 0 l 828 0 l 713 317 l 253 317 l 135 0 l 76 0 l 444 1004 m 692 376 l 483 946 l 272 376 l 692 376 m 654 1239 l 322 1131 l 308 1174 l 635 1301 l 654 1239 z "},"Ă":{"ha":964,"x_min":76,"x_max":888,"o":"m 444 1004 l 521 1004 l 888 0 l 828 0 l 713 317 l 253 317 l 135 0 l 76 0 l 444 1004 m 692 376 l 483 946 l 272 376 l 692 376 m 667 1288 q 636 1232 659 1260 q 575 1184 613 1203 q 486 1164 537 1164 q 399 1182 436 1164 q 341 1229 362 1201 q 313 1288 319 1257 l 378 1288 q 391 1266 379 1285 q 428 1233 403 1247 q 486 1219 453 1219 q 555 1239 528 1219 q 599 1288 581 1259 l 667 1288 z "},"Ắ":{"ha":964,"x_min":76,"x_max":888,"o":"m 444 1004 l 521 1004 l 888 0 l 828 0 l 713 317 l 253 317 l 135 0 l 76 0 l 444 1004 m 692 376 l 483 946 l 272 376 l 692 376 z "},"Ặ":{"ha":964,"x_min":76,"x_max":888,"o":"m 444 1004 l 521 1004 l 888 0 l 828 0 l 713 317 l 253 317 l 135 0 l 76 0 l 444 1004 m 692 376 l 483 946 l 272 376 l 692 376 m 667 1288 q 636 1232 659 1260 q 575 1184 613 1203 q 486 1164 537 1164 q 399 1182 436 1164 q 341 1229 362 1201 q 313 1288 319 1257 l 378 1288 q 391 1266 379 1285 q 428 1233 403 1247 q 486 1219 453 1219 q 555 1239 528 1219 q 599 1288 581 1259 l 667 1288 z "},"Ằ":{"ha":964,"x_min":76,"x_max":888,"o":"m 444 1004 l 521 1004 l 888 0 l 828 0 l 713 317 l 253 317 l 135 0 l 76 0 l 444 1004 m 692 376 l 483 946 l 272 376 l 692 376 z "},"Ẳ":{"ha":964,"x_min":76,"x_max":888,"o":"m 444 1004 l 521 1004 l 888 0 l 828 0 l 713 317 l 253 317 l 135 0 l 76 0 l 444 1004 m 692 376 l 483 946 l 272 376 l 692 376 z "},"Ẵ":{"ha":964,"x_min":76,"x_max":888,"o":"m 444 1004 l 521 1004 l 888 0 l 828 0 l 713 317 l 253 317 l 135 0 l 76 0 l 444 1004 m 692 376 l 483 946 l 272 376 l 692 376 z "},"Â":{"ha":964,"x_min":76,"x_max":888,"o":"m 444 1004 l 521 1004 l 888 0 l 828 0 l 713 317 l 253 317 l 135 0 l 76 0 l 444 1004 m 692 376 l 483 946 l 272 376 l 692 376 m 482 1242 l 374 1158 l 296 1158 l 461 1290 l 506 1290 l 668 1158 l 585 1158 l 482 1242 z "},"Ấ":{"ha":964,"x_min":76,"x_max":888,"o":"m 444 1004 l 521 1004 l 888 0 l 828 0 l 713 317 l 253 317 l 135 0 l 76 0 l 444 1004 m 692 376 l 483 946 l 272 376 l 692 376 z "},"Ậ":{"ha":964,"x_min":76,"x_max":888,"o":"m 444 1004 l 521 1004 l 888 0 l 828 0 l 713 317 l 253 317 l 135 0 l 76 0 l 444 1004 m 692 376 l 483 946 l 272 376 l 692 376 m 482 1242 l 374 1158 l 296 1158 l 461 1290 l 506 1290 l 668 1158 l 585 1158 l 482 1242 z "},"Ầ":{"ha":964,"x_min":76,"x_max":888,"o":"m 444 1004 l 521 1004 l 888 0 l 828 0 l 713 317 l 253 317 l 135 0 l 76 0 l 444 1004 m 692 376 l 483 946 l 272 376 l 692 376 z "},"Ẩ":{"ha":964,"x_min":76,"x_max":888,"o":"m 444 1004 l 521 1004 l 888 0 l 828 0 l 713 317 l 253 317 l 135 0 l 76 0 l 444 1004 m 692 376 l 483 946 l 272 376 l 692 376 z "},"Ẫ":{"ha":964,"x_min":76,"x_max":888,"o":"m 444 1004 l 521 1004 l 888 0 l 828 0 l 713 317 l 253 317 l 135 0 l 76 0 l 444 1004 m 692 376 l 483 946 l 272 376 l 692 376 z "},"Ȁ":{"ha":964,"x_min":76,"x_max":888,"o":"m 444 1004 l 521 1004 l 888 0 l 828 0 l 713 317 l 253 317 l 135 0 l 76 0 l 444 1004 m 692 376 l 483 946 l 272 376 l 692 376 m 428 1113 l 404 1076 l 215 1253 l 257 1304 l 428 1113 m 618 1113 l 593 1076 l 406 1253 l 447 1304 l 618 1113 z "},"Ä":{"ha":964,"x_min":76,"x_max":888,"o":"m 444 1004 l 521 1004 l 888 0 l 828 0 l 713 317 l 253 317 l 135 0 l 76 0 l 444 1004 m 692 376 l 483 946 l 272 376 l 692 376 m 360 1268 l 426 1268 l 426 1185 l 360 1185 l 360 1268 m 535 1268 l 601 1268 l 601 1185 l 535 1185 l 535 1268 z "},"Ạ":{"ha":964,"x_min":76,"x_max":888,"o":"m 444 1004 l 521 1004 l 888 0 l 828 0 l 713 317 l 253 317 l 135 0 l 76 0 l 444 1004 m 692 376 l 483 946 l 272 376 l 692 376 z "},"À":{"ha":964,"x_min":76,"x_max":888,"o":"m 444 1004 l 521 1004 l 888 0 l 828 0 l 713 317 l 253 317 l 135 0 l 76 0 l 444 1004 m 692 376 l 483 946 l 272 376 l 692 376 m 631 1174 l 617 1131 l 285 1239 l 304 1301 l 631 1174 z "},"Ả":{"ha":964,"x_min":76,"x_max":888,"o":"m 444 1004 l 521 1004 l 888 0 l 828 0 l 713 317 l 253 317 l 135 0 l 76 0 l 444 1004 m 692 376 l 483 946 l 272 376 l 692 376 m 417 1239 q 482 1262 451 1262 q 526 1239 513 1262 q 533 1215 533 1228 q 519 1176 533 1197 q 479 1140 504 1156 l 507 1099 q 566 1151 544 1122 q 587 1212 587 1181 q 568 1268 587 1240 q 531 1301 553 1290 q 482 1312 509 1312 q 389 1282 436 1312 l 417 1239 z "},"Ȃ":{"ha":964,"x_min":76,"x_max":888,"o":"m 444 1004 l 521 1004 l 888 0 l 828 0 l 713 317 l 253 317 l 135 0 l 76 0 l 444 1004 m 692 376 l 483 946 l 272 376 l 692 376 m 590 1226 q 546 1275 572 1255 q 478 1294 520 1294 q 423 1283 445 1294 q 392 1259 401 1271 q 369 1226 383 1248 l 304 1226 q 332 1285 311 1257 q 391 1332 353 1313 q 478 1350 428 1350 q 567 1330 528 1350 q 628 1282 605 1310 q 658 1226 651 1253 l 590 1226 z "},"Ā":{"ha":964,"x_min":76,"x_max":888,"o":"m 444 1004 l 521 1004 l 888 0 l 828 0 l 713 317 l 253 317 l 135 0 l 76 0 l 444 1004 m 692 376 l 483 946 l 272 376 l 692 376 m 651 1213 l 311 1213 l 311 1264 l 651 1264 l 651 1213 z "},"Ą":{"ha":964,"x_min":76,"x_max":932,"o":"m 833 -182 q 892 -175 864 -182 q 932 -161 919 -168 l 932 -204 q 883 -220 915 -213 q 819 -228 852 -228 q 727 -199 758 -228 q 696 -122 696 -170 q 725 -47 696 -78 q 824 8 754 -15 l 713 317 l 253 317 l 135 0 l 76 0 l 444 1004 l 521 1004 l 886 4 l 892 3 l 888 1 l 888 0 l 885 0 q 786 -60 817 -32 q 756 -125 756 -88 q 774 -168 756 -153 q 833 -182 792 -182 m 692 376 l 483 946 l 272 376 l 692 376 z "},"Å":{"ha":964,"x_min":76,"x_max":888,"o":"m 444 1004 l 521 1004 l 888 0 l 828 0 l 713 317 l 253 317 l 135 0 l 76 0 l 444 1004 m 692 376 l 483 946 l 272 376 l 692 376 m 618 1235 q 600 1166 618 1197 q 551 1118 582 1135 q 482 1100 519 1100 q 414 1118 445 1100 q 365 1168 383 1136 q 347 1238 347 1199 q 366 1303 347 1273 q 415 1350 384 1333 q 482 1368 446 1368 q 551 1350 519 1368 q 600 1302 582 1333 q 618 1235 618 1272 m 560 1235 q 537 1292 560 1269 q 481 1314 515 1314 q 425 1292 449 1314 q 401 1235 401 1269 q 413 1195 401 1214 q 442 1165 424 1176 q 481 1154 460 1154 q 536 1178 513 1154 q 560 1235 560 1202 z "},"Ǻ":{"ha":964,"x_min":76,"x_max":888,"o":"m 888 0 l 828 0 l 713 317 l 253 317 l 135 0 l 76 0 l 428 960 q 368 1010 391 976 q 346 1089 346 1044 q 362 1151 346 1122 q 406 1198 378 1180 q 468 1219 434 1216 l 489 1306 l 563 1306 l 523 1213 q 591 1165 565 1200 q 617 1086 617 1131 q 595 1010 617 1044 q 537 961 573 977 l 888 0 m 400 1085 q 411 1046 400 1065 q 441 1016 422 1027 q 479 1004 459 1004 q 519 1016 501 1004 q 548 1045 538 1027 q 558 1085 558 1064 q 536 1143 558 1120 q 479 1165 513 1165 q 424 1142 447 1165 q 400 1085 400 1119 m 692 376 l 483 946 l 272 376 l 692 376 z "},"Ã":{"ha":964,"x_min":76,"x_max":888,"o":"m 444 1004 l 521 1004 l 888 0 l 828 0 l 713 317 l 253 317 l 135 0 l 76 0 l 444 1004 m 692 376 l 483 946 l 272 376 l 692 376 m 661 1229 q 617 1206 638 1214 q 561 1197 597 1197 q 518 1202 536 1197 q 474 1215 500 1206 q 438 1227 451 1224 q 407 1231 424 1231 q 367 1224 383 1231 q 333 1205 351 1217 q 321 1197 322 1198 l 304 1236 q 351 1266 329 1256 q 401 1276 372 1276 q 440 1272 422 1276 q 482 1259 458 1267 q 526 1246 508 1250 q 563 1242 543 1242 q 602 1248 586 1242 q 642 1271 619 1255 l 661 1229 z "},"Æ":{"ha":1265,"x_min":0,"x_max":1168,"o":"m 1168 0 l 606 0 l 606 322 l 243 322 l 58 0 l 0 0 l 574 1004 l 1149 1004 l 1149 950 l 667 950 l 667 535 l 1053 535 l 1053 481 l 667 481 l 667 54 l 1168 54 l 1168 0 m 606 951 l 269 376 l 606 376 l 606 951 z "},"Ǽ":{"ha":1265,"x_min":0,"x_max":1168,"o":"m 1168 0 l 606 0 l 606 322 l 243 322 l 58 0 l 0 0 l 574 1004 l 1149 1004 l 1149 950 l 667 950 l 667 535 l 1053 535 l 1053 481 l 667 481 l 667 54 l 1168 54 l 1168 0 m 606 951 l 269 376 l 606 376 l 606 951 m 1029 1239 l 697 1131 l 683 1174 l 1010 1301 l 1029 1239 z "},"B":{"ha":899,"x_min":146,"x_max":808,"o":"m 146 1004 l 428 1004 q 620 974 540 1004 q 741 886 699 944 q 783 744 783 828 q 737 598 783 656 q 585 510 690 540 q 752 430 696 491 q 808 268 808 369 q 710 68 808 135 q 432 0 613 0 l 146 0 l 146 1004 m 444 536 q 645 581 561 536 q 729 738 729 626 q 647 897 729 844 q 422 949 565 949 l 200 949 l 200 536 l 444 536 m 425 57 q 672 105 590 57 q 754 260 754 152 q 669 427 754 374 q 444 479 583 479 l 200 479 l 200 57 l 425 57 z "},"C":{"ha":936,"x_min":97,"x_max":846,"o":"m 489 1018 q 666 981 588 1018 q 791 881 744 943 q 846 744 838 818 l 786 735 q 691 899 765 838 q 492 961 616 961 q 242 843 326 961 q 158 499 158 726 q 244 160 158 276 q 503 43 329 43 q 629 68 572 43 q 726 141 687 93 q 782 256 766 189 l 840 240 q 783 112 833 170 q 658 20 733 53 q 500 -14 582 -14 q 280 46 370 -14 q 143 221 190 106 q 97 499 97 335 q 143 779 97 663 q 276 957 188 895 q 489 1018 363 1018 z "},"Ć":{"ha":936,"x_min":97,"x_max":846,"o":"m 489 1018 q 666 981 588 1018 q 791 881 744 943 q 846 744 838 818 l 786 735 q 691 899 765 838 q 492 961 616 961 q 242 843 326 961 q 158 499 158 726 q 244 160 158 276 q 503 43 329 43 q 629 68 572 43 q 726 141 687 93 q 782 256 766 189 l 840 240 q 783 112 833 170 q 658 20 733 53 q 500 -14 582 -14 q 280 46 370 -14 q 143 221 190 106 q 97 499 97 335 q 143 779 97 663 q 276 957 188 895 q 489 1018 363 1018 m 663 1239 l 331 1131 l 317 1174 l 643 1301 l 663 1239 z "},"Č":{"ha":936,"x_min":97,"x_max":846,"o":"m 489 1018 q 666 981 588 1018 q 791 881 744 943 q 846 744 838 818 l 786 735 q 691 899 765 838 q 492 961 616 961 q 242 843 326 961 q 158 499 158 726 q 244 160 158 276 q 503 43 329 43 q 629 68 572 43 q 726 141 687 93 q 782 256 766 189 l 840 240 q 783 112 833 170 q 658 20 733 53 q 500 -14 582 -14 q 280 46 370 -14 q 143 221 190 106 q 97 499 97 335 q 143 779 97 663 q 276 957 188 895 q 489 1018 363 1018 m 676 1290 l 514 1158 l 469 1158 l 303 1290 l 382 1290 l 490 1207 l 593 1290 l 676 1290 z "},"Ç":{"ha":936,"x_min":97,"x_max":846,"o":"m 503 43 q 629 68 572 43 q 726 141 687 93 q 782 256 766 189 l 840 240 q 786 115 833 172 q 668 24 740 58 q 517 -13 596 -10 l 490 -79 q 574 -111 549 -84 q 599 -175 599 -137 q 560 -250 599 -224 q 464 -276 522 -276 q 360 -244 404 -276 l 375 -206 q 410 -228 391 -221 q 458 -236 429 -236 q 519 -222 500 -236 q 539 -178 539 -207 q 514 -130 539 -146 q 435 -112 488 -115 q 429 -107 426 -112 l 470 -13 q 267 56 350 -6 q 140 230 183 117 q 97 499 97 342 q 143 779 97 663 q 276 957 188 895 q 489 1018 363 1018 q 666 981 588 1018 q 791 881 744 943 q 846 744 838 818 l 786 735 q 691 899 765 838 q 492 961 616 961 q 242 843 326 961 q 158 499 158 726 q 244 160 158 276 q 503 43 329 43 z "},"Ĉ":{"ha":936,"x_min":97,"x_max":846,"o":"m 489 1018 q 666 981 588 1018 q 791 881 744 943 q 846 744 838 818 l 786 735 q 691 899 765 838 q 492 961 616 961 q 242 843 326 961 q 158 499 158 726 q 244 160 158 276 q 503 43 329 43 q 629 68 572 43 q 726 141 687 93 q 782 256 766 189 l 840 240 q 783 112 833 170 q 658 20 733 53 q 500 -14 582 -14 q 280 46 370 -14 q 143 221 190 106 q 97 499 97 335 q 143 779 97 663 q 276 957 188 895 q 489 1018 363 1018 m 490 1242 l 382 1158 l 304 1158 l 469 1290 l 514 1290 l 676 1158 l 593 1158 l 490 1242 z "},"Ċ":{"ha":936,"x_min":97,"x_max":846,"o":"m 489 1018 q 666 981 588 1018 q 791 881 744 943 q 846 744 838 818 l 786 735 q 691 899 765 838 q 492 961 616 961 q 242 843 326 961 q 158 499 158 726 q 244 160 158 276 q 503 43 329 43 q 629 68 572 43 q 726 141 687 93 q 782 256 766 189 l 840 240 q 783 112 833 170 q 658 20 733 53 q 500 -14 582 -14 q 280 46 370 -14 q 143 221 190 106 q 97 499 97 335 q 143 779 97 663 q 276 957 188 895 q 489 1018 363 1018 m 457 1242 l 524 1242 l 524 1158 l 457 1158 l 457 1242 z "},"D":{"ha":926,"x_min":146,"x_max":836,"o":"m 146 1004 q 195 1003 148 1004 q 313 1003 242 1003 q 613 949 498 1002 q 782 788 728 896 q 836 510 836 679 q 777 220 836 333 q 599 54 719 108 q 293 0 479 0 l 146 0 l 146 1004 m 206 57 l 289 57 q 563 101 456 57 q 724 244 670 145 q 778 504 778 342 q 723 770 778 673 q 564 907 668 867 q 297 947 459 947 l 206 947 l 206 57 z "},"Ð":{"ha":924,"x_min":49,"x_max":833,"o":"m 310 1003 q 610 949 495 1002 q 780 788 726 896 q 833 510 833 679 q 775 220 833 333 q 596 54 716 108 q 290 0 476 0 l 143 0 l 143 478 l 49 478 l 49 535 l 143 535 l 143 1004 q 192 1003 145 1004 q 310 1003 240 1003 m 286 57 q 560 101 453 57 q 721 244 667 145 q 775 504 775 342 q 720 770 775 673 q 561 907 665 867 q 294 947 456 947 l 203 947 l 203 535 l 464 535 l 464 478 l 203 478 l 203 57 l 286 57 z "},"Ď":{"ha":926,"x_min":146,"x_max":836,"o":"m 146 1004 q 195 1003 148 1004 q 313 1003 242 1003 q 613 949 498 1002 q 782 788 728 896 q 836 510 836 679 q 777 220 836 333 q 599 54 719 108 q 293 0 479 0 l 146 0 l 146 1004 m 206 57 l 289 57 q 563 101 456 57 q 724 244 670 145 q 778 504 778 342 q 723 770 778 673 q 564 907 668 867 q 297 947 459 947 l 206 947 l 206 57 m 631 1290 l 468 1158 l 424 1158 l 257 1290 l 336 1290 l 444 1207 l 547 1290 l 631 1290 z "},"Đ":{"ha":924,"x_min":49,"x_max":833,"o":"m 310 1003 q 610 949 495 1002 q 780 788 726 896 q 833 510 833 679 q 775 220 833 333 q 596 54 716 108 q 290 0 476 0 l 143 0 l 143 478 l 49 478 l 49 535 l 143 535 l 143 1004 q 192 1003 145 1004 q 310 1003 240 1003 m 286 57 q 560 101 453 57 q 721 244 667 145 q 775 504 775 342 q 720 770 775 673 q 561 907 665 867 q 294 947 456 947 l 203 947 l 203 535 l 464 535 l 464 478 l 203 478 l 203 57 l 286 57 z "},"Ḍ":{"ha":926,"x_min":146,"x_max":836,"o":"m 146 1004 q 195 1003 148 1004 q 313 1003 242 1003 q 613 949 498 1002 q 782 788 728 896 q 836 510 836 679 q 777 220 836 333 q 599 54 719 108 q 293 0 479 0 l 146 0 l 146 1004 m 206 57 l 289 57 q 563 101 456 57 q 724 244 670 145 q 778 504 778 342 q 723 770 778 673 q 564 907 668 867 q 297 947 459 947 l 206 947 l 206 57 z "},"E":{"ha":839,"x_min":146,"x_max":742,"o":"m 146 1004 l 722 1004 l 722 949 l 200 949 l 200 536 l 686 536 l 686 479 l 200 479 l 200 58 l 742 57 l 742 0 l 146 0 l 146 1004 z "},"É":{"ha":839,"x_min":146,"x_max":742,"o":"m 146 1004 l 722 1004 l 722 949 l 200 949 l 200 536 l 686 536 l 686 479 l 200 479 l 200 58 l 742 57 l 742 0 l 146 0 l 146 1004 m 610 1239 l 278 1131 l 264 1174 l 590 1301 l 610 1239 z "},"Ĕ":{"ha":839,"x_min":146,"x_max":742,"o":"m 146 1004 l 722 1004 l 722 949 l 200 949 l 200 536 l 686 536 l 686 479 l 200 479 l 200 58 l 742 57 l 742 0 l 146 0 l 146 1004 m 622 1288 q 592 1232 615 1260 q 531 1184 569 1203 q 442 1164 492 1164 q 355 1182 392 1164 q 296 1229 317 1201 q 268 1288 275 1257 l 333 1288 q 347 1266 335 1285 q 384 1233 358 1247 q 442 1219 409 1219 q 510 1239 484 1219 q 554 1288 536 1259 l 622 1288 z "},"Ě":{"ha":839,"x_min":146,"x_max":742,"o":"m 146 1004 l 722 1004 l 722 949 l 200 949 l 200 536 l 686 536 l 686 479 l 200 479 l 200 58 l 742 57 l 742 0 l 146 0 l 146 1004 m 624 1290 l 461 1158 l 417 1158 l 250 1290 l 329 1290 l 438 1207 l 540 1290 l 624 1290 z "},"Ê":{"ha":839,"x_min":146,"x_max":742,"o":"m 146 1004 l 722 1004 l 722 949 l 200 949 l 200 536 l 686 536 l 686 479 l 200 479 l 200 58 l 742 57 l 742 0 l 146 0 l 146 1004 m 438 1242 l 329 1158 l 251 1158 l 417 1290 l 461 1290 l 624 1158 l 540 1158 l 438 1242 z "},"Ế":{"ha":839,"x_min":146,"x_max":742,"o":"m 146 1004 l 722 1004 l 722 949 l 200 949 l 200 536 l 686 536 l 686 479 l 200 479 l 200 58 l 742 57 l 742 0 l 146 0 l 146 1004 z "},"Ệ":{"ha":839,"x_min":146,"x_max":742,"o":"m 146 1004 l 722 1004 l 722 949 l 200 949 l 200 536 l 686 536 l 686 479 l 200 479 l 200 58 l 742 57 l 742 0 l 146 0 l 146 1004 m 438 1242 l 329 1158 l 251 1158 l 417 1290 l 461 1290 l 624 1158 l 540 1158 l 438 1242 z "},"Ề":{"ha":839,"x_min":146,"x_max":742,"o":"m 146 1004 l 722 1004 l 722 949 l 200 949 l 200 536 l 686 536 l 686 479 l 200 479 l 200 58 l 742 57 l 742 0 l 146 0 l 146 1004 z "},"Ể":{"ha":839,"x_min":146,"x_max":742,"o":"m 146 1004 l 722 1004 l 722 949 l 200 949 l 200 536 l 686 536 l 686 479 l 200 479 l 200 58 l 742 57 l 742 0 l 146 0 l 146 1004 z "},"Ễ":{"ha":839,"x_min":146,"x_max":742,"o":"m 146 1004 l 722 1004 l 722 949 l 200 949 l 200 536 l 686 536 l 686 479 l 200 479 l 200 58 l 742 57 l 742 0 l 146 0 l 146 1004 z "},"Ȅ":{"ha":839,"x_min":146,"x_max":742,"o":"m 146 1004 l 722 1004 l 722 949 l 200 949 l 200 536 l 686 536 l 686 479 l 200 479 l 200 58 l 742 57 l 742 0 l 146 0 l 146 1004 m 383 1113 l 360 1076 l 171 1253 l 213 1304 l 383 1113 m 574 1113 l 549 1076 l 361 1253 l 403 1304 l 574 1113 z "},"Ë":{"ha":839,"x_min":146,"x_max":742,"o":"m 146 1004 l 722 1004 l 722 949 l 200 949 l 200 536 l 686 536 l 686 479 l 200 479 l 200 58 l 742 57 l 742 0 l 146 0 l 146 1004 m 315 1268 l 382 1268 l 382 1185 l 315 1185 l 315 1268 m 490 1268 l 557 1268 l 557 1185 l 490 1185 l 490 1268 z "},"Ė":{"ha":839,"x_min":146,"x_max":742,"o":"m 146 1004 l 722 1004 l 722 949 l 200 949 l 200 536 l 686 536 l 686 479 l 200 479 l 200 58 l 742 57 l 742 0 l 146 0 l 146 1004 m 404 1242 l 471 1242 l 471 1158 l 404 1158 l 404 1242 z "},"Ẹ":{"ha":839,"x_min":146,"x_max":742,"o":"m 146 1004 l 722 1004 l 722 949 l 200 949 l 200 536 l 686 536 l 686 479 l 200 479 l 200 58 l 742 57 l 742 0 l 146 0 l 146 1004 z "},"È":{"ha":839,"x_min":146,"x_max":742,"o":"m 146 1004 l 722 1004 l 722 949 l 200 949 l 200 536 l 686 536 l 686 479 l 200 479 l 200 58 l 742 57 l 742 0 l 146 0 l 146 1004 m 586 1174 l 572 1131 l 240 1239 l 260 1301 l 586 1174 z "},"Ẻ":{"ha":839,"x_min":146,"x_max":742,"o":"m 146 1004 l 722 1004 l 722 949 l 200 949 l 200 536 l 686 536 l 686 479 l 200 479 l 200 58 l 742 57 l 742 0 l 146 0 l 146 1004 m 372 1239 q 438 1262 406 1262 q 482 1239 468 1262 q 489 1215 489 1228 q 474 1176 489 1197 q 435 1140 460 1156 l 463 1099 q 521 1151 500 1122 q 542 1212 542 1181 q 524 1268 542 1240 q 487 1301 509 1290 q 438 1312 465 1312 q 344 1282 392 1312 l 372 1239 z "},"Ȇ":{"ha":839,"x_min":146,"x_max":742,"o":"m 146 1004 l 722 1004 l 722 949 l 200 949 l 200 536 l 686 536 l 686 479 l 200 479 l 200 58 l 742 57 l 742 0 l 146 0 l 146 1004 m 546 1226 q 502 1275 528 1255 q 433 1294 476 1294 q 379 1283 401 1294 q 348 1259 357 1271 q 325 1226 339 1248 l 260 1226 q 288 1285 267 1257 q 346 1332 309 1313 q 433 1350 383 1350 q 522 1330 484 1350 q 583 1282 560 1310 q 614 1226 606 1253 l 546 1226 z "},"Ē":{"ha":839,"x_min":146,"x_max":742,"o":"m 146 1004 l 722 1004 l 722 949 l 200 949 l 200 536 l 686 536 l 686 479 l 200 479 l 200 58 l 742 57 l 742 0 l 146 0 l 146 1004 m 607 1213 l 267 1213 l 267 1264 l 607 1264 l 607 1213 z "},"Ę":{"ha":839,"x_min":146,"x_max":782,"o":"m 683 -185 q 742 -178 714 -185 q 782 -164 769 -171 l 782 -207 q 733 -223 765 -216 q 669 -231 702 -231 q 577 -202 608 -231 q 546 -125 546 -173 q 572 -53 546 -83 q 658 0 597 -23 l 146 0 l 146 1004 l 722 1004 l 722 949 l 200 949 l 200 536 l 686 536 l 686 479 l 200 479 l 200 58 l 742 57 l 742 0 q 638 -62 669 -33 q 606 -128 606 -90 q 624 -170 606 -156 q 683 -185 642 -185 z "},"Ẽ":{"ha":839,"x_min":146,"x_max":742,"o":"m 146 1004 l 722 1004 l 722 949 l 200 949 l 200 536 l 686 536 l 686 479 l 200 479 l 200 58 l 742 57 l 742 0 l 146 0 l 146 1004 m 617 1229 q 573 1206 593 1214 q 517 1197 552 1197 q 474 1202 492 1197 q 430 1215 456 1206 q 393 1227 407 1224 q 363 1231 380 1231 q 323 1224 339 1231 q 288 1205 306 1217 q 276 1197 278 1198 l 260 1236 q 306 1266 285 1256 q 357 1276 328 1276 q 395 1272 377 1276 q 438 1259 413 1267 q 481 1246 464 1250 q 518 1242 499 1242 q 558 1248 542 1242 q 597 1271 574 1255 l 617 1229 z "},"F":{"ha":776,"x_min":146,"x_max":714,"o":"m 714 1004 l 714 949 l 206 949 l 206 538 l 678 538 l 678 481 l 206 481 l 206 0 l 146 0 l 146 1004 l 714 1004 z "},"G":{"ha":989,"x_min":97,"x_max":864,"o":"m 497 -14 q 282 47 372 -14 q 145 223 192 108 q 97 499 97 338 q 146 780 97 663 q 285 957 195 897 q 499 1018 376 1018 q 658 981 581 1018 q 785 882 735 944 q 843 747 835 819 l 779 736 q 730 851 769 799 q 630 932 690 902 q 499 961 569 961 q 313 907 390 961 q 195 750 235 852 q 154 507 154 648 q 194 253 154 358 q 311 94 234 149 q 499 40 389 40 q 669 88 599 40 q 775 206 740 135 q 810 346 810 277 l 810 463 l 529 463 l 529 511 l 864 511 l 864 0 l 810 0 l 810 175 q 687 38 766 90 q 497 -14 608 -14 z "},"Ğ":{"ha":989,"x_min":97,"x_max":864,"o":"m 497 -14 q 282 47 372 -14 q 145 223 192 108 q 97 499 97 338 q 146 780 97 663 q 285 957 195 897 q 499 1018 376 1018 q 658 981 581 1018 q 785 882 735 944 q 843 747 835 819 l 779 736 q 730 851 769 799 q 630 932 690 902 q 499 961 569 961 q 313 907 390 961 q 195 750 235 852 q 154 507 154 648 q 194 253 154 358 q 311 94 234 149 q 499 40 389 40 q 669 88 599 40 q 775 206 740 135 q 810 346 810 277 l 810 463 l 529 463 l 529 511 l 864 511 l 864 0 l 810 0 l 810 175 q 687 38 766 90 q 497 -14 608 -14 m 683 1288 q 653 1232 676 1260 q 592 1184 630 1203 q 503 1164 553 1164 q 416 1182 453 1164 q 357 1229 378 1201 q 329 1288 336 1257 l 394 1288 q 408 1266 396 1285 q 445 1233 419 1247 q 503 1219 470 1219 q 571 1239 545 1219 q 615 1288 597 1259 l 683 1288 z "},"Ĝ":{"ha":989,"x_min":97,"x_max":864,"o":"m 497 -14 q 282 47 372 -14 q 145 223 192 108 q 97 499 97 338 q 146 780 97 663 q 285 957 195 897 q 499 1018 376 1018 q 658 981 581 1018 q 785 882 735 944 q 843 747 835 819 l 779 736 q 730 851 769 799 q 630 932 690 902 q 499 961 569 961 q 313 907 390 961 q 195 750 235 852 q 154 507 154 648 q 194 253 154 358 q 311 94 234 149 q 499 40 389 40 q 669 88 599 40 q 775 206 740 135 q 810 346 810 277 l 810 463 l 529 463 l 529 511 l 864 511 l 864 0 l 810 0 l 810 175 q 687 38 766 90 q 497 -14 608 -14 m 499 1242 l 390 1158 l 313 1158 l 478 1290 l 522 1290 l 685 1158 l 601 1158 l 499 1242 z "},"Ģ":{"ha":989,"x_min":97,"x_max":864,"o":"m 497 -14 q 282 47 372 -14 q 145 223 192 108 q 97 499 97 338 q 146 780 97 663 q 285 957 195 897 q 499 1018 376 1018 q 658 981 581 1018 q 785 882 735 944 q 843 747 835 819 l 779 736 q 730 851 769 799 q 630 932 690 902 q 499 961 569 961 q 313 907 390 961 q 195 750 235 852 q 154 507 154 648 q 194 253 154 358 q 311 94 234 149 q 499 40 389 40 q 669 88 599 40 q 775 206 740 135 q 810 346 810 277 l 810 463 l 529 463 l 529 511 l 864 511 l 864 0 l 810 0 l 810 175 q 687 38 766 90 q 497 -14 608 -14 z "},"Ġ":{"ha":989,"x_min":97,"x_max":864,"o":"m 497 -14 q 282 47 372 -14 q 145 223 192 108 q 97 499 97 338 q 146 780 97 663 q 285 957 195 897 q 499 1018 376 1018 q 658 981 581 1018 q 785 882 735 944 q 843 747 835 819 l 779 736 q 730 851 769 799 q 630 932 690 902 q 499 961 569 961 q 313 907 390 961 q 195 750 235 852 q 154 507 154 648 q 194 253 154 358 q 311 94 234 149 q 499 40 389 40 q 669 88 599 40 q 775 206 740 135 q 810 346 810 277 l 810 463 l 529 463 l 529 511 l 864 511 l 864 0 l 810 0 l 810 175 q 687 38 766 90 q 497 -14 608 -14 m 465 1242 l 532 1242 l 532 1158 l 465 1158 l 465 1242 z "},"H":{"ha":947,"x_min":146,"x_max":808,"o":"m 200 494 l 200 0 l 146 0 l 146 1004 l 200 1004 l 200 551 l 754 551 l 754 1004 l 808 1004 l 808 0 l 754 0 l 754 494 l 200 494 z "},"Ħ":{"ha":971,"x_min":14,"x_max":957,"o":"m 957 783 l 810 783 l 810 0 l 756 0 l 756 494 l 201 494 l 201 0 l 147 0 l 147 783 l 14 783 l 14 838 l 147 838 l 147 1004 l 201 1004 l 201 838 l 756 838 l 756 1004 l 810 1004 l 810 838 l 957 838 l 957 783 m 756 783 l 201 783 l 201 551 l 756 551 l 756 783 z "},"Ĥ":{"ha":947,"x_min":146,"x_max":808,"o":"m 200 494 l 200 0 l 146 0 l 146 1004 l 200 1004 l 200 551 l 754 551 l 754 1004 l 808 1004 l 808 0 l 754 0 l 754 494 l 200 494 m 478 1242 l 369 1158 l 292 1158 l 457 1290 l 501 1290 l 664 1158 l 581 1158 l 478 1242 z "},"Ḥ":{"ha":947,"x_min":146,"x_max":808,"o":"m 200 494 l 200 0 l 146 0 l 146 1004 l 200 1004 l 200 551 l 754 551 l 754 1004 l 808 1004 l 808 0 l 754 0 l 754 494 l 200 494 z "},"I":{"ha":339,"x_min":146,"x_max":200,"o":"m 200 1004 l 200 0 l 146 0 l 146 1004 l 200 1004 z "},"Í":{"ha":339,"x_min":0,"x_max":346,"o":"m 200 1004 l 200 0 l 146 0 l 146 1004 l 200 1004 m 346 1239 l 14 1131 l 0 1174 l 326 1301 l 346 1239 z "},"Ĭ":{"ha":339,"x_min":4,"x_max":358,"o":"m 200 1004 l 200 0 l 146 0 l 146 1004 l 200 1004 m 358 1288 q 328 1232 351 1260 q 267 1184 305 1203 q 178 1164 228 1164 q 91 1182 128 1164 q 32 1229 53 1201 q 4 1288 11 1257 l 69 1288 q 83 1266 71 1285 q 120 1233 94 1247 q 178 1219 145 1219 q 246 1239 220 1219 q 290 1288 272 1259 l 358 1288 z "},"Î":{"ha":339,"x_min":-12,"x_max":360,"o":"m 200 1004 l 200 0 l 146 0 l 146 1004 l 200 1004 m 174 1242 l 65 1158 l -12 1158 l 153 1290 l 197 1290 l 360 1158 l 276 1158 l 174 1242 z "},"Ȉ":{"ha":339,"x_min":-93,"x_max":310,"o":"m 200 1004 l 200 0 l 146 0 l 146 1004 l 200 1004 m 119 1113 l 96 1076 l -93 1253 l -51 1304 l 119 1113 m 310 1113 l 285 1076 l 97 1253 l 139 1304 l 310 1113 z "},"Ï":{"ha":339,"x_min":51,"x_max":293,"o":"m 200 1004 l 200 0 l 146 0 l 146 1004 l 200 1004 m 51 1268 l 118 1268 l 118 1185 l 51 1185 l 51 1268 m 226 1268 l 293 1268 l 293 1185 l 226 1185 l 226 1268 z "},"İ":{"ha":339,"x_min":140,"x_max":207,"o":"m 200 1004 l 200 0 l 146 0 l 146 1004 l 200 1004 m 140 1242 l 207 1242 l 207 1158 l 140 1158 l 140 1242 z "},"Ị":{"ha":339,"x_min":140,"x_max":207,"o":"m 200 1004 l 200 0 l 146 0 l 146 1004 l 200 1004 z "},"Ì":{"ha":339,"x_min":-24,"x_max":322,"o":"m 200 1004 l 200 0 l 146 0 l 146 1004 l 200 1004 m 322 1174 l 308 1131 l -24 1239 l -4 1301 l 322 1174 z "},"Ỉ":{"ha":339,"x_min":81,"x_max":278,"o":"m 200 1004 l 200 0 l 146 0 l 146 1004 l 200 1004 m 108 1239 q 174 1262 142 1262 q 218 1239 204 1262 q 225 1215 225 1228 q 210 1176 225 1197 q 171 1140 196 1156 l 199 1099 q 257 1151 236 1122 q 278 1212 278 1181 q 260 1268 278 1240 q 223 1301 245 1290 q 174 1312 201 1312 q 81 1282 128 1312 l 108 1239 z "},"Ȋ":{"ha":339,"x_min":-4,"x_max":350,"o":"m 200 1004 l 200 0 l 146 0 l 146 1004 l 200 1004 m 282 1226 q 238 1275 264 1255 q 169 1294 212 1294 q 115 1283 137 1294 q 84 1259 93 1271 q 61 1226 75 1248 l -4 1226 q 24 1285 3 1257 q 82 1332 45 1313 q 169 1350 119 1350 q 258 1330 220 1350 q 319 1282 297 1310 q 350 1226 342 1253 l 282 1226 z "},"Ī":{"ha":339,"x_min":3,"x_max":343,"o":"m 200 1004 l 200 0 l 146 0 l 146 1004 l 200 1004 m 343 1213 l 3 1213 l 3 1264 l 343 1264 l 343 1213 z "},"Į":{"ha":339,"x_min":4,"x_max":240,"o":"m 142 -185 q 200 -178 172 -185 q 240 -164 228 -171 l 240 -207 q 192 -223 223 -216 q 128 -231 160 -231 q 35 -202 66 -231 q 4 -125 4 -173 q 36 -47 4 -79 q 146 10 68 -14 l 146 1004 l 200 1004 l 200 0 q 96 -62 128 -33 q 64 -128 64 -90 q 82 -170 64 -156 q 142 -185 101 -185 z "},"Ĩ":{"ha":339,"x_min":-4,"x_max":353,"o":"m 200 1004 l 200 0 l 146 0 l 146 1004 l 200 1004 m 353 1229 q 309 1206 329 1214 q 253 1197 288 1197 q 210 1202 228 1197 q 166 1215 192 1206 q 130 1227 143 1224 q 99 1231 116 1231 q 59 1224 75 1231 q 24 1205 42 1217 q 13 1197 14 1198 l -4 1236 q 42 1266 21 1256 q 93 1276 64 1276 q 131 1272 113 1276 q 174 1259 149 1267 q 217 1246 200 1250 q 254 1242 235 1242 q 294 1248 278 1242 q 333 1271 310 1255 l 353 1229 z "},"J":{"ha":503,"x_min":35,"x_max":357,"o":"m 357 194 q 319 39 357 92 q 188 -14 281 -14 q 119 -6 151 -14 q 64 11 86 1 q 35 26 41 21 l 49 86 q 69 76 59 81 q 122 52 97 60 q 185 43 147 43 q 255 59 229 43 q 291 113 280 76 q 303 214 303 150 l 303 1004 l 357 1004 l 357 194 z "},"Ĵ":{"ha":503,"x_min":35,"x_max":515,"o":"m 357 194 q 319 39 357 92 q 188 -14 281 -14 q 119 -6 151 -14 q 64 11 86 1 q 35 26 41 21 l 49 86 q 69 76 59 81 q 122 52 97 60 q 185 43 147 43 q 255 59 229 43 q 291 113 280 76 q 303 214 303 150 l 303 1004 l 357 1004 l 357 194 m 329 1242 l 221 1158 l 143 1158 l 308 1290 l 353 1290 l 515 1158 l 432 1158 l 329 1242 z "},"K":{"ha":890,"x_min":146,"x_max":835,"o":"m 763 0 l 401 565 l 203 344 l 203 0 l 146 0 l 146 1004 l 203 1004 l 203 425 l 736 1004 l 811 1004 l 449 608 l 835 0 l 763 0 z "},"Ķ":{"ha":890,"x_min":146,"x_max":835,"o":"m 763 0 l 401 565 l 203 344 l 203 0 l 146 0 l 146 1004 l 203 1004 l 203 425 l 736 1004 l 811 1004 l 449 608 l 835 0 l 763 0 z "},"L":{"ha":767,"x_min":146,"x_max":718,"o":"m 206 1004 l 206 60 l 718 60 l 718 0 l 146 0 l 147 1004 l 206 1004 z "},"Ĺ":{"ha":767,"x_min":4,"x_max":718,"o":"m 206 1004 l 206 60 l 718 60 l 718 0 l 146 0 l 147 1004 l 206 1004 m 350 1239 l 18 1131 l 4 1174 l 331 1301 l 350 1239 z "},"Ľ":{"ha":767,"x_min":146,"x_max":718,"o":"m 206 1004 l 206 60 l 718 60 l 718 0 l 146 0 l 147 1004 l 206 1004 m 522 883 l 496 889 l 496 1004 l 569 1004 l 569 883 l 519 768 l 474 768 l 522 883 z "},"Ļ":{"ha":767,"x_min":146,"x_max":718,"o":"m 206 1004 l 206 60 l 718 60 l 718 0 l 146 0 l 147 1004 l 206 1004 z "},"Ŀ":{"ha":767,"x_min":146,"x_max":718,"o":"m 206 1004 l 206 60 l 718 60 l 718 0 l 146 0 l 147 1004 l 206 1004 m 706 485 l 594 485 l 594 592 l 706 592 l 706 485 z "},"Ł":{"ha":760,"x_min":42,"x_max":711,"o":"m 711 60 l 711 0 l 139 0 l 140 466 l 42 440 l 42 493 l 140 518 l 140 1004 l 199 1004 l 199 533 l 440 594 l 440 544 l 199 481 l 199 60 l 711 60 z "},"M":{"ha":1164,"x_min":146,"x_max":1025,"o":"m 146 1004 l 207 1004 l 583 61 l 965 1004 l 1025 1004 l 1025 0 l 965 0 l 965 856 l 624 0 l 543 0 l 206 844 l 206 0 l 146 0 l 146 1004 z "},"N":{"ha":988,"x_min":146,"x_max":849,"o":"m 849 1004 l 849 0 l 801 0 l 200 893 l 200 0 l 146 0 l 146 1004 l 190 1004 l 794 108 l 794 1004 l 849 1004 z "},"Ń":{"ha":988,"x_min":146,"x_max":849,"o":"m 849 1004 l 849 0 l 801 0 l 200 893 l 200 0 l 146 0 l 146 1004 l 190 1004 l 794 108 l 794 1004 l 849 1004 m 669 1239 l 338 1131 l 324 1174 l 650 1301 l 669 1239 z "},"Ň":{"ha":988,"x_min":146,"x_max":849,"o":"m 849 1004 l 849 0 l 801 0 l 200 893 l 200 0 l 146 0 l 146 1004 l 190 1004 l 794 108 l 794 1004 l 849 1004 m 683 1290 l 521 1158 l 476 1158 l 310 1290 l 389 1290 l 497 1207 l 600 1290 l 683 1290 z "},"Ņ":{"ha":988,"x_min":146,"x_max":849,"o":"m 849 1004 l 849 0 l 801 0 l 200 893 l 200 0 l 146 0 l 146 1004 l 190 1004 l 794 108 l 794 1004 l 849 1004 z "},"Ṅ":{"ha":988,"x_min":146,"x_max":849,"o":"m 849 1004 l 849 0 l 801 0 l 200 893 l 200 0 l 146 0 l 146 1004 l 190 1004 l 794 108 l 794 1004 l 849 1004 m 464 1242 l 531 1242 l 531 1158 l 464 1158 l 464 1242 z "},"Ŋ":{"ha":990,"x_min":146,"x_max":851,"o":"m 851 10 l 851 -125 q 813 -281 851 -228 q 682 -333 775 -333 q 613 -326 646 -333 q 558 -308 581 -318 q 529 -293 535 -299 l 543 -233 q 563 -244 553 -238 q 616 -268 591 -259 q 679 -276 642 -276 q 749 -260 724 -276 q 787 -207 775 -244 q 799 -106 799 -169 l 799 4 l 200 893 l 200 0 l 146 0 l 146 1004 l 190 1004 l 794 108 l 794 1004 l 849 1004 l 849 10 l 851 10 z "},"Ñ":{"ha":988,"x_min":146,"x_max":849,"o":"m 849 1004 l 849 0 l 801 0 l 200 893 l 200 0 l 146 0 l 146 1004 l 190 1004 l 794 108 l 794 1004 l 849 1004 m 676 1229 q 632 1206 653 1214 q 576 1197 612 1197 q 533 1202 551 1197 q 490 1215 515 1206 q 453 1227 467 1224 q 422 1231 440 1231 q 382 1224 399 1231 q 348 1205 366 1217 q 336 1197 338 1198 l 319 1236 q 366 1266 344 1256 q 417 1276 388 1276 q 455 1272 437 1276 q 497 1259 473 1267 q 541 1246 524 1250 q 578 1242 558 1242 q 618 1248 601 1242 q 657 1271 634 1255 l 676 1229 z "},"O":{"ha":1010,"x_min":97,"x_max":913,"o":"m 506 -14 q 286 45 378 -14 q 146 218 194 103 q 97 497 97 333 q 146 782 97 665 q 287 958 195 899 q 507 1018 379 1018 q 725 959 633 1018 q 864 783 816 899 q 913 500 913 667 q 864 219 913 335 q 724 45 815 104 q 506 -14 633 -14 m 508 43 q 765 157 678 43 q 851 500 851 271 q 763 845 851 730 q 507 961 675 961 q 248 845 338 961 q 158 500 158 729 q 248 158 158 272 q 508 43 338 43 z "},"Ó":{"ha":1010,"x_min":97,"x_max":913,"o":"m 506 -14 q 286 45 378 -14 q 146 218 194 103 q 97 497 97 333 q 146 782 97 665 q 287 958 195 899 q 507 1018 379 1018 q 725 959 633 1018 q 864 783 816 899 q 913 500 913 667 q 864 219 913 335 q 724 45 815 104 q 506 -14 633 -14 m 508 43 q 765 157 678 43 q 851 500 851 271 q 763 845 851 730 q 507 961 675 961 q 248 845 338 961 q 158 500 158 729 q 248 158 158 272 q 508 43 338 43 m 681 1239 l 349 1131 l 335 1174 l 661 1301 l 681 1239 z "},"Ŏ":{"ha":1010,"x_min":97,"x_max":913,"o":"m 506 -14 q 286 45 378 -14 q 146 218 194 103 q 97 497 97 333 q 146 782 97 665 q 287 958 195 899 q 507 1018 379 1018 q 725 959 633 1018 q 864 783 816 899 q 913 500 913 667 q 864 219 913 335 q 724 45 815 104 q 506 -14 633 -14 m 508 43 q 765 157 678 43 q 851 500 851 271 q 763 845 851 730 q 507 961 675 961 q 248 845 338 961 q 158 500 158 729 q 248 158 158 272 q 508 43 338 43 m 693 1288 q 663 1232 685 1260 q 601 1184 640 1203 q 513 1164 563 1164 q 425 1182 463 1164 q 367 1229 388 1201 q 339 1288 346 1257 l 404 1288 q 417 1266 406 1285 q 455 1233 429 1247 q 513 1219 480 1219 q 581 1239 555 1219 q 625 1288 607 1259 l 693 1288 z "},"Ô":{"ha":1010,"x_min":97,"x_max":913,"o":"m 506 -14 q 286 45 378 -14 q 146 218 194 103 q 97 497 97 333 q 146 782 97 665 q 287 958 195 899 q 507 1018 379 1018 q 725 959 633 1018 q 864 783 816 899 q 913 500 913 667 q 864 219 913 335 q 724 45 815 104 q 506 -14 633 -14 m 508 43 q 765 157 678 43 q 851 500 851 271 q 763 845 851 730 q 507 961 675 961 q 248 845 338 961 q 158 500 158 729 q 248 158 158 272 q 508 43 338 43 m 508 1242 l 400 1158 l 322 1158 l 488 1290 l 532 1290 l 694 1158 l 611 1158 l 508 1242 z "},"Ố":{"ha":1010,"x_min":97,"x_max":913,"o":"m 506 -14 q 286 45 378 -14 q 146 218 194 103 q 97 497 97 333 q 146 782 97 665 q 287 958 195 899 q 507 1018 379 1018 q 725 959 633 1018 q 864 783 816 899 q 913 500 913 667 q 864 219 913 335 q 724 45 815 104 q 506 -14 633 -14 m 508 43 q 765 157 678 43 q 851 500 851 271 q 763 845 851 730 q 507 961 675 961 q 248 845 338 961 q 158 500 158 729 q 248 158 158 272 q 508 43 338 43 z "},"Ộ":{"ha":1010,"x_min":97,"x_max":913,"o":"m 506 -14 q 286 45 378 -14 q 146 218 194 103 q 97 497 97 333 q 146 782 97 665 q 287 958 195 899 q 507 1018 379 1018 q 725 959 633 1018 q 864 783 816 899 q 913 500 913 667 q 864 219 913 335 q 724 45 815 104 q 506 -14 633 -14 m 508 43 q 765 157 678 43 q 851 500 851 271 q 763 845 851 730 q 507 961 675 961 q 248 845 338 961 q 158 500 158 729 q 248 158 158 272 q 508 43 338 43 m 508 1242 l 400 1158 l 322 1158 l 488 1290 l 532 1290 l 694 1158 l 611 1158 l 508 1242 z "},"Ồ":{"ha":1010,"x_min":97,"x_max":913,"o":"m 506 -14 q 286 45 378 -14 q 146 218 194 103 q 97 497 97 333 q 146 782 97 665 q 287 958 195 899 q 507 1018 379 1018 q 725 959 633 1018 q 864 783 816 899 q 913 500 913 667 q 864 219 913 335 q 724 45 815 104 q 506 -14 633 -14 m 508 43 q 765 157 678 43 q 851 500 851 271 q 763 845 851 730 q 507 961 675 961 q 248 845 338 961 q 158 500 158 729 q 248 158 158 272 q 508 43 338 43 z "},"Ổ":{"ha":1010,"x_min":97,"x_max":913,"o":"m 506 -14 q 286 45 378 -14 q 146 218 194 103 q 97 497 97 333 q 146 782 97 665 q 287 958 195 899 q 507 1018 379 1018 q 725 959 633 1018 q 864 783 816 899 q 913 500 913 667 q 864 219 913 335 q 724 45 815 104 q 506 -14 633 -14 m 508 43 q 765 157 678 43 q 851 500 851 271 q 763 845 851 730 q 507 961 675 961 q 248 845 338 961 q 158 500 158 729 q 248 158 158 272 q 508 43 338 43 z "},"Ỗ":{"ha":1010,"x_min":97,"x_max":913,"o":"m 506 -14 q 286 45 378 -14 q 146 218 194 103 q 97 497 97 333 q 146 782 97 665 q 287 958 195 899 q 507 1018 379 1018 q 725 959 633 1018 q 864 783 816 899 q 913 500 913 667 q 864 219 913 335 q 724 45 815 104 q 506 -14 633 -14 m 508 43 q 765 157 678 43 q 851 500 851 271 q 763 845 851 730 q 507 961 675 961 q 248 845 338 961 q 158 500 158 729 q 248 158 158 272 q 508 43 338 43 z "},"Ȍ":{"ha":1010,"x_min":97,"x_max":913,"o":"m 506 -14 q 286 45 378 -14 q 146 218 194 103 q 97 497 97 333 q 146 782 97 665 q 287 958 195 899 q 507 1018 379 1018 q 725 959 633 1018 q 864 783 816 899 q 913 500 913 667 q 864 219 913 335 q 724 45 815 104 q 506 -14 633 -14 m 508 43 q 765 157 678 43 q 851 500 851 271 q 763 845 851 730 q 507 961 675 961 q 248 845 338 961 q 158 500 158 729 q 248 158 158 272 q 508 43 338 43 m 454 1113 l 431 1076 l 242 1253 l 283 1304 l 454 1113 m 644 1113 l 619 1076 l 432 1253 l 474 1304 l 644 1113 z "},"Ö":{"ha":1010,"x_min":97,"x_max":913,"o":"m 506 -14 q 286 45 378 -14 q 146 218 194 103 q 97 497 97 333 q 146 782 97 665 q 287 958 195 899 q 507 1018 379 1018 q 725 959 633 1018 q 864 783 816 899 q 913 500 913 667 q 864 219 913 335 q 724 45 815 104 q 506 -14 633 -14 m 508 43 q 765 157 678 43 q 851 500 851 271 q 763 845 851 730 q 507 961 675 961 q 248 845 338 961 q 158 500 158 729 q 248 158 158 272 q 508 43 338 43 m 386 1268 l 453 1268 l 453 1185 l 386 1185 l 386 1268 m 561 1268 l 628 1268 l 628 1185 l 561 1185 l 561 1268 z "},"Ọ":{"ha":1010,"x_min":97,"x_max":913,"o":"m 506 -14 q 286 45 378 -14 q 146 218 194 103 q 97 497 97 333 q 146 782 97 665 q 287 958 195 899 q 507 1018 379 1018 q 725 959 633 1018 q 864 783 816 899 q 913 500 913 667 q 864 219 913 335 q 724 45 815 104 q 506 -14 633 -14 m 508 43 q 765 157 678 43 q 851 500 851 271 q 763 845 851 730 q 507 961 675 961 q 248 845 338 961 q 158 500 158 729 q 248 158 158 272 q 508 43 338 43 z "},"Ò":{"ha":1010,"x_min":97,"x_max":913,"o":"m 506 -14 q 286 45 378 -14 q 146 218 194 103 q 97 497 97 333 q 146 782 97 665 q 287 958 195 899 q 507 1018 379 1018 q 725 959 633 1018 q 864 783 816 899 q 913 500 913 667 q 864 219 913 335 q 724 45 815 104 q 506 -14 633 -14 m 508 43 q 765 157 678 43 q 851 500 851 271 q 763 845 851 730 q 507 961 675 961 q 248 845 338 961 q 158 500 158 729 q 248 158 158 272 q 508 43 338 43 m 657 1174 l 643 1131 l 311 1239 l 331 1301 l 657 1174 z "},"Ỏ":{"ha":1010,"x_min":97,"x_max":913,"o":"m 506 -14 q 286 45 378 -14 q 146 218 194 103 q 97 497 97 333 q 146 782 97 665 q 287 958 195 899 q 507 1018 379 1018 q 725 959 633 1018 q 864 783 816 899 q 913 500 913 667 q 864 219 913 335 q 724 45 815 104 q 506 -14 633 -14 m 508 43 q 765 157 678 43 q 851 500 851 271 q 763 845 851 730 q 507 961 675 961 q 248 845 338 961 q 158 500 158 729 q 248 158 158 272 q 508 43 338 43 m 443 1239 q 508 1262 477 1262 q 553 1239 539 1262 q 560 1215 560 1228 q 545 1176 560 1197 q 506 1140 531 1156 l 533 1099 q 592 1151 571 1122 q 613 1212 613 1181 q 594 1268 613 1240 q 558 1301 580 1290 q 508 1312 535 1312 q 415 1282 463 1312 l 443 1239 z "},"Ơ":{"ha":1022,"x_min":97,"x_max":946,"o":"m 946 1021 q 834 843 946 864 q 913 500 913 712 q 864 219 913 335 q 724 45 815 104 q 506 -14 633 -14 q 286 45 378 -14 q 146 218 194 103 q 97 497 97 333 q 146 782 97 665 q 287 958 195 899 q 507 1018 379 1018 q 669 988 597 1018 q 793 899 741 958 q 840 913 823 901 q 865 950 857 925 q 875 1021 874 976 l 946 1021 m 508 43 q 765 157 678 43 q 851 500 851 271 q 763 845 851 730 q 507 961 675 961 q 248 845 338 961 q 158 500 158 729 q 248 158 158 272 q 508 43 338 43 z "},"Ớ":{"ha":1022,"x_min":97,"x_max":946,"o":"m 946 1021 q 834 843 946 864 q 913 500 913 712 q 864 219 913 335 q 724 45 815 104 q 506 -14 633 -14 q 286 45 378 -14 q 146 218 194 103 q 97 497 97 333 q 146 782 97 665 q 287 958 195 899 q 507 1018 379 1018 q 669 988 597 1018 q 793 899 741 958 q 840 913 823 901 q 865 950 857 925 q 875 1021 874 976 l 946 1021 m 508 43 q 765 157 678 43 q 851 500 851 271 q 763 845 851 730 q 507 961 675 961 q 248 845 338 961 q 158 500 158 729 q 248 158 158 272 q 508 43 338 43 m 681 1239 l 349 1131 l 335 1174 l 661 1301 l 681 1239 z "},"Ợ":{"ha":1022,"x_min":97,"x_max":946,"o":"m 946 1021 q 834 843 946 864 q 913 500 913 712 q 864 219 913 335 q 724 45 815 104 q 506 -14 633 -14 q 286 45 378 -14 q 146 218 194 103 q 97 497 97 333 q 146 782 97 665 q 287 958 195 899 q 507 1018 379 1018 q 669 988 597 1018 q 793 899 741 958 q 840 913 823 901 q 865 950 857 925 q 875 1021 874 976 l 946 1021 m 508 43 q 765 157 678 43 q 851 500 851 271 q 763 845 851 730 q 507 961 675 961 q 248 845 338 961 q 158 500 158 729 q 248 158 158 272 q 508 43 338 43 z "},"Ờ":{"ha":1022,"x_min":97,"x_max":946,"o":"m 946 1021 q 834 843 946 864 q 913 500 913 712 q 864 219 913 335 q 724 45 815 104 q 506 -14 633 -14 q 286 45 378 -14 q 146 218 194 103 q 97 497 97 333 q 146 782 97 665 q 287 958 195 899 q 507 1018 379 1018 q 669 988 597 1018 q 793 899 741 958 q 840 913 823 901 q 865 950 857 925 q 875 1021 874 976 l 946 1021 m 508 43 q 765 157 678 43 q 851 500 851 271 q 763 845 851 730 q 507 961 675 961 q 248 845 338 961 q 158 500 158 729 q 248 158 158 272 q 508 43 338 43 m 657 1174 l 643 1131 l 311 1239 l 331 1301 l 657 1174 z "},"Ở":{"ha":1022,"x_min":97,"x_max":946,"o":"m 946 1021 q 834 843 946 864 q 913 500 913 712 q 864 219 913 335 q 724 45 815 104 q 506 -14 633 -14 q 286 45 378 -14 q 146 218 194 103 q 97 497 97 333 q 146 782 97 665 q 287 958 195 899 q 507 1018 379 1018 q 669 988 597 1018 q 793 899 741 958 q 840 913 823 901 q 865 950 857 925 q 875 1021 874 976 l 946 1021 m 508 43 q 765 157 678 43 q 851 500 851 271 q 763 845 851 730 q 507 961 675 961 q 248 845 338 961 q 158 500 158 729 q 248 158 158 272 q 508 43 338 43 m 443 1239 q 508 1262 477 1262 q 553 1239 539 1262 q 560 1215 560 1228 q 545 1176 560 1197 q 506 1140 531 1156 l 533 1099 q 592 1151 571 1122 q 613 1212 613 1181 q 594 1268 613 1240 q 558 1301 580 1290 q 508 1312 535 1312 q 415 1282 463 1312 l 443 1239 z "},"Ỡ":{"ha":1022,"x_min":97,"x_max":946,"o":"m 946 1021 q 834 843 946 864 q 913 500 913 712 q 864 219 913 335 q 724 45 815 104 q 506 -14 633 -14 q 286 45 378 -14 q 146 218 194 103 q 97 497 97 333 q 146 782 97 665 q 287 958 195 899 q 507 1018 379 1018 q 669 988 597 1018 q 793 899 741 958 q 840 913 823 901 q 865 950 857 925 q 875 1021 874 976 l 946 1021 m 508 43 q 765 157 678 43 q 851 500 851 271 q 763 845 851 730 q 507 961 675 961 q 248 845 338 961 q 158 500 158 729 q 248 158 158 272 q 508 43 338 43 m 688 1229 q 643 1206 664 1214 q 588 1197 623 1197 q 544 1202 563 1197 q 501 1215 526 1206 q 464 1227 478 1224 q 433 1231 451 1231 q 393 1224 410 1231 q 359 1205 377 1217 q 347 1197 349 1198 l 331 1236 q 377 1266 356 1256 q 428 1276 399 1276 q 466 1272 448 1276 q 508 1259 484 1267 q 552 1246 535 1250 q 589 1242 569 1242 q 629 1248 613 1242 q 668 1271 645 1255 l 688 1229 z "},"Ő":{"ha":1010,"x_min":97,"x_max":913,"o":"m 506 -14 q 286 45 378 -14 q 146 218 194 103 q 97 497 97 333 q 146 782 97 665 q 287 958 195 899 q 507 1018 379 1018 q 725 959 633 1018 q 864 783 816 899 q 913 500 913 667 q 864 219 913 335 q 724 45 815 104 q 506 -14 633 -14 m 508 43 q 765 157 678 43 q 851 500 851 271 q 763 845 851 730 q 507 961 675 961 q 248 845 338 961 q 158 500 158 729 q 248 158 158 272 q 508 43 338 43 m 585 1253 l 397 1076 l 372 1113 l 543 1304 l 585 1253 m 776 1253 l 588 1075 l 564 1113 l 733 1304 l 776 1253 z "},"Ȏ":{"ha":1010,"x_min":97,"x_max":913,"o":"m 506 -14 q 286 45 378 -14 q 146 218 194 103 q 97 497 97 333 q 146 782 97 665 q 287 958 195 899 q 507 1018 379 1018 q 725 959 633 1018 q 864 783 816 899 q 913 500 913 667 q 864 219 913 335 q 724 45 815 104 q 506 -14 633 -14 m 508 43 q 765 157 678 43 q 851 500 851 271 q 763 845 851 730 q 507 961 675 961 q 248 845 338 961 q 158 500 158 729 q 248 158 158 272 q 508 43 338 43 m 617 1226 q 573 1275 599 1255 q 504 1294 547 1294 q 450 1283 472 1294 q 419 1259 428 1271 q 396 1226 410 1248 l 331 1226 q 359 1285 338 1257 q 417 1332 380 1313 q 504 1350 454 1350 q 593 1330 555 1350 q 654 1282 631 1310 q 685 1226 677 1253 l 617 1226 z "},"Ō":{"ha":1010,"x_min":97,"x_max":913,"o":"m 506 -14 q 286 45 378 -14 q 146 218 194 103 q 97 497 97 333 q 146 782 97 665 q 287 958 195 899 q 507 1018 379 1018 q 725 959 633 1018 q 864 783 816 899 q 913 500 913 667 q 864 219 913 335 q 724 45 815 104 q 506 -14 633 -14 m 508 43 q 765 157 678 43 q 851 500 851 271 q 763 845 851 730 q 507 961 675 961 q 248 845 338 961 q 158 500 158 729 q 248 158 158 272 q 508 43 338 43 m 678 1213 l 338 1213 l 338 1264 l 678 1264 l 678 1213 z "},"Ǫ":{"ha":1010,"x_min":97,"x_max":913,"o":"m 605 -3 q 505 -64 535 -36 q 474 -129 474 -92 q 492 -172 474 -158 q 551 -186 510 -186 q 610 -179 582 -186 q 650 -165 638 -172 l 650 -208 q 601 -225 633 -217 q 538 -232 570 -232 q 445 -203 476 -232 q 414 -126 414 -174 q 433 -63 414 -90 q 497 -14 453 -35 q 282 47 372 -12 q 145 220 192 106 q 97 497 97 334 q 146 782 97 665 q 287 958 195 899 q 507 1018 379 1018 q 725 959 633 1018 q 864 783 816 899 q 913 500 913 667 q 832 157 913 286 q 605 -3 752 28 m 158 500 q 248 158 158 272 q 508 43 338 43 q 765 157 678 43 q 851 500 851 271 q 763 845 851 730 q 507 961 675 961 q 248 845 338 961 q 158 500 158 729 z "},"Ø":{"ha":1007,"x_min":49,"x_max":958,"o":"m 49 26 l 169 167 q 96 497 96 291 q 145 782 96 665 q 285 958 194 899 q 504 1018 377 1018 q 670 986 597 1018 q 797 893 744 955 l 908 1021 l 958 978 l 836 836 q 911 500 911 706 q 862 219 911 335 q 722 45 813 104 q 503 -14 630 -14 q 335 17 409 -14 q 210 110 260 49 l 97 -18 l 49 26 m 756 846 q 504 960 671 960 q 250 845 335 960 q 164 500 164 730 q 214 218 164 326 l 756 846 m 506 44 q 758 157 674 44 q 842 500 842 269 q 792 786 842 676 l 250 158 q 506 44 337 44 z "},"Ǿ":{"ha":1007,"x_min":49,"x_max":958,"o":"m 49 26 l 169 167 q 96 497 96 291 q 145 782 96 665 q 285 958 194 899 q 504 1018 377 1018 q 670 986 597 1018 q 797 893 744 955 l 908 1021 l 958 978 l 836 836 q 911 500 911 706 q 862 219 911 335 q 722 45 813 104 q 503 -14 630 -14 q 335 17 409 -14 q 210 110 260 49 l 97 -18 l 49 26 m 756 846 q 504 960 671 960 q 250 845 335 960 q 164 500 164 730 q 214 218 164 326 l 756 846 m 506 44 q 758 157 674 44 q 842 500 842 269 q 792 786 842 676 l 250 158 q 506 44 337 44 m 676 1239 l 344 1131 l 331 1174 l 657 1301 l 676 1239 z "},"Õ":{"ha":1010,"x_min":97,"x_max":913,"o":"m 506 -14 q 286 45 378 -14 q 146 218 194 103 q 97 497 97 333 q 146 782 97 665 q 287 958 195 899 q 507 1018 379 1018 q 725 959 633 1018 q 864 783 816 899 q 913 500 913 667 q 864 219 913 335 q 724 45 815 104 q 506 -14 633 -14 m 508 43 q 765 157 678 43 q 851 500 851 271 q 763 845 851 730 q 507 961 675 961 q 248 845 338 961 q 158 500 158 729 q 248 158 158 272 q 508 43 338 43 m 688 1229 q 643 1206 664 1214 q 588 1197 623 1197 q 544 1202 563 1197 q 501 1215 526 1206 q 464 1227 478 1224 q 433 1231 451 1231 q 393 1224 410 1231 q 359 1205 377 1217 q 347 1197 349 1198 l 331 1236 q 377 1266 356 1256 q 428 1276 399 1276 q 466 1272 448 1276 q 508 1259 484 1267 q 552 1246 535 1250 q 589 1242 569 1242 q 629 1248 613 1242 q 668 1271 645 1255 l 688 1229 z "},"Œ":{"ha":1539,"x_min":97,"x_max":1442,"o":"m 1442 0 l 850 0 l 850 190 q 713 38 800 90 q 506 -14 625 -14 q 286 45 378 -14 q 146 218 194 103 q 97 497 97 333 q 147 782 97 665 q 288 958 196 899 q 507 1018 380 1018 q 713 966 626 1018 q 850 813 800 915 l 850 1004 l 1421 1004 l 1421 950 l 913 950 l 913 535 l 1311 535 l 1311 481 l 913 481 l 913 54 l 1442 54 l 1442 0 m 508 43 q 760 156 676 43 q 844 500 844 269 q 759 846 844 731 q 507 961 674 961 q 250 845 338 961 q 163 500 163 730 q 250 157 163 272 q 508 43 338 43 z "},"P":{"ha":865,"x_min":146,"x_max":817,"o":"m 146 1004 l 456 1004 q 644 969 563 1004 q 771 866 726 935 q 817 699 817 797 q 772 529 817 600 q 647 422 727 458 q 464 385 567 385 l 206 385 l 206 0 l 146 0 l 146 1004 m 464 444 q 617 475 551 444 q 719 563 683 505 q 756 703 756 621 q 676 885 756 824 q 454 946 596 946 l 206 946 l 206 444 l 464 444 z "},"Þ":{"ha":868,"x_min":146,"x_max":819,"o":"m 819 528 q 725 314 819 382 q 467 246 630 246 l 208 246 l 208 0 l 146 0 l 146 1004 l 208 1004 l 208 785 l 458 785 q 722 721 625 785 q 819 528 819 657 m 754 528 q 678 683 754 636 q 457 731 601 731 l 208 731 l 208 300 l 467 300 q 754 528 754 300 z "},"Q":{"ha":982,"x_min":76,"x_max":892,"o":"m 76 500 q 125 784 76 668 q 265 959 174 900 q 485 1018 357 1018 q 703 959 613 1018 q 843 784 794 900 q 892 500 892 668 q 839 204 892 322 q 667 25 785 87 q 879 -110 728 -103 l 879 -165 q 789 -151 838 -165 q 689 -99 739 -136 q 607 1 640 -62 q 485 -14 537 -14 q 267 44 359 -14 q 126 216 176 101 q 76 500 76 331 m 138 497 q 227 157 138 270 q 485 43 316 43 q 743 157 654 43 q 832 500 832 271 q 743 843 832 726 q 485 961 655 961 q 226 843 315 961 q 138 497 138 725 z "},"R":{"ha":913,"x_min":146,"x_max":808,"o":"m 740 0 l 538 478 l 200 478 l 200 0 l 146 0 l 146 1004 l 500 1004 q 728 941 648 1004 q 808 756 808 878 q 745 577 808 641 q 594 490 683 513 l 803 0 l 740 0 m 453 535 q 676 585 601 535 q 750 746 750 635 q 687 900 750 851 q 499 949 624 949 l 200 949 l 200 535 l 453 535 z "},"Ŕ":{"ha":913,"x_min":146,"x_max":808,"o":"m 740 0 l 538 478 l 200 478 l 200 0 l 146 0 l 146 1004 l 500 1004 q 728 941 648 1004 q 808 756 808 878 q 745 577 808 641 q 594 490 683 513 l 803 0 l 740 0 m 453 535 q 676 585 601 535 q 750 746 750 635 q 687 900 750 851 q 499 949 624 949 l 200 949 l 200 535 l 453 535 m 608 1239 l 276 1131 l 263 1174 l 589 1301 l 608 1239 z "},"Ř":{"ha":913,"x_min":146,"x_max":808,"o":"m 740 0 l 538 478 l 200 478 l 200 0 l 146 0 l 146 1004 l 500 1004 q 728 941 648 1004 q 808 756 808 878 q 745 577 808 641 q 594 490 683 513 l 803 0 l 740 0 m 453 535 q 676 585 601 535 q 750 746 750 635 q 687 900 750 851 q 499 949 624 949 l 200 949 l 200 535 l 453 535 m 622 1290 l 460 1158 l 415 1158 l 249 1290 l 328 1290 l 436 1207 l 539 1290 l 622 1290 z "},"Ŗ":{"ha":913,"x_min":146,"x_max":808,"o":"m 740 0 l 538 478 l 200 478 l 200 0 l 146 0 l 146 1004 l 500 1004 q 728 941 648 1004 q 808 756 808 878 q 745 577 808 641 q 594 490 683 513 l 803 0 l 740 0 m 453 535 q 676 585 601 535 q 750 746 750 635 q 687 900 750 851 q 499 949 624 949 l 200 949 l 200 535 l 453 535 z "},"Ȑ":{"ha":913,"x_min":146,"x_max":808,"o":"m 740 0 l 538 478 l 200 478 l 200 0 l 146 0 l 146 1004 l 500 1004 q 728 941 648 1004 q 808 756 808 878 q 745 577 808 641 q 594 490 683 513 l 803 0 l 740 0 m 453 535 q 676 585 601 535 q 750 746 750 635 q 687 900 750 851 q 499 949 624 949 l 200 949 l 200 535 l 453 535 m 382 1113 l 358 1076 l 169 1253 l 211 1304 l 382 1113 m 572 1113 l 547 1076 l 360 1253 l 401 1304 l 572 1113 z "},"Ṛ":{"ha":913,"x_min":146,"x_max":808,"o":"m 740 0 l 538 478 l 200 478 l 200 0 l 146 0 l 146 1004 l 500 1004 q 728 941 648 1004 q 808 756 808 878 q 745 577 808 641 q 594 490 683 513 l 803 0 l 740 0 m 453 535 q 676 585 601 535 q 750 746 750 635 q 687 900 750 851 q 499 949 624 949 l 200 949 l 200 535 l 453 535 z "},"Ȓ":{"ha":913,"x_min":146,"x_max":808,"o":"m 740 0 l 538 478 l 200 478 l 200 0 l 146 0 l 146 1004 l 500 1004 q 728 941 648 1004 q 808 756 808 878 q 745 577 808 641 q 594 490 683 513 l 803 0 l 740 0 m 453 535 q 676 585 601 535 q 750 746 750 635 q 687 900 750 851 q 499 949 624 949 l 200 949 l 200 535 l 453 535 m 544 1226 q 500 1275 526 1255 q 432 1294 474 1294 q 377 1283 399 1294 q 347 1259 356 1271 q 324 1226 338 1248 l 258 1226 q 286 1285 265 1257 q 345 1332 308 1313 q 432 1350 382 1350 q 521 1330 483 1350 q 582 1282 559 1310 q 613 1226 605 1253 l 544 1226 z "},"S":{"ha":939,"x_min":97,"x_max":828,"o":"m 471 -14 q 299 16 378 -14 q 165 101 219 45 q 97 232 112 156 l 156 244 q 216 133 170 178 q 329 64 263 87 q 471 40 395 40 q 625 66 557 40 q 730 139 692 92 q 768 243 768 185 q 723 382 768 326 q 585 461 678 438 l 361 517 q 188 599 246 546 q 129 739 129 652 q 171 881 129 818 q 290 981 213 944 q 465 1017 366 1017 q 649 980 574 1017 q 762 884 723 944 q 808 750 801 824 l 753 739 q 654 907 733 854 q 463 960 575 960 q 335 935 399 960 q 231 861 272 911 q 189 740 189 812 q 209 664 189 696 q 274 607 228 632 q 399 561 320 582 l 613 506 q 776 407 725 476 q 828 246 828 338 q 787 115 828 174 q 666 21 747 56 q 471 -14 585 -14 z "},"Ś":{"ha":939,"x_min":97,"x_max":828,"o":"m 471 -14 q 299 16 378 -14 q 165 101 219 45 q 97 232 112 156 l 156 244 q 216 133 170 178 q 329 64 263 87 q 471 40 395 40 q 625 66 557 40 q 730 139 692 92 q 768 243 768 185 q 723 382 768 326 q 585 461 678 438 l 361 517 q 188 599 246 546 q 129 739 129 652 q 171 881 129 818 q 290 981 213 944 q 465 1017 366 1017 q 649 980 574 1017 q 762 884 723 944 q 808 750 801 824 l 753 739 q 654 907 733 854 q 463 960 575 960 q 335 935 399 960 q 231 861 272 911 q 189 740 189 812 q 209 664 189 696 q 274 607 228 632 q 399 561 320 582 l 613 506 q 776 407 725 476 q 828 246 828 338 q 787 115 828 174 q 666 21 747 56 q 471 -14 585 -14 m 635 1239 l 303 1131 l 289 1174 l 615 1301 l 635 1239 z "},"Š":{"ha":939,"x_min":97,"x_max":828,"o":"m 471 -14 q 299 16 378 -14 q 165 101 219 45 q 97 232 112 156 l 156 244 q 216 133 170 178 q 329 64 263 87 q 471 40 395 40 q 625 66 557 40 q 730 139 692 92 q 768 243 768 185 q 723 382 768 326 q 585 461 678 438 l 361 517 q 188 599 246 546 q 129 739 129 652 q 171 881 129 818 q 290 981 213 944 q 465 1017 366 1017 q 649 980 574 1017 q 762 884 723 944 q 808 750 801 824 l 753 739 q 654 907 733 854 q 463 960 575 960 q 335 935 399 960 q 231 861 272 911 q 189 740 189 812 q 209 664 189 696 q 274 607 228 632 q 399 561 320 582 l 613 506 q 776 407 725 476 q 828 246 828 338 q 787 115 828 174 q 666 21 747 56 q 471 -14 585 -14 m 649 1290 l 486 1158 l 442 1158 l 275 1290 l 354 1290 l 463 1207 l 565 1290 l 649 1290 z "},"Ş":{"ha":939,"x_min":97,"x_max":828,"o":"m 444 -79 q 528 -111 503 -84 q 553 -175 553 -137 q 515 -250 553 -224 q 418 -276 476 -276 q 314 -244 358 -276 l 329 -206 q 364 -228 345 -221 q 413 -236 383 -236 q 474 -222 454 -236 q 493 -178 493 -207 q 468 -130 493 -146 q 389 -112 442 -115 q 383 -107 381 -112 l 425 -12 q 273 26 342 -5 q 157 110 203 57 q 97 232 110 163 l 156 244 q 216 133 170 178 q 329 64 263 87 q 471 40 395 40 q 625 66 557 40 q 730 139 692 92 q 768 243 768 185 q 723 382 768 326 q 585 461 678 438 l 361 517 q 188 599 246 546 q 129 739 129 652 q 171 881 129 818 q 290 981 213 944 q 465 1017 366 1017 q 649 980 574 1017 q 762 884 723 944 q 808 750 801 824 l 753 739 q 654 907 733 854 q 463 960 575 960 q 335 935 399 960 q 231 861 272 911 q 189 740 189 812 q 209 664 189 696 q 274 607 228 632 q 399 561 320 582 l 613 506 q 776 407 725 476 q 828 246 828 338 q 787 115 828 174 q 666 21 747 56 q 471 -14 585 -14 l 444 -79 z "},"Ŝ":{"ha":939,"x_min":97,"x_max":828,"o":"m 471 -14 q 299 16 378 -14 q 165 101 219 45 q 97 232 112 156 l 156 244 q 216 133 170 178 q 329 64 263 87 q 471 40 395 40 q 625 66 557 40 q 730 139 692 92 q 768 243 768 185 q 723 382 768 326 q 585 461 678 438 l 361 517 q 188 599 246 546 q 129 739 129 652 q 171 881 129 818 q 290 981 213 944 q 465 1017 366 1017 q 649 980 574 1017 q 762 884 723 944 q 808 750 801 824 l 753 739 q 654 907 733 854 q 463 960 575 960 q 335 935 399 960 q 231 861 272 911 q 189 740 189 812 q 209 664 189 696 q 274 607 228 632 q 399 561 320 582 l 613 506 q 776 407 725 476 q 828 246 828 338 q 787 115 828 174 q 666 21 747 56 q 471 -14 585 -14 m 463 1242 l 354 1158 l 276 1158 l 442 1290 l 486 1290 l 649 1158 l 565 1158 l 463 1242 z "},"Ș":{"ha":939,"x_min":97,"x_max":828,"o":"m 471 -14 q 299 16 378 -14 q 165 101 219 45 q 97 232 112 156 l 156 244 q 216 133 170 178 q 329 64 263 87 q 471 40 395 40 q 625 66 557 40 q 730 139 692 92 q 768 243 768 185 q 723 382 768 326 q 585 461 678 438 l 361 517 q 188 599 246 546 q 129 739 129 652 q 171 881 129 818 q 290 981 213 944 q 465 1017 366 1017 q 649 980 574 1017 q 762 884 723 944 q 808 750 801 824 l 753 739 q 654 907 733 854 q 463 960 575 960 q 335 935 399 960 q 231 861 272 911 q 189 740 189 812 q 209 664 189 696 q 274 607 228 632 q 399 561 320 582 l 613 506 q 776 407 725 476 q 828 246 828 338 q 787 115 828 174 q 666 21 747 56 q 471 -14 585 -14 z "},"Ṣ":{"ha":939,"x_min":97,"x_max":828,"o":"m 471 -14 q 299 16 378 -14 q 165 101 219 45 q 97 232 112 156 l 156 244 q 216 133 170 178 q 329 64 263 87 q 471 40 395 40 q 625 66 557 40 q 730 139 692 92 q 768 243 768 185 q 723 382 768 326 q 585 461 678 438 l 361 517 q 188 599 246 546 q 129 739 129 652 q 171 881 129 818 q 290 981 213 944 q 465 1017 366 1017 q 649 980 574 1017 q 762 884 723 944 q 808 750 801 824 l 753 739 q 654 907 733 854 q 463 960 575 960 q 335 935 399 960 q 231 861 272 911 q 189 740 189 812 q 209 664 189 696 q 274 607 228 632 q 399 561 320 582 l 613 506 q 776 407 725 476 q 828 246 828 338 q 787 115 828 174 q 666 21 747 56 q 471 -14 585 -14 z "},"Ə":{"ha":1008,"x_min":97,"x_max":911,"o":"m 842 522 q 816 722 842 624 q 716 889 790 819 q 506 960 641 960 q 328 916 394 960 q 234 820 262 873 q 188 706 206 768 q 179 678 182 684 q 176 676 178 676 l 169 678 l 118 694 q 115 699 115 695 q 117 707 115 702 l 124 726 q 182 853 147 792 q 298 966 218 915 q 506 1018 378 1018 q 753 939 663 1018 q 877 744 844 860 q 911 496 911 628 q 872 244 911 359 q 743 58 833 130 q 506 -14 652 -14 q 191 130 285 -14 q 97 500 97 274 q 99 512 97 508 q 108 515 101 515 l 833 515 q 840 516 839 515 q 842 522 842 517 m 179 458 q 168 450 168 458 q 199 253 168 344 q 305 103 230 162 q 506 44 381 44 q 763 162 687 44 q 842 458 838 280 l 179 458 z "},"T":{"ha":757,"x_min":21,"x_max":736,"o":"m 21 1004 l 736 1004 l 736 949 l 419 949 l 419 0 l 365 0 l 365 949 l 21 949 l 21 1004 z "},"Ŧ":{"ha":757,"x_min":21,"x_max":736,"o":"m 419 949 l 419 544 l 644 544 l 644 488 l 419 488 l 419 0 l 365 0 l 365 488 l 149 488 l 149 544 l 365 544 l 365 949 l 21 949 l 21 1004 l 736 1004 l 736 949 l 419 949 z "},"Ť":{"ha":757,"x_min":21,"x_max":736,"o":"m 21 1004 l 736 1004 l 736 949 l 419 949 l 419 0 l 365 0 l 365 949 l 21 949 l 21 1004 m 581 1290 l 418 1158 l 374 1158 l 207 1290 l 286 1290 l 394 1207 l 497 1290 l 581 1290 z "},"Ţ":{"ha":757,"x_min":21,"x_max":736,"o":"m 415 0 l 385 -76 q 468 -108 443 -81 q 493 -172 493 -135 q 455 -247 493 -221 q 358 -274 417 -274 q 254 -242 299 -274 l 269 -203 q 305 -226 285 -218 q 353 -233 324 -233 q 414 -219 394 -233 q 433 -175 433 -204 q 408 -127 433 -143 q 329 -110 383 -112 q 324 -104 321 -110 l 369 0 l 365 0 l 365 949 l 21 949 l 21 1004 l 736 1004 l 736 949 l 419 949 l 419 0 l 415 0 z "},"Ț":{"ha":757,"x_min":21,"x_max":736,"o":"m 21 1004 l 736 1004 l 736 949 l 419 949 l 419 0 l 365 0 l 365 949 l 21 949 l 21 1004 z "},"Ṭ":{"ha":757,"x_min":21,"x_max":736,"o":"m 21 1004 l 736 1004 l 736 949 l 419 949 l 419 0 l 365 0 l 365 949 l 21 949 l 21 1004 z "},"U":{"ha":957,"x_min":146,"x_max":811,"o":"m 811 311 q 728 67 811 148 q 478 -14 646 -14 q 226 70 307 -14 q 146 332 146 155 l 146 1004 l 206 1004 l 206 308 q 273 107 206 176 q 478 39 341 39 q 687 107 617 39 q 757 308 757 175 l 757 1004 l 811 1004 l 811 311 z "},"Ú":{"ha":957,"x_min":146,"x_max":811,"o":"m 811 311 q 728 67 811 148 q 478 -14 646 -14 q 226 70 307 -14 q 146 332 146 155 l 146 1004 l 206 1004 l 206 308 q 273 107 206 176 q 478 39 341 39 q 687 107 617 39 q 757 308 757 175 l 757 1004 l 811 1004 l 811 311 m 653 1239 l 321 1131 l 307 1174 l 633 1301 l 653 1239 z "},"Ŭ":{"ha":957,"x_min":146,"x_max":811,"o":"m 811 311 q 728 67 811 148 q 478 -14 646 -14 q 226 70 307 -14 q 146 332 146 155 l 146 1004 l 206 1004 l 206 308 q 273 107 206 176 q 478 39 341 39 q 687 107 617 39 q 757 308 757 175 l 757 1004 l 811 1004 l 811 311 m 665 1288 q 635 1232 658 1260 q 574 1184 612 1203 q 485 1164 535 1164 q 398 1182 435 1164 q 339 1229 360 1201 q 311 1288 318 1257 l 376 1288 q 390 1266 378 1285 q 427 1233 401 1247 q 485 1219 452 1219 q 553 1239 527 1219 q 597 1288 579 1259 l 665 1288 z "},"Û":{"ha":957,"x_min":146,"x_max":811,"o":"m 811 311 q 728 67 811 148 q 478 -14 646 -14 q 226 70 307 -14 q 146 332 146 155 l 146 1004 l 206 1004 l 206 308 q 273 107 206 176 q 478 39 341 39 q 687 107 617 39 q 757 308 757 175 l 757 1004 l 811 1004 l 811 311 m 481 1242 l 372 1158 l 294 1158 l 460 1290 l 504 1290 l 667 1158 l 583 1158 l 481 1242 z "},"Ȕ":{"ha":957,"x_min":146,"x_max":811,"o":"m 811 311 q 728 67 811 148 q 478 -14 646 -14 q 226 70 307 -14 q 146 332 146 155 l 146 1004 l 206 1004 l 206 308 q 273 107 206 176 q 478 39 341 39 q 687 107 617 39 q 757 308 757 175 l 757 1004 l 811 1004 l 811 311 m 426 1113 l 403 1076 l 214 1253 l 256 1304 l 426 1113 m 617 1113 l 592 1076 l 404 1253 l 446 1304 l 617 1113 z "},"Ü":{"ha":957,"x_min":146,"x_max":811,"o":"m 811 311 q 728 67 811 148 q 478 -14 646 -14 q 226 70 307 -14 q 146 332 146 155 l 146 1004 l 206 1004 l 206 308 q 273 107 206 176 q 478 39 341 39 q 687 107 617 39 q 757 308 757 175 l 757 1004 l 811 1004 l 811 311 m 358 1268 l 425 1268 l 425 1185 l 358 1185 l 358 1268 m 533 1268 l 600 1268 l 600 1185 l 533 1185 l 533 1268 z "},"Ụ":{"ha":957,"x_min":146,"x_max":811,"o":"m 811 311 q 728 67 811 148 q 478 -14 646 -14 q 226 70 307 -14 q 146 332 146 155 l 146 1004 l 206 1004 l 206 308 q 273 107 206 176 q 478 39 341 39 q 687 107 617 39 q 757 308 757 175 l 757 1004 l 811 1004 l 811 311 z "},"Ù":{"ha":957,"x_min":146,"x_max":811,"o":"m 811 311 q 728 67 811 148 q 478 -14 646 -14 q 226 70 307 -14 q 146 332 146 155 l 146 1004 l 206 1004 l 206 308 q 273 107 206 176 q 478 39 341 39 q 687 107 617 39 q 757 308 757 175 l 757 1004 l 811 1004 l 811 311 m 629 1174 l 615 1131 l 283 1239 l 303 1301 l 629 1174 z "},"Ủ":{"ha":957,"x_min":146,"x_max":811,"o":"m 811 311 q 728 67 811 148 q 478 -14 646 -14 q 226 70 307 -14 q 146 332 146 155 l 146 1004 l 206 1004 l 206 308 q 273 107 206 176 q 478 39 341 39 q 687 107 617 39 q 757 308 757 175 l 757 1004 l 811 1004 l 811 311 m 415 1239 q 481 1262 449 1262 q 525 1239 511 1262 q 532 1215 532 1228 q 517 1176 532 1197 q 478 1140 503 1156 l 506 1099 q 564 1151 543 1122 q 585 1212 585 1181 q 567 1268 585 1240 q 530 1301 552 1290 q 481 1312 508 1312 q 388 1282 435 1312 l 415 1239 z "},"Ư":{"ha":1086,"x_min":146,"x_max":968,"o":"m 968 1021 q 929 883 968 928 q 811 840 890 838 l 811 311 q 728 67 811 148 q 478 -14 646 -14 q 226 70 307 -14 q 146 332 146 155 l 146 1004 l 206 1004 l 206 308 q 273 107 206 176 q 478 39 341 39 q 687 107 617 39 q 757 308 757 175 l 757 1004 l 811 1004 l 811 899 q 861 912 843 901 q 887 949 878 923 q 897 1021 896 974 l 968 1021 z "},"Ứ":{"ha":1086,"x_min":146,"x_max":968,"o":"m 321 1131 l 307 1174 l 633 1301 l 653 1239 l 321 1131 m 968 1021 q 929 883 968 928 q 811 840 890 838 l 811 311 q 728 67 811 148 q 478 -14 646 -14 q 226 70 307 -14 q 146 332 146 155 l 146 1004 l 206 1004 l 206 308 q 273 107 206 176 q 478 39 341 39 q 687 107 617 39 q 757 308 757 175 l 757 1004 l 811 1004 l 811 899 q 861 912 843 901 q 887 949 878 923 q 897 1021 896 974 l 968 1021 z "},"Ự":{"ha":1086,"x_min":146,"x_max":968,"o":"m 968 1021 q 929 883 968 928 q 811 840 890 838 l 811 311 q 728 67 811 148 q 478 -14 646 -14 q 226 70 307 -14 q 146 332 146 155 l 146 1004 l 206 1004 l 206 308 q 273 107 206 176 q 478 39 341 39 q 687 107 617 39 q 757 308 757 175 l 757 1004 l 811 1004 l 811 899 q 861 912 843 901 q 887 949 878 923 q 897 1021 896 974 l 968 1021 m 442 -131 l 508 -131 l 508 -214 l 442 -214 l 442 -131 z "},"Ừ":{"ha":1086,"x_min":146,"x_max":968,"o":"m 615 1131 l 283 1239 l 303 1301 l 629 1174 l 615 1131 m 968 1021 q 929 883 968 928 q 811 840 890 838 l 811 311 q 728 67 811 148 q 478 -14 646 -14 q 226 70 307 -14 q 146 332 146 155 l 146 1004 l 206 1004 l 206 308 q 273 107 206 176 q 478 39 341 39 q 687 107 617 39 q 757 308 757 175 l 757 1004 l 811 1004 l 811 899 q 861 912 843 901 q 887 949 878 923 q 897 1021 896 974 l 968 1021 z "},"Ử":{"ha":1086,"x_min":146,"x_max":968,"o":"m 525 1239 q 481 1262 511 1262 q 415 1239 449 1262 l 388 1282 q 481 1312 435 1312 q 530 1301 508 1312 q 567 1268 552 1290 q 585 1212 585 1240 q 564 1151 585 1181 q 506 1099 543 1122 l 478 1140 q 517 1176 503 1156 q 532 1215 532 1197 q 525 1239 532 1228 m 968 1021 q 929 883 968 928 q 811 840 890 838 l 811 311 q 728 67 811 148 q 478 -14 646 -14 q 226 70 307 -14 q 146 332 146 155 l 146 1004 l 206 1004 l 206 308 q 273 107 206 176 q 478 39 341 39 q 687 107 617 39 q 757 308 757 175 l 757 1004 l 811 1004 l 811 899 q 861 912 843 901 q 887 949 878 923 q 897 1021 896 974 l 968 1021 z "},"Ữ":{"ha":1086,"x_min":146,"x_max":968,"o":"m 406 1231 q 366 1224 382 1231 q 331 1205 349 1217 q 319 1197 321 1198 l 303 1236 q 349 1266 328 1256 q 400 1276 371 1276 q 439 1272 420 1276 q 481 1259 458 1267 q 525 1246 509 1250 q 561 1242 542 1242 q 601 1248 585 1242 q 640 1271 617 1255 l 660 1229 q 616 1206 636 1214 q 560 1197 595 1197 q 517 1202 535 1197 q 473 1215 499 1206 q 436 1227 450 1224 q 406 1231 423 1231 m 968 1021 q 929 883 968 928 q 811 840 890 838 l 811 311 q 728 67 811 148 q 478 -14 646 -14 q 226 70 307 -14 q 146 332 146 155 l 146 1004 l 206 1004 l 206 308 q 273 107 206 176 q 478 39 341 39 q 687 107 617 39 q 757 308 757 175 l 757 1004 l 811 1004 l 811 899 q 861 912 843 901 q 887 949 878 923 q 897 1021 896 974 l 968 1021 z "},"Ű":{"ha":957,"x_min":146,"x_max":811,"o":"m 811 311 q 728 67 811 148 q 478 -14 646 -14 q 226 70 307 -14 q 146 332 146 155 l 146 1004 l 206 1004 l 206 308 q 273 107 206 176 q 478 39 341 39 q 687 107 617 39 q 757 308 757 175 l 757 1004 l 811 1004 l 811 311 m 557 1253 l 369 1076 l 344 1113 l 515 1304 l 557 1253 m 749 1253 l 560 1075 l 536 1113 l 706 1304 l 749 1253 z "},"Ȗ":{"ha":957,"x_min":146,"x_max":811,"o":"m 811 311 q 728 67 811 148 q 478 -14 646 -14 q 226 70 307 -14 q 146 332 146 155 l 146 1004 l 206 1004 l 206 308 q 273 107 206 176 q 478 39 341 39 q 687 107 617 39 q 757 308 757 175 l 757 1004 l 811 1004 l 811 311 m 589 1226 q 545 1275 571 1255 q 476 1294 519 1294 q 422 1283 444 1294 q 391 1259 400 1271 q 368 1226 382 1248 l 303 1226 q 331 1285 310 1257 q 389 1332 352 1313 q 476 1350 426 1350 q 565 1330 527 1350 q 626 1282 603 1310 q 657 1226 649 1253 l 589 1226 z "},"Ū":{"ha":957,"x_min":146,"x_max":811,"o":"m 811 311 q 728 67 811 148 q 478 -14 646 -14 q 226 70 307 -14 q 146 332 146 155 l 146 1004 l 206 1004 l 206 308 q 273 107 206 176 q 478 39 341 39 q 687 107 617 39 q 757 308 757 175 l 757 1004 l 811 1004 l 811 311 m 650 1213 l 310 1213 l 310 1264 l 650 1264 l 650 1213 z "},"Ų":{"ha":957,"x_min":146,"x_max":811,"o":"m 811 1004 l 811 311 q 751 93 811 172 q 571 -7 692 14 q 475 -65 505 -37 q 446 -129 446 -92 q 464 -172 446 -158 q 524 -186 483 -186 q 582 -179 554 -186 q 622 -165 610 -172 l 622 -208 q 574 -225 605 -217 q 510 -232 542 -232 q 417 -203 448 -232 q 386 -126 386 -174 q 405 -63 386 -90 q 469 -14 424 -35 q 224 73 303 -12 q 146 332 146 157 l 146 1004 l 206 1004 l 206 308 q 273 107 206 176 q 478 39 341 39 q 687 107 617 39 q 757 308 757 175 l 757 1004 l 811 1004 z "},"Ů":{"ha":957,"x_min":146,"x_max":811,"o":"m 811 311 q 728 67 811 148 q 478 -14 646 -14 q 226 70 307 -14 q 146 332 146 155 l 146 1004 l 206 1004 l 206 308 q 273 107 206 176 q 478 39 341 39 q 687 107 617 39 q 757 308 757 175 l 757 1004 l 811 1004 l 811 311 m 617 1235 q 599 1166 617 1197 q 549 1118 581 1135 q 481 1100 518 1100 q 413 1118 444 1100 q 364 1168 382 1136 q 346 1238 346 1199 q 364 1303 346 1273 q 414 1350 383 1333 q 481 1368 444 1368 q 549 1350 518 1368 q 599 1302 581 1333 q 617 1235 617 1272 m 558 1235 q 536 1292 558 1269 q 479 1314 513 1314 q 424 1292 447 1314 q 400 1235 400 1269 q 411 1195 400 1214 q 441 1165 422 1176 q 479 1154 459 1154 q 535 1178 512 1154 q 558 1235 558 1202 z "},"Ũ":{"ha":957,"x_min":146,"x_max":811,"o":"m 811 311 q 728 67 811 148 q 478 -14 646 -14 q 226 70 307 -14 q 146 332 146 155 l 146 1004 l 206 1004 l 206 308 q 273 107 206 176 q 478 39 341 39 q 687 107 617 39 q 757 308 757 175 l 757 1004 l 811 1004 l 811 311 m 660 1229 q 616 1206 636 1214 q 560 1197 595 1197 q 517 1202 535 1197 q 473 1215 499 1206 q 436 1227 450 1224 q 406 1231 423 1231 q 366 1224 382 1231 q 331 1205 349 1217 q 319 1197 321 1198 l 303 1236 q 349 1266 328 1256 q 400 1276 371 1276 q 438 1272 420 1276 q 481 1259 456 1267 q 524 1246 507 1250 q 561 1242 542 1242 q 601 1248 585 1242 q 640 1271 617 1255 l 660 1229 z "},"V":{"ha":842,"x_min":21,"x_max":821,"o":"m 457 0 l 376 0 l 21 1004 l 81 1004 l 417 57 l 763 1004 l 821 1004 l 457 0 z "},"W":{"ha":1311,"x_min":42,"x_max":1269,"o":"m 981 0 l 904 0 l 653 900 l 396 0 l 324 0 l 42 1004 l 103 1004 l 360 68 l 626 1004 l 681 1004 l 943 68 l 1210 1004 l 1269 1004 l 981 0 z "},"Ẃ":{"ha":1311,"x_min":42,"x_max":1269,"o":"m 981 0 l 904 0 l 653 900 l 396 0 l 324 0 l 42 1004 l 103 1004 l 360 68 l 626 1004 l 681 1004 l 943 68 l 1210 1004 l 1269 1004 l 981 0 m 826 1239 l 494 1131 l 481 1174 l 807 1301 l 826 1239 z "},"Ŵ":{"ha":1311,"x_min":42,"x_max":1269,"o":"m 981 0 l 904 0 l 653 900 l 396 0 l 324 0 l 42 1004 l 103 1004 l 360 68 l 626 1004 l 681 1004 l 943 68 l 1210 1004 l 1269 1004 l 981 0 m 654 1242 l 546 1158 l 468 1158 l 633 1290 l 678 1290 l 840 1158 l 757 1158 l 654 1242 z "},"Ẅ":{"ha":1311,"x_min":42,"x_max":1269,"o":"m 981 0 l 904 0 l 653 900 l 396 0 l 324 0 l 42 1004 l 103 1004 l 360 68 l 626 1004 l 681 1004 l 943 68 l 1210 1004 l 1269 1004 l 981 0 m 532 1268 l 599 1268 l 599 1185 l 532 1185 l 532 1268 m 707 1268 l 774 1268 l 774 1185 l 707 1185 l 707 1268 z "},"Ẁ":{"ha":1311,"x_min":42,"x_max":1269,"o":"m 981 0 l 904 0 l 653 900 l 396 0 l 324 0 l 42 1004 l 103 1004 l 360 68 l 626 1004 l 681 1004 l 943 68 l 1210 1004 l 1269 1004 l 981 0 m 803 1174 l 789 1131 l 457 1239 l 476 1301 l 803 1174 z "},"X":{"ha":850,"x_min":42,"x_max":808,"o":"m 739 0 l 425 461 l 111 0 l 42 0 l 389 515 l 57 1004 l 129 1004 l 424 567 l 721 1004 l 790 1004 l 460 515 l 808 0 l 739 0 z "},"Y":{"ha":749,"x_min":14,"x_max":735,"o":"m 404 432 l 404 0 l 350 0 l 350 433 l 14 1004 l 75 1004 l 378 488 l 675 1004 l 735 1004 l 404 432 z "},"Ý":{"ha":749,"x_min":14,"x_max":735,"o":"m 404 432 l 404 0 l 350 0 l 350 433 l 14 1004 l 75 1004 l 378 488 l 675 1004 l 735 1004 l 404 432 m 547 1242 l 215 1133 l 201 1176 l 528 1304 l 547 1242 z "},"Ŷ":{"ha":749,"x_min":14,"x_max":735,"o":"m 404 432 l 404 0 l 350 0 l 350 433 l 14 1004 l 75 1004 l 378 488 l 675 1004 l 735 1004 l 404 432 m 375 1244 l 267 1161 l 189 1161 l 354 1293 l 399 1293 l 561 1161 l 478 1161 l 375 1244 z "},"Ÿ":{"ha":749,"x_min":14,"x_max":735,"o":"m 404 432 l 404 0 l 350 0 l 350 433 l 14 1004 l 75 1004 l 378 488 l 675 1004 l 735 1004 l 404 432 m 253 1271 l 319 1271 l 319 1188 l 253 1188 l 253 1271 m 428 1271 l 494 1271 l 494 1188 l 428 1188 l 428 1271 z "},"Ỵ":{"ha":749,"x_min":14,"x_max":735,"o":"m 404 432 l 404 0 l 350 0 l 350 433 l 14 1004 l 75 1004 l 378 488 l 675 1004 l 735 1004 l 404 432 z "},"Ỳ":{"ha":749,"x_min":14,"x_max":735,"o":"m 404 432 l 404 0 l 350 0 l 350 433 l 14 1004 l 75 1004 l 378 488 l 675 1004 l 735 1004 l 404 432 m 524 1176 l 510 1133 l 178 1242 l 197 1304 l 524 1176 z "},"Ỷ":{"ha":749,"x_min":14,"x_max":735,"o":"m 404 432 l 404 0 l 350 0 l 350 433 l 14 1004 l 75 1004 l 378 488 l 675 1004 l 735 1004 l 404 432 m 310 1242 q 375 1265 344 1265 q 419 1242 406 1265 q 426 1218 426 1231 q 412 1179 426 1199 q 372 1143 397 1159 l 400 1101 q 459 1154 438 1125 q 480 1215 480 1183 q 461 1271 480 1243 q 424 1303 447 1292 q 375 1315 402 1315 q 282 1285 329 1315 l 310 1242 z "},"Ỹ":{"ha":749,"x_min":14,"x_max":735,"o":"m 404 432 l 404 0 l 350 0 l 350 433 l 14 1004 l 75 1004 l 378 488 l 675 1004 l 735 1004 l 404 432 m 554 1232 q 510 1208 531 1217 q 454 1200 490 1200 q 411 1205 429 1200 q 367 1218 393 1209 q 331 1230 344 1226 q 300 1233 317 1233 q 260 1227 276 1233 q 226 1208 244 1220 q 214 1200 215 1201 l 197 1239 q 244 1269 222 1259 q 294 1279 265 1279 q 333 1275 315 1279 q 375 1262 351 1270 q 419 1249 401 1253 q 456 1244 436 1244 q 495 1251 479 1244 q 535 1274 512 1258 l 554 1232 z "},"Z":{"ha":814,"x_min":76,"x_max":738,"o":"m 76 43 l 667 950 l 89 950 l 89 1004 l 738 1004 l 738 963 l 144 54 l 738 54 l 738 0 l 76 0 l 76 43 z "},"Ź":{"ha":814,"x_min":76,"x_max":738,"o":"m 76 43 l 667 950 l 89 950 l 89 1004 l 738 1004 l 738 963 l 144 54 l 738 54 l 738 0 l 76 0 l 76 43 m 586 1239 l 254 1131 l 240 1174 l 567 1301 l 586 1239 z "},"Ž":{"ha":814,"x_min":76,"x_max":738,"o":"m 76 43 l 667 950 l 89 950 l 89 1004 l 738 1004 l 738 963 l 144 54 l 738 54 l 738 0 l 76 0 l 76 43 m 600 1290 l 438 1158 l 393 1158 l 226 1290 l 306 1290 l 414 1207 l 517 1290 l 600 1290 z "},"Ż":{"ha":814,"x_min":76,"x_max":738,"o":"m 76 43 l 667 950 l 89 950 l 89 1004 l 738 1004 l 738 963 l 144 54 l 738 54 l 738 0 l 76 0 l 76 43 m 381 1242 l 447 1242 l 447 1158 l 381 1158 l 381 1242 z "},"Ẓ":{"ha":814,"x_min":76,"x_max":738,"o":"m 76 43 l 667 950 l 89 950 l 89 1004 l 738 1004 l 738 963 l 144 54 l 738 54 l 738 0 l 76 0 l 76 43 z "},"a":{"ha":742,"x_min":76,"x_max":631,"o":"m 307 -14 q 185 10 237 -14 q 105 78 133 34 q 76 183 76 123 q 110 315 76 265 q 218 391 144 366 q 411 421 291 417 l 576 426 l 576 496 q 550 594 576 552 q 476 657 524 635 q 368 679 429 679 q 231 639 288 679 q 164 526 175 599 l 106 526 q 141 626 109 579 q 232 703 174 674 q 371 732 291 732 q 506 703 447 732 q 598 622 565 675 q 631 497 631 569 l 631 0 l 581 0 l 578 139 q 465 21 534 56 q 307 -14 395 -14 m 315 38 q 435 66 374 38 q 536 140 497 94 q 576 232 576 185 l 576 372 l 438 369 q 257 348 323 367 q 162 290 191 329 q 133 188 133 251 q 183 77 133 117 q 315 38 232 38 z "},"á":{"ha":742,"x_min":76,"x_max":631,"o":"m 307 -14 q 185 10 237 -14 q 105 78 133 34 q 76 183 76 123 q 110 315 76 265 q 218 391 144 366 q 411 421 291 417 l 576 426 l 576 496 q 550 594 576 552 q 476 657 524 635 q 368 679 429 679 q 231 639 288 679 q 164 526 175 599 l 106 526 q 141 626 109 579 q 232 703 174 674 q 371 732 291 732 q 506 703 447 732 q 598 622 565 675 q 631 497 631 569 l 631 0 l 581 0 l 578 139 q 465 21 534 56 q 307 -14 395 -14 m 315 38 q 435 66 374 38 q 536 140 497 94 q 576 232 576 185 l 576 372 l 438 369 q 257 348 323 367 q 162 290 191 329 q 133 188 133 251 q 183 77 133 117 q 315 38 232 38 m 544 953 l 213 844 l 199 888 l 525 1015 l 544 953 z "},"ă":{"ha":742,"x_min":76,"x_max":631,"o":"m 307 -14 q 185 10 237 -14 q 105 78 133 34 q 76 183 76 123 q 110 315 76 265 q 218 391 144 366 q 411 421 291 417 l 576 426 l 576 496 q 550 594 576 552 q 476 657 524 635 q 368 679 429 679 q 231 639 288 679 q 164 526 175 599 l 106 526 q 141 626 109 579 q 232 703 174 674 q 371 732 291 732 q 506 703 447 732 q 598 622 565 675 q 631 497 631 569 l 631 0 l 581 0 l 578 139 q 465 21 534 56 q 307 -14 395 -14 m 315 38 q 435 66 374 38 q 536 140 497 94 q 576 232 576 185 l 576 372 l 438 369 q 257 348 323 367 q 162 290 191 329 q 133 188 133 251 q 183 77 133 117 q 315 38 232 38 m 557 1001 q 526 946 549 974 q 465 898 503 917 q 376 878 427 878 q 289 896 326 878 q 231 943 252 915 q 203 1001 210 971 l 268 1001 q 281 980 269 999 q 318 947 293 960 q 376 933 344 933 q 445 953 419 933 q 489 1001 471 973 l 557 1001 z "},"ắ":{"ha":742,"x_min":76,"x_max":631,"o":"m 307 -14 q 185 10 237 -14 q 105 78 133 34 q 76 183 76 123 q 110 315 76 265 q 218 391 144 366 q 411 421 291 417 l 576 426 l 576 496 q 550 594 576 552 q 476 657 524 635 q 368 679 429 679 q 231 639 288 679 q 164 526 175 599 l 106 526 q 141 626 109 579 q 232 703 174 674 q 371 732 291 732 q 506 703 447 732 q 598 622 565 675 q 631 497 631 569 l 631 0 l 581 0 l 578 139 q 465 21 534 56 q 307 -14 395 -14 m 315 38 q 435 66 374 38 q 536 140 497 94 q 576 232 576 185 l 576 372 l 438 369 q 257 348 323 367 q 162 290 191 329 q 133 188 133 251 q 183 77 133 117 q 315 38 232 38 z "},"ặ":{"ha":742,"x_min":76,"x_max":631,"o":"m 307 -14 q 185 10 237 -14 q 105 78 133 34 q 76 183 76 123 q 110 315 76 265 q 218 391 144 366 q 411 421 291 417 l 576 426 l 576 496 q 550 594 576 552 q 476 657 524 635 q 368 679 429 679 q 231 639 288 679 q 164 526 175 599 l 106 526 q 141 626 109 579 q 232 703 174 674 q 371 732 291 732 q 506 703 447 732 q 598 622 565 675 q 631 497 631 569 l 631 0 l 581 0 l 578 139 q 465 21 534 56 q 307 -14 395 -14 m 315 38 q 435 66 374 38 q 536 140 497 94 q 576 232 576 185 l 576 372 l 438 369 q 257 348 323 367 q 162 290 191 329 q 133 188 133 251 q 183 77 133 117 q 315 38 232 38 m 557 1001 q 526 946 549 974 q 465 898 503 917 q 376 878 427 878 q 289 896 326 878 q 231 943 252 915 q 203 1001 210 971 l 268 1001 q 281 980 269 999 q 318 947 293 960 q 376 933 344 933 q 445 953 419 933 q 489 1001 471 973 l 557 1001 z "},"ằ":{"ha":742,"x_min":76,"x_max":631,"o":"m 307 -14 q 185 10 237 -14 q 105 78 133 34 q 76 183 76 123 q 110 315 76 265 q 218 391 144 366 q 411 421 291 417 l 576 426 l 576 496 q 550 594 576 552 q 476 657 524 635 q 368 679 429 679 q 231 639 288 679 q 164 526 175 599 l 106 526 q 141 626 109 579 q 232 703 174 674 q 371 732 291 732 q 506 703 447 732 q 598 622 565 675 q 631 497 631 569 l 631 0 l 581 0 l 578 139 q 465 21 534 56 q 307 -14 395 -14 m 315 38 q 435 66 374 38 q 536 140 497 94 q 576 232 576 185 l 576 372 l 438 369 q 257 348 323 367 q 162 290 191 329 q 133 188 133 251 q 183 77 133 117 q 315 38 232 38 z "},"ẳ":{"ha":742,"x_min":76,"x_max":631,"o":"m 307 -14 q 185 10 237 -14 q 105 78 133 34 q 76 183 76 123 q 110 315 76 265 q 218 391 144 366 q 411 421 291 417 l 576 426 l 576 496 q 550 594 576 552 q 476 657 524 635 q 368 679 429 679 q 231 639 288 679 q 164 526 175 599 l 106 526 q 141 626 109 579 q 232 703 174 674 q 371 732 291 732 q 506 703 447 732 q 598 622 565 675 q 631 497 631 569 l 631 0 l 581 0 l 578 139 q 465 21 534 56 q 307 -14 395 -14 m 315 38 q 435 66 374 38 q 536 140 497 94 q 576 232 576 185 l 576 372 l 438 369 q 257 348 323 367 q 162 290 191 329 q 133 188 133 251 q 183 77 133 117 q 315 38 232 38 z "},"ẵ":{"ha":742,"x_min":76,"x_max":631,"o":"m 307 -14 q 185 10 237 -14 q 105 78 133 34 q 76 183 76 123 q 110 315 76 265 q 218 391 144 366 q 411 421 291 417 l 576 426 l 576 496 q 550 594 576 552 q 476 657 524 635 q 368 679 429 679 q 231 639 288 679 q 164 526 175 599 l 106 526 q 141 626 109 579 q 232 703 174 674 q 371 732 291 732 q 506 703 447 732 q 598 622 565 675 q 631 497 631 569 l 631 0 l 581 0 l 578 139 q 465 21 534 56 q 307 -14 395 -14 m 315 38 q 435 66 374 38 q 536 140 497 94 q 576 232 576 185 l 576 372 l 438 369 q 257 348 323 367 q 162 290 191 329 q 133 188 133 251 q 183 77 133 117 q 315 38 232 38 z "},"â":{"ha":742,"x_min":76,"x_max":631,"o":"m 307 -14 q 185 10 237 -14 q 105 78 133 34 q 76 183 76 123 q 110 315 76 265 q 218 391 144 366 q 411 421 291 417 l 576 426 l 576 496 q 550 594 576 552 q 476 657 524 635 q 368 679 429 679 q 231 639 288 679 q 164 526 175 599 l 106 526 q 141 626 109 579 q 232 703 174 674 q 371 732 291 732 q 506 703 447 732 q 598 622 565 675 q 631 497 631 569 l 631 0 l 581 0 l 578 139 q 465 21 534 56 q 307 -14 395 -14 m 315 38 q 435 66 374 38 q 536 140 497 94 q 576 232 576 185 l 576 372 l 438 369 q 257 348 323 367 q 162 290 191 329 q 133 188 133 251 q 183 77 133 117 q 315 38 232 38 m 372 956 l 264 872 l 186 872 l 351 1004 l 396 1004 l 558 872 l 475 872 l 372 956 z "},"ấ":{"ha":742,"x_min":76,"x_max":631,"o":"m 307 -14 q 185 10 237 -14 q 105 78 133 34 q 76 183 76 123 q 110 315 76 265 q 218 391 144 366 q 411 421 291 417 l 576 426 l 576 496 q 550 594 576 552 q 476 657 524 635 q 368 679 429 679 q 231 639 288 679 q 164 526 175 599 l 106 526 q 141 626 109 579 q 232 703 174 674 q 371 732 291 732 q 506 703 447 732 q 598 622 565 675 q 631 497 631 569 l 631 0 l 581 0 l 578 139 q 465 21 534 56 q 307 -14 395 -14 m 315 38 q 435 66 374 38 q 536 140 497 94 q 576 232 576 185 l 576 372 l 438 369 q 257 348 323 367 q 162 290 191 329 q 133 188 133 251 q 183 77 133 117 q 315 38 232 38 z "},"ậ":{"ha":742,"x_min":76,"x_max":631,"o":"m 307 -14 q 185 10 237 -14 q 105 78 133 34 q 76 183 76 123 q 110 315 76 265 q 218 391 144 366 q 411 421 291 417 l 576 426 l 576 496 q 550 594 576 552 q 476 657 524 635 q 368 679 429 679 q 231 639 288 679 q 164 526 175 599 l 106 526 q 141 626 109 579 q 232 703 174 674 q 371 732 291 732 q 506 703 447 732 q 598 622 565 675 q 631 497 631 569 l 631 0 l 581 0 l 578 139 q 465 21 534 56 q 307 -14 395 -14 m 315 38 q 435 66 374 38 q 536 140 497 94 q 576 232 576 185 l 576 372 l 438 369 q 257 348 323 367 q 162 290 191 329 q 133 188 133 251 q 183 77 133 117 q 315 38 232 38 m 372 956 l 264 872 l 186 872 l 351 1004 l 396 1004 l 558 872 l 475 872 l 372 956 z "},"ầ":{"ha":742,"x_min":76,"x_max":631,"o":"m 307 -14 q 185 10 237 -14 q 105 78 133 34 q 76 183 76 123 q 110 315 76 265 q 218 391 144 366 q 411 421 291 417 l 576 426 l 576 496 q 550 594 576 552 q 476 657 524 635 q 368 679 429 679 q 231 639 288 679 q 164 526 175 599 l 106 526 q 141 626 109 579 q 232 703 174 674 q 371 732 291 732 q 506 703 447 732 q 598 622 565 675 q 631 497 631 569 l 631 0 l 581 0 l 578 139 q 465 21 534 56 q 307 -14 395 -14 m 315 38 q 435 66 374 38 q 536 140 497 94 q 576 232 576 185 l 576 372 l 438 369 q 257 348 323 367 q 162 290 191 329 q 133 188 133 251 q 183 77 133 117 q 315 38 232 38 z "},"ẩ":{"ha":742,"x_min":76,"x_max":631,"o":"m 307 -14 q 185 10 237 -14 q 105 78 133 34 q 76 183 76 123 q 110 315 76 265 q 218 391 144 366 q 411 421 291 417 l 576 426 l 576 496 q 550 594 576 552 q 476 657 524 635 q 368 679 429 679 q 231 639 288 679 q 164 526 175 599 l 106 526 q 141 626 109 579 q 232 703 174 674 q 371 732 291 732 q 506 703 447 732 q 598 622 565 675 q 631 497 631 569 l 631 0 l 581 0 l 578 139 q 465 21 534 56 q 307 -14 395 -14 m 315 38 q 435 66 374 38 q 536 140 497 94 q 576 232 576 185 l 576 372 l 438 369 q 257 348 323 367 q 162 290 191 329 q 133 188 133 251 q 183 77 133 117 q 315 38 232 38 z "},"ẫ":{"ha":742,"x_min":76,"x_max":631,"o":"m 307 -14 q 185 10 237 -14 q 105 78 133 34 q 76 183 76 123 q 110 315 76 265 q 218 391 144 366 q 411 421 291 417 l 576 426 l 576 496 q 550 594 576 552 q 476 657 524 635 q 368 679 429 679 q 231 639 288 679 q 164 526 175 599 l 106 526 q 141 626 109 579 q 232 703 174 674 q 371 732 291 732 q 506 703 447 732 q 598 622 565 675 q 631 497 631 569 l 631 0 l 581 0 l 578 139 q 465 21 534 56 q 307 -14 395 -14 m 315 38 q 435 66 374 38 q 536 140 497 94 q 576 232 576 185 l 576 372 l 438 369 q 257 348 323 367 q 162 290 191 329 q 133 188 133 251 q 183 77 133 117 q 315 38 232 38 z "},"ȁ":{"ha":742,"x_min":76,"x_max":631,"o":"m 307 -14 q 185 10 237 -14 q 105 78 133 34 q 76 183 76 123 q 110 315 76 265 q 218 391 144 366 q 411 421 291 417 l 576 426 l 576 496 q 550 594 576 552 q 476 657 524 635 q 368 679 429 679 q 231 639 288 679 q 164 526 175 599 l 106 526 q 141 626 109 579 q 232 703 174 674 q 371 732 291 732 q 506 703 447 732 q 598 622 565 675 q 631 497 631 569 l 631 0 l 581 0 l 578 139 q 465 21 534 56 q 307 -14 395 -14 m 315 38 q 435 66 374 38 q 536 140 497 94 q 576 232 576 185 l 576 372 l 438 369 q 257 348 323 367 q 162 290 191 329 q 133 188 133 251 q 183 77 133 117 q 315 38 232 38 m 318 826 l 294 790 l 106 967 l 147 1018 l 318 826 m 508 826 l 483 790 l 296 967 l 338 1018 l 508 826 z "},"ä":{"ha":742,"x_min":76,"x_max":631,"o":"m 307 -14 q 185 10 237 -14 q 105 78 133 34 q 76 183 76 123 q 110 315 76 265 q 218 391 144 366 q 411 421 291 417 l 576 426 l 576 496 q 550 594 576 552 q 476 657 524 635 q 368 679 429 679 q 231 639 288 679 q 164 526 175 599 l 106 526 q 141 626 109 579 q 232 703 174 674 q 371 732 291 732 q 506 703 447 732 q 598 622 565 675 q 631 497 631 569 l 631 0 l 581 0 l 578 139 q 465 21 534 56 q 307 -14 395 -14 m 315 38 q 435 66 374 38 q 536 140 497 94 q 576 232 576 185 l 576 372 l 438 369 q 257 348 323 367 q 162 290 191 329 q 133 188 133 251 q 183 77 133 117 q 315 38 232 38 m 250 982 l 317 982 l 317 899 l 250 899 l 250 982 m 425 982 l 492 982 l 492 899 l 425 899 l 425 982 z "},"ạ":{"ha":742,"x_min":76,"x_max":631,"o":"m 307 -14 q 185 10 237 -14 q 105 78 133 34 q 76 183 76 123 q 110 315 76 265 q 218 391 144 366 q 411 421 291 417 l 576 426 l 576 496 q 550 594 576 552 q 476 657 524 635 q 368 679 429 679 q 231 639 288 679 q 164 526 175 599 l 106 526 q 141 626 109 579 q 232 703 174 674 q 371 732 291 732 q 506 703 447 732 q 598 622 565 675 q 631 497 631 569 l 631 0 l 581 0 l 578 139 q 465 21 534 56 q 307 -14 395 -14 m 315 38 q 435 66 374 38 q 536 140 497 94 q 576 232 576 185 l 576 372 l 438 369 q 257 348 323 367 q 162 290 191 329 q 133 188 133 251 q 183 77 133 117 q 315 38 232 38 z "},"à":{"ha":742,"x_min":76,"x_max":631,"o":"m 307 -14 q 185 10 237 -14 q 105 78 133 34 q 76 183 76 123 q 110 315 76 265 q 218 391 144 366 q 411 421 291 417 l 576 426 l 576 496 q 550 594 576 552 q 476 657 524 635 q 368 679 429 679 q 231 639 288 679 q 164 526 175 599 l 106 526 q 141 626 109 579 q 232 703 174 674 q 371 732 291 732 q 506 703 447 732 q 598 622 565 675 q 631 497 631 569 l 631 0 l 581 0 l 578 139 q 465 21 534 56 q 307 -14 395 -14 m 315 38 q 435 66 374 38 q 536 140 497 94 q 576 232 576 185 l 576 372 l 438 369 q 257 348 323 367 q 162 290 191 329 q 133 188 133 251 q 183 77 133 117 q 315 38 232 38 m 521 888 l 507 844 l 175 953 l 194 1015 l 521 888 z "},"ả":{"ha":742,"x_min":76,"x_max":631,"o":"m 307 -14 q 185 10 237 -14 q 105 78 133 34 q 76 183 76 123 q 110 315 76 265 q 218 391 144 366 q 411 421 291 417 l 576 426 l 576 496 q 550 594 576 552 q 476 657 524 635 q 368 679 429 679 q 231 639 288 679 q 164 526 175 599 l 106 526 q 141 626 109 579 q 232 703 174 674 q 371 732 291 732 q 506 703 447 732 q 598 622 565 675 q 631 497 631 569 l 631 0 l 581 0 l 578 139 q 465 21 534 56 q 307 -14 395 -14 m 315 38 q 435 66 374 38 q 536 140 497 94 q 576 232 576 185 l 576 372 l 438 369 q 257 348 323 367 q 162 290 191 329 q 133 188 133 251 q 183 77 133 117 q 315 38 232 38 m 307 953 q 372 976 341 976 q 417 953 403 976 q 424 929 424 942 q 409 890 424 910 q 369 854 394 870 l 397 813 q 456 865 435 836 q 477 926 477 894 q 458 982 477 954 q 422 1015 444 1003 q 372 1026 399 1026 q 279 996 326 1026 l 307 953 z "},"ȃ":{"ha":742,"x_min":76,"x_max":631,"o":"m 307 -14 q 185 10 237 -14 q 105 78 133 34 q 76 183 76 123 q 110 315 76 265 q 218 391 144 366 q 411 421 291 417 l 576 426 l 576 496 q 550 594 576 552 q 476 657 524 635 q 368 679 429 679 q 231 639 288 679 q 164 526 175 599 l 106 526 q 141 626 109 579 q 232 703 174 674 q 371 732 291 732 q 506 703 447 732 q 598 622 565 675 q 631 497 631 569 l 631 0 l 581 0 l 578 139 q 465 21 534 56 q 307 -14 395 -14 m 315 38 q 435 66 374 38 q 536 140 497 94 q 576 232 576 185 l 576 372 l 438 369 q 257 348 323 367 q 162 290 191 329 q 133 188 133 251 q 183 77 133 117 q 315 38 232 38 m 481 940 q 436 989 463 969 q 368 1008 410 1008 q 314 997 335 1008 q 283 973 292 985 q 260 940 274 962 l 194 940 q 223 999 201 971 q 281 1045 244 1027 q 368 1064 318 1064 q 457 1044 419 1064 q 518 996 495 1024 q 549 940 541 967 l 481 940 z "},"ā":{"ha":742,"x_min":76,"x_max":631,"o":"m 307 -14 q 185 10 237 -14 q 105 78 133 34 q 76 183 76 123 q 110 315 76 265 q 218 391 144 366 q 411 421 291 417 l 576 426 l 576 496 q 550 594 576 552 q 476 657 524 635 q 368 679 429 679 q 231 639 288 679 q 164 526 175 599 l 106 526 q 141 626 109 579 q 232 703 174 674 q 371 732 291 732 q 506 703 447 732 q 598 622 565 675 q 631 497 631 569 l 631 0 l 581 0 l 578 139 q 465 21 534 56 q 307 -14 395 -14 m 315 38 q 435 66 374 38 q 536 140 497 94 q 576 232 576 185 l 576 372 l 438 369 q 257 348 323 367 q 162 290 191 329 q 133 188 133 251 q 183 77 133 117 q 315 38 232 38 m 542 926 l 201 926 l 201 978 l 542 978 l 542 926 z "},"ą":{"ha":742,"x_min":76,"x_max":669,"o":"m 571 -179 q 629 -172 601 -179 q 669 -158 657 -165 l 669 -201 q 621 -218 652 -210 q 557 -225 590 -225 q 464 -196 495 -225 q 433 -119 433 -167 q 467 -40 433 -73 q 581 17 500 -7 l 578 139 q 465 21 534 56 q 307 -14 395 -14 q 185 10 237 -14 q 105 78 133 34 q 76 183 76 123 q 110 315 76 265 q 218 391 144 366 q 411 421 291 417 l 576 426 l 576 496 q 550 594 576 552 q 476 657 524 635 q 368 679 429 679 q 231 639 288 679 q 164 526 175 599 l 106 526 q 141 626 109 579 q 232 703 174 674 q 371 732 291 732 q 506 703 447 732 q 598 622 565 675 q 631 497 631 569 l 631 0 l 617 0 q 523 -58 552 -31 q 493 -122 493 -85 q 511 -165 493 -151 q 571 -179 530 -179 m 576 372 l 438 369 q 257 348 323 367 q 162 290 191 329 q 133 188 133 251 q 183 77 133 117 q 315 38 232 38 q 435 66 374 38 q 536 140 497 94 q 576 232 576 185 l 576 372 z "},"å":{"ha":742,"x_min":76,"x_max":631,"o":"m 307 -14 q 185 10 237 -14 q 105 78 133 34 q 76 183 76 123 q 110 315 76 265 q 218 391 144 366 q 411 421 291 417 l 576 426 l 576 496 q 550 594 576 552 q 476 657 524 635 q 368 679 429 679 q 231 639 288 679 q 164 526 175 599 l 106 526 q 141 626 109 579 q 232 703 174 674 q 371 732 291 732 q 506 703 447 732 q 598 622 565 675 q 631 497 631 569 l 631 0 l 581 0 l 578 139 q 465 21 534 56 q 307 -14 395 -14 m 315 38 q 435 66 374 38 q 536 140 497 94 q 576 232 576 185 l 576 372 l 438 369 q 257 348 323 367 q 162 290 191 329 q 133 188 133 251 q 183 77 133 117 q 315 38 232 38 m 508 949 q 490 880 508 911 q 441 832 472 849 q 372 814 410 814 q 305 832 335 814 q 256 882 274 850 q 238 951 238 913 q 256 1017 238 987 q 305 1064 274 1047 q 372 1082 336 1082 q 441 1064 410 1082 q 490 1016 472 1047 q 508 949 508 985 m 450 949 q 427 1006 450 983 q 371 1028 405 1028 q 315 1006 339 1028 q 292 949 292 983 q 303 909 292 928 q 332 879 314 890 q 371 868 351 868 q 427 892 403 868 q 450 949 450 916 z "},"ǻ":{"ha":742,"x_min":76,"x_max":631,"o":"m 471 717 q 588 636 545 694 q 631 497 631 579 l 631 0 l 581 0 l 578 139 q 465 21 534 56 q 307 -14 395 -14 q 185 10 237 -14 q 105 78 133 34 q 76 183 76 123 q 110 315 76 265 q 218 391 144 366 q 411 421 291 417 l 576 426 l 576 496 q 550 594 576 552 q 476 657 524 635 q 368 679 429 679 q 231 639 288 679 q 164 526 175 599 l 106 526 q 130 607 108 568 q 189 676 151 646 q 281 720 228 706 q 252 765 262 739 q 242 819 242 790 q 258 882 242 853 q 302 928 274 910 q 364 949 330 947 l 385 1036 l 458 1036 l 419 944 q 486 896 460 931 q 513 817 513 861 q 501 761 513 787 q 471 717 490 736 m 375 896 q 319 873 343 896 q 296 815 296 850 q 307 776 296 795 q 336 746 318 758 q 375 735 355 735 q 415 746 397 735 q 444 776 433 758 q 454 815 454 794 q 432 873 454 851 q 375 896 409 896 m 576 372 l 438 369 q 257 348 323 367 q 162 290 191 329 q 133 188 133 251 q 183 77 133 117 q 315 38 232 38 q 435 66 374 38 q 536 140 497 94 q 576 232 576 185 l 576 372 z "},"ã":{"ha":742,"x_min":76,"x_max":631,"o":"m 307 -14 q 185 10 237 -14 q 105 78 133 34 q 76 183 76 123 q 110 315 76 265 q 218 391 144 366 q 411 421 291 417 l 576 426 l 576 496 q 550 594 576 552 q 476 657 524 635 q 368 679 429 679 q 231 639 288 679 q 164 526 175 599 l 106 526 q 141 626 109 579 q 232 703 174 674 q 371 732 291 732 q 506 703 447 732 q 598 622 565 675 q 631 497 631 569 l 631 0 l 581 0 l 578 139 q 465 21 534 56 q 307 -14 395 -14 m 315 38 q 435 66 374 38 q 536 140 497 94 q 576 232 576 185 l 576 372 l 438 369 q 257 348 323 367 q 162 290 191 329 q 133 188 133 251 q 183 77 133 117 q 315 38 232 38 m 551 943 q 507 919 528 928 q 451 911 487 911 q 408 916 426 911 q 365 929 390 920 q 328 941 342 938 q 297 944 315 944 q 257 938 274 944 q 223 919 241 931 q 211 911 213 912 l 194 950 q 241 980 219 970 q 292 990 263 990 q 330 986 312 990 q 372 973 348 981 q 416 960 399 964 q 453 956 433 956 q 493 962 476 956 q 532 985 509 969 l 551 943 z "},"æ":{"ha":1282,"x_min":76,"x_max":1206,"o":"m 622 343 q 659 200 622 271 q 758 83 696 128 q 893 38 820 38 q 1008 58 960 38 q 1085 107 1056 78 q 1140 175 1114 136 l 1183 144 q 1116 63 1160 99 q 1014 7 1072 27 q 890 -14 956 -14 q 760 12 815 -14 q 674 71 706 38 q 614 146 642 104 q 610 149 612 149 q 607 146 609 149 q 537 68 572 101 q 442 11 501 35 q 301 -14 383 -14 q 181 10 232 -14 q 103 79 131 34 q 76 185 76 124 q 157 344 76 285 q 400 417 238 403 l 576 431 l 576 492 q 523 629 576 579 q 368 679 469 679 q 138 544 238 679 l 96 574 q 215 690 140 649 q 379 732 290 732 q 537 692 478 732 q 617 569 596 651 q 728 691 657 650 q 894 732 799 732 q 1058 686 988 732 q 1167 553 1128 641 q 1206 344 1206 466 l 622 343 m 890 679 q 756 644 816 679 q 661 543 696 608 q 625 394 626 478 l 1147 393 q 1114 537 1147 472 q 1023 641 1081 603 q 890 679 964 679 m 428 368 q 206 312 278 357 q 135 188 135 267 q 155 110 135 143 q 212 58 174 76 q 301 39 249 39 q 439 66 375 39 q 539 140 502 94 q 576 240 576 187 l 576 379 l 428 368 z "},"ǽ":{"ha":1282,"x_min":76,"x_max":1206,"o":"m 622 343 q 659 200 622 271 q 758 83 696 128 q 893 38 820 38 q 1008 58 960 38 q 1085 107 1056 78 q 1140 175 1114 136 l 1183 144 q 1116 63 1160 99 q 1014 7 1072 27 q 890 -14 956 -14 q 760 12 815 -14 q 674 71 706 38 q 614 146 642 104 q 610 149 612 149 q 607 146 609 149 q 537 68 572 101 q 442 11 501 35 q 301 -14 383 -14 q 181 10 232 -14 q 103 79 131 34 q 76 185 76 124 q 157 344 76 285 q 400 417 238 403 l 576 431 l 576 492 q 523 629 576 579 q 368 679 469 679 q 138 544 238 679 l 96 574 q 215 690 140 649 q 379 732 290 732 q 537 692 478 732 q 617 569 596 651 q 728 691 657 650 q 894 732 799 732 q 1058 686 988 732 q 1167 553 1128 641 q 1206 344 1206 466 l 622 343 m 890 679 q 756 644 816 679 q 661 543 696 608 q 625 394 626 478 l 1147 393 q 1114 537 1147 472 q 1023 641 1081 603 q 890 679 964 679 m 428 368 q 206 312 278 357 q 135 188 135 267 q 155 110 135 143 q 212 58 174 76 q 301 39 249 39 q 439 66 375 39 q 539 140 502 94 q 576 240 576 187 l 576 379 l 428 368 m 797 953 l 465 844 l 451 888 l 778 1015 l 797 953 z "},"b":{"ha":800,"x_min":125,"x_max":724,"o":"m 429 -14 q 251 39 306 -14 q 178 147 196 92 l 174 0 l 125 0 l 125 1032 l 179 1032 l 179 583 q 258 684 203 635 q 429 732 314 732 q 595 683 528 732 q 692 550 661 634 q 724 361 724 467 q 691 161 724 245 q 592 31 658 76 q 429 -14 526 -14 m 428 38 q 602 118 538 38 q 665 361 665 199 q 604 594 665 510 q 424 679 542 679 q 273 638 326 679 q 203 556 219 597 q 179 471 187 514 l 179 247 q 212 147 181 195 q 300 68 244 98 q 428 38 356 38 z "},"c":{"ha":736,"x_min":76,"x_max":660,"o":"m 388 732 q 507 710 451 732 q 605 642 564 688 q 660 526 646 596 l 601 524 q 523 642 578 604 q 394 679 468 679 q 256 639 315 679 q 165 526 197 599 q 133 358 133 453 q 165 189 133 262 q 255 77 196 117 q 393 38 313 38 q 528 76 471 38 q 601 192 585 115 l 660 192 q 561 35 636 85 q 388 -14 486 -14 q 222 32 292 -14 q 114 162 151 78 q 76 356 76 246 q 114 551 76 466 q 222 684 151 637 q 388 732 292 732 z "},"ć":{"ha":736,"x_min":76,"x_max":660,"o":"m 388 732 q 507 710 451 732 q 605 642 564 688 q 660 526 646 596 l 601 524 q 523 642 578 604 q 394 679 468 679 q 256 639 315 679 q 165 526 197 599 q 133 358 133 453 q 165 189 133 262 q 255 77 196 117 q 393 38 313 38 q 528 76 471 38 q 601 192 585 115 l 660 192 q 561 35 636 85 q 388 -14 486 -14 q 222 32 292 -14 q 114 162 151 78 q 76 356 76 246 q 114 551 76 466 q 222 684 151 637 q 388 732 292 732 m 558 953 l 226 844 l 213 888 l 539 1015 l 558 953 z "},"č":{"ha":736,"x_min":76,"x_max":660,"o":"m 388 732 q 507 710 451 732 q 605 642 564 688 q 660 526 646 596 l 601 524 q 523 642 578 604 q 394 679 468 679 q 256 639 315 679 q 165 526 197 599 q 133 358 133 453 q 165 189 133 262 q 255 77 196 117 q 393 38 313 38 q 528 76 471 38 q 601 192 585 115 l 660 192 q 561 35 636 85 q 388 -14 486 -14 q 222 32 292 -14 q 114 162 151 78 q 76 356 76 246 q 114 551 76 466 q 222 684 151 637 q 388 732 292 732 m 572 1004 l 410 872 l 365 872 l 199 1004 l 278 1004 l 386 921 l 489 1004 l 572 1004 z "},"ç":{"ha":736,"x_min":76,"x_max":660,"o":"m 393 38 q 528 76 471 38 q 601 192 585 115 l 660 192 q 568 40 638 90 q 406 -13 499 -9 l 379 -79 q 463 -111 438 -84 q 488 -175 488 -137 q 449 -250 488 -224 q 353 -276 411 -276 q 249 -244 293 -276 l 264 -206 q 299 -228 280 -221 q 347 -236 318 -236 q 408 -222 389 -236 q 428 -178 428 -207 q 402 -130 428 -146 q 324 -112 377 -115 q 318 -107 315 -112 l 360 -12 q 208 42 272 -6 q 110 170 144 90 q 76 356 76 251 q 114 551 76 466 q 222 684 151 637 q 388 732 292 732 q 507 710 451 732 q 605 642 564 688 q 660 526 646 596 l 601 524 q 523 642 578 604 q 394 679 468 679 q 256 639 315 679 q 165 526 197 599 q 133 358 133 453 q 165 189 133 262 q 255 77 196 117 q 393 38 313 38 z "},"ĉ":{"ha":736,"x_min":76,"x_max":660,"o":"m 388 732 q 507 710 451 732 q 605 642 564 688 q 660 526 646 596 l 601 524 q 523 642 578 604 q 394 679 468 679 q 256 639 315 679 q 165 526 197 599 q 133 358 133 453 q 165 189 133 262 q 255 77 196 117 q 393 38 313 38 q 528 76 471 38 q 601 192 585 115 l 660 192 q 561 35 636 85 q 388 -14 486 -14 q 222 32 292 -14 q 114 162 151 78 q 76 356 76 246 q 114 551 76 466 q 222 684 151 637 q 388 732 292 732 m 386 956 l 278 872 l 200 872 l 365 1004 l 410 1004 l 572 872 l 489 872 l 386 956 z "},"ċ":{"ha":736,"x_min":76,"x_max":660,"o":"m 388 732 q 507 710 451 732 q 605 642 564 688 q 660 526 646 596 l 601 524 q 523 642 578 604 q 394 679 468 679 q 256 639 315 679 q 165 526 197 599 q 133 358 133 453 q 165 189 133 262 q 255 77 196 117 q 393 38 313 38 q 528 76 471 38 q 601 192 585 115 l 660 192 q 561 35 636 85 q 388 -14 486 -14 q 222 32 292 -14 q 114 162 151 78 q 76 356 76 246 q 114 551 76 466 q 222 684 151 637 q 388 732 292 732 m 353 956 l 419 956 l 419 872 l 353 872 l 353 956 z "},"d":{"ha":800,"x_min":76,"x_max":675,"o":"m 371 -14 q 208 31 274 -14 q 109 161 142 76 q 76 361 76 245 q 108 550 76 467 q 205 683 139 634 q 371 732 272 732 q 500 707 447 732 q 582 650 553 681 q 621 594 610 619 l 621 1032 l 675 1032 l 675 0 l 626 0 l 622 147 q 549 39 604 92 q 371 -14 494 -14 m 372 38 q 500 68 444 38 q 588 147 556 98 q 621 247 619 195 l 621 471 q 594 551 615 506 q 520 638 574 597 q 376 679 467 679 q 196 594 258 679 q 135 361 135 510 q 198 118 135 199 q 372 38 262 38 z "},"ð":{"ha":811,"x_min":76,"x_max":735,"o":"m 735 346 q 695 159 735 241 q 580 32 655 78 q 403 -14 505 -14 q 232 31 306 -14 q 117 157 158 76 q 76 342 76 238 q 117 528 76 446 q 230 658 158 611 q 393 704 302 704 q 523 680 464 704 q 626 611 583 656 q 397 878 559 768 l 160 743 l 133 786 l 351 907 q 183 986 286 945 l 233 1019 q 403 938 314 988 l 553 1021 l 575 976 l 449 906 q 668 663 601 803 q 735 346 735 524 m 408 38 q 546 78 485 38 q 643 189 608 119 q 678 344 678 259 q 642 500 678 429 q 545 611 607 570 q 407 653 483 653 q 267 611 330 653 q 169 500 205 570 q 133 344 133 429 q 169 190 133 260 q 268 78 205 119 q 408 38 331 38 z "},"ď":{"ha":888,"x_min":76,"x_max":839,"o":"m 371 -14 q 208 31 274 -14 q 109 161 142 76 q 76 361 76 245 q 108 550 76 467 q 205 683 139 634 q 371 732 272 732 q 500 707 447 732 q 582 650 553 681 q 621 594 610 619 l 621 1032 l 675 1032 l 675 0 l 626 0 l 622 147 q 549 39 604 92 q 371 -14 494 -14 m 372 38 q 500 68 444 38 q 588 147 556 98 q 621 247 619 195 l 621 471 q 594 551 615 506 q 520 638 574 597 q 376 679 467 679 q 196 594 258 679 q 135 361 135 510 q 198 118 135 199 q 372 38 262 38 m 792 883 l 765 889 l 765 1004 l 839 1004 l 839 883 l 789 768 l 743 768 l 792 883 z "},"đ":{"ha":854,"x_min":76,"x_max":785,"o":"m 785 849 l 675 849 l 675 0 l 626 0 l 622 147 q 549 39 604 92 q 371 -14 494 -14 q 208 31 274 -14 q 109 161 142 76 q 76 361 76 245 q 108 550 76 467 q 205 683 139 634 q 371 732 272 732 q 500 707 447 732 q 582 650 553 681 q 621 594 610 619 l 621 849 l 394 849 l 394 896 l 621 896 l 621 1032 l 675 1032 l 675 896 l 785 896 l 785 849 m 621 471 q 594 551 615 506 q 520 638 574 597 q 376 679 467 679 q 196 594 258 679 q 135 361 135 510 q 198 118 135 199 q 372 38 262 38 q 500 68 444 38 q 588 147 556 98 q 621 247 619 195 l 621 471 z "},"ḍ":{"ha":800,"x_min":76,"x_max":675,"o":"m 371 -14 q 208 31 274 -14 q 109 161 142 76 q 76 361 76 245 q 108 550 76 467 q 205 683 139 634 q 371 732 272 732 q 500 707 447 732 q 582 650 553 681 q 621 594 610 619 l 621 1032 l 675 1032 l 675 0 l 626 0 l 622 147 q 549 39 604 92 q 371 -14 494 -14 m 372 38 q 500 68 444 38 q 588 147 556 98 q 621 247 619 195 l 621 471 q 594 551 615 506 q 520 638 574 597 q 376 679 467 679 q 196 594 258 679 q 135 361 135 510 q 198 118 135 199 q 372 38 262 38 z "},"e":{"ha":753,"x_min":76,"x_max":676,"o":"m 135 344 q 163 191 135 260 q 248 81 190 122 q 393 40 306 40 q 532 80 476 40 q 610 192 587 119 l 668 192 q 567 36 639 87 q 393 -14 494 -14 q 227 29 299 -14 q 116 155 156 72 q 76 353 76 238 q 113 556 76 471 q 218 687 149 642 q 385 732 288 732 q 542 691 476 732 q 642 572 607 650 q 676 385 676 494 l 676 344 l 135 344 m 619 399 q 593 543 619 481 q 515 642 567 606 q 383 678 462 678 q 244 638 300 678 q 162 534 188 597 q 136 399 135 470 l 619 399 z "},"é":{"ha":753,"x_min":76,"x_max":676,"o":"m 135 344 q 163 191 135 260 q 248 81 190 122 q 393 40 306 40 q 532 80 476 40 q 610 192 587 119 l 668 192 q 567 36 639 87 q 393 -14 494 -14 q 227 29 299 -14 q 116 155 156 72 q 76 353 76 238 q 113 556 76 471 q 218 687 149 642 q 385 732 288 732 q 542 691 476 732 q 642 572 607 650 q 676 385 676 494 l 676 344 l 135 344 m 619 399 q 593 543 619 481 q 515 642 567 606 q 383 678 462 678 q 244 638 300 678 q 162 534 188 597 q 136 399 135 470 l 619 399 m 557 953 l 225 844 l 211 888 l 538 1015 l 557 953 z "},"ĕ":{"ha":753,"x_min":76,"x_max":676,"o":"m 135 344 q 163 191 135 260 q 248 81 190 122 q 393 40 306 40 q 532 80 476 40 q 610 192 587 119 l 668 192 q 567 36 639 87 q 393 -14 494 -14 q 227 29 299 -14 q 116 155 156 72 q 76 353 76 238 q 113 556 76 471 q 218 687 149 642 q 385 732 288 732 q 542 691 476 732 q 642 572 607 650 q 676 385 676 494 l 676 344 l 135 344 m 619 399 q 593 543 619 481 q 515 642 567 606 q 383 678 462 678 q 244 638 300 678 q 162 534 188 597 q 136 399 135 470 l 619 399 m 569 1001 q 539 946 562 974 q 478 898 516 917 q 389 878 440 878 q 302 896 339 878 q 243 943 265 915 q 215 1001 222 971 l 281 1001 q 294 980 282 999 q 331 947 306 960 q 389 933 356 933 q 457 953 431 933 q 501 1001 483 973 l 569 1001 z "},"ě":{"ha":753,"x_min":76,"x_max":676,"o":"m 135 344 q 163 191 135 260 q 248 81 190 122 q 393 40 306 40 q 532 80 476 40 q 610 192 587 119 l 668 192 q 567 36 639 87 q 393 -14 494 -14 q 227 29 299 -14 q 116 155 156 72 q 76 353 76 238 q 113 556 76 471 q 218 687 149 642 q 385 732 288 732 q 542 691 476 732 q 642 572 607 650 q 676 385 676 494 l 676 344 l 135 344 m 619 399 q 593 543 619 481 q 515 642 567 606 q 383 678 462 678 q 244 638 300 678 q 162 534 188 597 q 136 399 135 470 l 619 399 m 571 1004 l 408 872 l 364 872 l 197 1004 l 276 1004 l 385 921 l 488 1004 l 571 1004 z "},"ê":{"ha":753,"x_min":76,"x_max":676,"o":"m 135 344 q 163 191 135 260 q 248 81 190 122 q 393 40 306 40 q 532 80 476 40 q 610 192 587 119 l 668 192 q 567 36 639 87 q 393 -14 494 -14 q 227 29 299 -14 q 116 155 156 72 q 76 353 76 238 q 113 556 76 471 q 218 687 149 642 q 385 732 288 732 q 542 691 476 732 q 642 572 607 650 q 676 385 676 494 l 676 344 l 135 344 m 619 399 q 593 543 619 481 q 515 642 567 606 q 383 678 462 678 q 244 638 300 678 q 162 534 188 597 q 136 399 135 470 l 619 399 m 385 956 l 276 872 l 199 872 l 364 1004 l 408 1004 l 571 872 l 488 872 l 385 956 z "},"ế":{"ha":753,"x_min":76,"x_max":676,"o":"m 135 344 q 163 191 135 260 q 248 81 190 122 q 393 40 306 40 q 532 80 476 40 q 610 192 587 119 l 668 192 q 567 36 639 87 q 393 -14 494 -14 q 227 29 299 -14 q 116 155 156 72 q 76 353 76 238 q 113 556 76 471 q 218 687 149 642 q 385 732 288 732 q 542 691 476 732 q 642 572 607 650 q 676 385 676 494 l 676 344 l 135 344 m 619 399 q 593 543 619 481 q 515 642 567 606 q 383 678 462 678 q 244 638 300 678 q 162 534 188 597 q 136 399 135 470 l 619 399 z "},"ệ":{"ha":753,"x_min":76,"x_max":676,"o":"m 135 344 q 163 191 135 260 q 248 81 190 122 q 393 40 306 40 q 532 80 476 40 q 610 192 587 119 l 668 192 q 567 36 639 87 q 393 -14 494 -14 q 227 29 299 -14 q 116 155 156 72 q 76 353 76 238 q 113 556 76 471 q 218 687 149 642 q 385 732 288 732 q 542 691 476 732 q 642 572 607 650 q 676 385 676 494 l 676 344 l 135 344 m 619 399 q 593 543 619 481 q 515 642 567 606 q 383 678 462 678 q 244 638 300 678 q 162 534 188 597 q 136 399 135 470 l 619 399 m 385 956 l 276 872 l 199 872 l 364 1004 l 408 1004 l 571 872 l 488 872 l 385 956 z "},"ề":{"ha":753,"x_min":76,"x_max":676,"o":"m 135 344 q 163 191 135 260 q 248 81 190 122 q 393 40 306 40 q 532 80 476 40 q 610 192 587 119 l 668 192 q 567 36 639 87 q 393 -14 494 -14 q 227 29 299 -14 q 116 155 156 72 q 76 353 76 238 q 113 556 76 471 q 218 687 149 642 q 385 732 288 732 q 542 691 476 732 q 642 572 607 650 q 676 385 676 494 l 676 344 l 135 344 m 619 399 q 593 543 619 481 q 515 642 567 606 q 383 678 462 678 q 244 638 300 678 q 162 534 188 597 q 136 399 135 470 l 619 399 z "},"ể":{"ha":753,"x_min":76,"x_max":676,"o":"m 135 344 q 163 191 135 260 q 248 81 190 122 q 393 40 306 40 q 532 80 476 40 q 610 192 587 119 l 668 192 q 567 36 639 87 q 393 -14 494 -14 q 227 29 299 -14 q 116 155 156 72 q 76 353 76 238 q 113 556 76 471 q 218 687 149 642 q 385 732 288 732 q 542 691 476 732 q 642 572 607 650 q 676 385 676 494 l 676 344 l 135 344 m 619 399 q 593 543 619 481 q 515 642 567 606 q 383 678 462 678 q 244 638 300 678 q 162 534 188 597 q 136 399 135 470 l 619 399 z "},"ễ":{"ha":753,"x_min":76,"x_max":676,"o":"m 135 344 q 163 191 135 260 q 248 81 190 122 q 393 40 306 40 q 532 80 476 40 q 610 192 587 119 l 668 192 q 567 36 639 87 q 393 -14 494 -14 q 227 29 299 -14 q 116 155 156 72 q 76 353 76 238 q 113 556 76 471 q 218 687 149 642 q 385 732 288 732 q 542 691 476 732 q 642 572 607 650 q 676 385 676 494 l 676 344 l 135 344 m 619 399 q 593 543 619 481 q 515 642 567 606 q 383 678 462 678 q 244 638 300 678 q 162 534 188 597 q 136 399 135 470 l 619 399 z "},"ȅ":{"ha":753,"x_min":76,"x_max":676,"o":"m 135 344 q 163 191 135 260 q 248 81 190 122 q 393 40 306 40 q 532 80 476 40 q 610 192 587 119 l 668 192 q 567 36 639 87 q 393 -14 494 -14 q 227 29 299 -14 q 116 155 156 72 q 76 353 76 238 q 113 556 76 471 q 218 687 149 642 q 385 732 288 732 q 542 691 476 732 q 642 572 607 650 q 676 385 676 494 l 676 344 l 135 344 m 619 399 q 593 543 619 481 q 515 642 567 606 q 383 678 462 678 q 244 638 300 678 q 162 534 188 597 q 136 399 135 470 l 619 399 m 331 826 l 307 790 l 118 967 l 160 1018 l 331 826 m 521 826 l 496 790 l 308 967 l 350 1018 l 521 826 z "},"ë":{"ha":753,"x_min":76,"x_max":676,"o":"m 135 344 q 163 191 135 260 q 248 81 190 122 q 393 40 306 40 q 532 80 476 40 q 610 192 587 119 l 668 192 q 567 36 639 87 q 393 -14 494 -14 q 227 29 299 -14 q 116 155 156 72 q 76 353 76 238 q 113 556 76 471 q 218 687 149 642 q 385 732 288 732 q 542 691 476 732 q 642 572 607 650 q 676 385 676 494 l 676 344 l 135 344 m 619 399 q 593 543 619 481 q 515 642 567 606 q 383 678 462 678 q 244 638 300 678 q 162 534 188 597 q 136 399 135 470 l 619 399 m 263 982 l 329 982 l 329 899 l 263 899 l 263 982 m 438 982 l 504 982 l 504 899 l 438 899 l 438 982 z "},"ė":{"ha":753,"x_min":76,"x_max":676,"o":"m 135 344 q 163 191 135 260 q 248 81 190 122 q 393 40 306 40 q 532 80 476 40 q 610 192 587 119 l 668 192 q 567 36 639 87 q 393 -14 494 -14 q 227 29 299 -14 q 116 155 156 72 q 76 353 76 238 q 113 556 76 471 q 218 687 149 642 q 385 732 288 732 q 542 691 476 732 q 642 572 607 650 q 676 385 676 494 l 676 344 l 135 344 m 619 399 q 593 543 619 481 q 515 642 567 606 q 383 678 462 678 q 244 638 300 678 q 162 534 188 597 q 136 399 135 470 l 619 399 m 351 956 l 418 956 l 418 872 l 351 872 l 351 956 z "},"ẹ":{"ha":753,"x_min":76,"x_max":676,"o":"m 135 344 q 163 191 135 260 q 248 81 190 122 q 393 40 306 40 q 532 80 476 40 q 610 192 587 119 l 668 192 q 567 36 639 87 q 393 -14 494 -14 q 227 29 299 -14 q 116 155 156 72 q 76 353 76 238 q 113 556 76 471 q 218 687 149 642 q 385 732 288 732 q 542 691 476 732 q 642 572 607 650 q 676 385 676 494 l 676 344 l 135 344 m 619 399 q 593 543 619 481 q 515 642 567 606 q 383 678 462 678 q 244 638 300 678 q 162 534 188 597 q 136 399 135 470 l 619 399 z "},"è":{"ha":753,"x_min":76,"x_max":676,"o":"m 135 344 q 163 191 135 260 q 248 81 190 122 q 393 40 306 40 q 532 80 476 40 q 610 192 587 119 l 668 192 q 567 36 639 87 q 393 -14 494 -14 q 227 29 299 -14 q 116 155 156 72 q 76 353 76 238 q 113 556 76 471 q 218 687 149 642 q 385 732 288 732 q 542 691 476 732 q 642 572 607 650 q 676 385 676 494 l 676 344 l 135 344 m 619 399 q 593 543 619 481 q 515 642 567 606 q 383 678 462 678 q 244 638 300 678 q 162 534 188 597 q 136 399 135 470 l 619 399 m 533 888 l 519 844 l 188 953 l 207 1015 l 533 888 z "},"ẻ":{"ha":753,"x_min":76,"x_max":676,"o":"m 135 344 q 163 191 135 260 q 248 81 190 122 q 393 40 306 40 q 532 80 476 40 q 610 192 587 119 l 668 192 q 567 36 639 87 q 393 -14 494 -14 q 227 29 299 -14 q 116 155 156 72 q 76 353 76 238 q 113 556 76 471 q 218 687 149 642 q 385 732 288 732 q 542 691 476 732 q 642 572 607 650 q 676 385 676 494 l 676 344 l 135 344 m 619 399 q 593 543 619 481 q 515 642 567 606 q 383 678 462 678 q 244 638 300 678 q 162 534 188 597 q 136 399 135 470 l 619 399 m 319 953 q 385 976 353 976 q 429 953 415 976 q 436 929 436 942 q 422 890 436 910 q 382 854 407 870 l 410 813 q 468 865 447 836 q 490 926 490 894 q 471 982 490 954 q 434 1015 456 1003 q 385 1026 412 1026 q 292 996 339 1026 l 319 953 z "},"ȇ":{"ha":753,"x_min":76,"x_max":676,"o":"m 135 344 q 163 191 135 260 q 248 81 190 122 q 393 40 306 40 q 532 80 476 40 q 610 192 587 119 l 668 192 q 567 36 639 87 q 393 -14 494 -14 q 227 29 299 -14 q 116 155 156 72 q 76 353 76 238 q 113 556 76 471 q 218 687 149 642 q 385 732 288 732 q 542 691 476 732 q 642 572 607 650 q 676 385 676 494 l 676 344 l 135 344 m 619 399 q 593 543 619 481 q 515 642 567 606 q 383 678 462 678 q 244 638 300 678 q 162 534 188 597 q 136 399 135 470 l 619 399 m 493 940 q 449 989 475 969 q 381 1008 423 1008 q 326 997 348 1008 q 295 973 304 985 q 272 940 286 962 l 207 940 q 235 999 214 971 q 293 1045 256 1027 q 381 1064 331 1064 q 469 1044 431 1064 q 531 996 508 1024 q 561 940 553 967 l 493 940 z "},"ē":{"ha":753,"x_min":76,"x_max":676,"o":"m 135 344 q 163 191 135 260 q 248 81 190 122 q 393 40 306 40 q 532 80 476 40 q 610 192 587 119 l 668 192 q 567 36 639 87 q 393 -14 494 -14 q 227 29 299 -14 q 116 155 156 72 q 76 353 76 238 q 113 556 76 471 q 218 687 149 642 q 385 732 288 732 q 542 691 476 732 q 642 572 607 650 q 676 385 676 494 l 676 344 l 135 344 m 619 399 q 593 543 619 481 q 515 642 567 606 q 383 678 462 678 q 244 638 300 678 q 162 534 188 597 q 136 399 135 470 l 619 399 m 554 926 l 214 926 l 214 978 l 554 978 l 554 926 z "},"ę":{"ha":753,"x_min":76,"x_max":676,"o":"m 676 344 l 135 344 q 163 191 135 260 q 248 81 190 122 q 393 40 306 40 q 532 80 476 40 q 610 192 587 119 l 668 192 q 608 74 649 120 q 511 6 568 28 q 415 -53 444 -25 q 385 -117 385 -81 q 403 -159 385 -145 q 463 -174 422 -174 q 521 -167 493 -174 q 561 -153 549 -160 l 561 -196 q 513 -212 544 -205 q 449 -219 481 -219 q 356 -191 387 -219 q 325 -114 325 -162 q 339 -58 325 -83 q 385 -14 353 -33 q 223 32 293 -12 q 115 157 153 75 q 76 353 76 240 q 113 556 76 471 q 218 687 149 642 q 385 732 288 732 q 542 691 476 732 q 642 572 607 650 q 676 385 676 494 l 676 344 m 619 399 q 593 543 619 481 q 515 642 567 606 q 383 678 462 678 q 244 638 300 678 q 162 534 188 597 q 136 399 135 470 l 619 399 z "},"ẽ":{"ha":753,"x_min":76,"x_max":676,"o":"m 135 344 q 163 191 135 260 q 248 81 190 122 q 393 40 306 40 q 532 80 476 40 q 610 192 587 119 l 668 192 q 567 36 639 87 q 393 -14 494 -14 q 227 29 299 -14 q 116 155 156 72 q 76 353 76 238 q 113 556 76 471 q 218 687 149 642 q 385 732 288 732 q 542 691 476 732 q 642 572 607 650 q 676 385 676 494 l 676 344 l 135 344 m 619 399 q 593 543 619 481 q 515 642 567 606 q 383 678 462 678 q 244 638 300 678 q 162 534 188 597 q 136 399 135 470 l 619 399 m 564 943 q 520 919 540 928 q 464 911 499 911 q 421 916 439 911 q 377 929 403 920 q 341 941 354 938 q 310 944 327 944 q 270 938 286 944 q 235 919 253 931 q 224 911 225 912 l 207 950 q 253 980 232 970 q 304 990 275 990 q 342 986 324 990 q 385 973 360 981 q 428 960 411 964 q 465 956 446 956 q 505 962 489 956 q 544 985 522 969 l 564 943 z "},"ə":{"ha":753,"x_min":76,"x_max":676,"o":"m 618 374 q 590 527 618 458 q 505 637 563 596 q 360 678 447 678 q 221 639 276 678 q 143 526 166 599 l 85 526 q 186 682 114 631 q 360 732 258 732 q 526 689 454 732 q 637 563 597 646 q 676 365 676 481 q 640 162 676 247 q 534 31 603 76 q 368 -14 465 -14 q 211 27 276 -14 q 111 146 146 68 q 76 333 76 224 l 76 374 l 618 374 m 133 319 q 159 175 133 238 q 238 76 185 112 q 369 40 291 40 q 509 81 453 40 q 591 184 565 121 q 617 319 617 248 l 133 319 z "},"f":{"ha":547,"x_min":56,"x_max":485,"o":"m 478 671 l 281 671 l 281 0 l 226 0 l 226 671 l 56 671 l 56 718 l 226 718 l 226 838 q 263 963 226 922 q 379 1004 299 1004 l 485 1004 l 485 957 l 365 957 q 299 931 317 957 q 281 849 281 904 l 281 718 l 478 718 l 478 671 z "},"g":{"ha":832,"x_min":63,"x_max":763,"o":"m 388 -237 q 211 -214 284 -237 q 100 -144 138 -190 q 63 -36 63 -99 q 81 37 63 5 q 124 89 100 69 q 177 128 147 109 l 194 140 q 172 154 190 143 q 144 180 154 165 q 135 215 135 195 q 162 269 135 244 q 242 308 190 293 q 146 388 174 344 q 118 500 118 432 q 152 623 118 571 q 250 702 185 674 q 403 729 314 729 q 516 713 468 729 q 607 661 565 697 q 685 695 636 674 q 763 728 733 716 l 763 647 l 635 619 q 657 561 647 597 q 667 500 667 526 q 637 389 667 438 q 546 311 608 340 q 393 283 485 283 l 378 283 q 235 262 279 281 q 192 217 192 243 q 205 192 192 201 q 250 177 218 183 q 340 167 281 171 l 503 157 q 660 104 609 151 q 711 -26 711 57 q 673 -141 711 -93 q 562 -213 635 -188 q 388 -237 490 -237 m 394 335 q 613 503 613 335 q 554 634 613 590 q 394 678 496 678 q 230 632 288 678 q 172 503 172 586 q 230 378 172 421 q 394 335 287 335 m 400 -186 q 654 -26 654 -186 q 619 65 654 33 q 501 101 583 97 l 263 117 q 205 99 240 118 q 145 45 170 79 q 119 -31 119 10 q 193 -146 119 -106 q 400 -186 266 -186 z "},"ğ":{"ha":832,"x_min":63,"x_max":763,"o":"m 388 -237 q 211 -214 284 -237 q 100 -144 138 -190 q 63 -36 63 -99 q 81 37 63 5 q 124 89 100 69 q 177 128 147 109 l 194 140 q 172 154 190 143 q 144 180 154 165 q 135 215 135 195 q 162 269 135 244 q 242 308 190 293 q 146 388 174 344 q 118 500 118 432 q 152 623 118 571 q 250 702 185 674 q 403 729 314 729 q 516 713 468 729 q 607 661 565 697 q 685 695 636 674 q 763 728 733 716 l 763 647 l 635 619 q 657 561 647 597 q 667 500 667 526 q 637 389 667 438 q 546 311 608 340 q 393 283 485 283 l 378 283 q 235 262 279 281 q 192 217 192 243 q 205 192 192 201 q 250 177 218 183 q 340 167 281 171 l 503 157 q 660 104 609 151 q 711 -26 711 57 q 673 -141 711 -93 q 562 -213 635 -188 q 388 -237 490 -237 m 394 335 q 613 503 613 335 q 554 634 613 590 q 394 678 496 678 q 230 632 288 678 q 172 503 172 586 q 230 378 172 421 q 394 335 287 335 m 400 -186 q 654 -26 654 -186 q 619 65 654 33 q 501 101 583 97 l 263 117 q 205 99 240 118 q 145 45 170 79 q 119 -31 119 10 q 193 -146 119 -106 q 400 -186 266 -186 m 583 1001 q 553 946 576 974 q 492 898 530 917 q 403 878 453 878 q 316 896 353 878 q 257 943 278 915 q 229 1001 236 971 l 294 1001 q 308 980 296 999 q 345 947 319 960 q 403 933 370 933 q 471 953 445 933 q 515 1001 497 973 l 583 1001 z "},"ĝ":{"ha":832,"x_min":63,"x_max":763,"o":"m 388 -237 q 211 -214 284 -237 q 100 -144 138 -190 q 63 -36 63 -99 q 81 37 63 5 q 124 89 100 69 q 177 128 147 109 l 194 140 q 172 154 190 143 q 144 180 154 165 q 135 215 135 195 q 162 269 135 244 q 242 308 190 293 q 146 388 174 344 q 118 500 118 432 q 152 623 118 571 q 250 702 185 674 q 403 729 314 729 q 516 713 468 729 q 607 661 565 697 q 685 695 636 674 q 763 728 733 716 l 763 647 l 635 619 q 657 561 647 597 q 667 500 667 526 q 637 389 667 438 q 546 311 608 340 q 393 283 485 283 l 378 283 q 235 262 279 281 q 192 217 192 243 q 205 192 192 201 q 250 177 218 183 q 340 167 281 171 l 503 157 q 660 104 609 151 q 711 -26 711 57 q 673 -141 711 -93 q 562 -213 635 -188 q 388 -237 490 -237 m 394 335 q 613 503 613 335 q 554 634 613 590 q 394 678 496 678 q 230 632 288 678 q 172 503 172 586 q 230 378 172 421 q 394 335 287 335 m 400 -186 q 654 -26 654 -186 q 619 65 654 33 q 501 101 583 97 l 263 117 q 205 99 240 118 q 145 45 170 79 q 119 -31 119 10 q 193 -146 119 -106 q 400 -186 266 -186 m 399 956 l 290 872 l 213 872 l 378 1004 l 422 1004 l 585 872 l 501 872 l 399 956 z "},"ģ":{"ha":832,"x_min":63,"x_max":763,"o":"m 344 974 l 392 1064 l 435 1064 l 390 968 l 422 968 l 422 856 l 344 856 l 344 974 m 388 -237 q 211 -214 284 -237 q 100 -144 138 -190 q 63 -36 63 -99 q 81 37 63 5 q 124 89 100 69 q 177 128 147 109 l 194 140 q 172 154 190 143 q 144 180 154 165 q 135 215 135 195 q 162 269 135 244 q 242 308 190 293 q 146 388 174 344 q 118 500 118 432 q 152 623 118 571 q 250 702 185 674 q 403 729 314 729 q 516 713 468 729 q 607 661 565 697 q 685 695 636 674 q 763 728 733 716 l 763 647 l 635 619 q 657 561 647 597 q 667 500 667 526 q 637 389 667 438 q 546 311 608 340 q 393 283 485 283 l 378 283 q 235 262 279 281 q 192 217 192 243 q 205 192 192 201 q 250 177 218 183 q 340 167 281 171 l 503 157 q 660 104 609 151 q 711 -26 711 57 q 673 -141 711 -93 q 562 -213 635 -188 q 388 -237 490 -237 m 394 335 q 613 503 613 335 q 554 634 613 590 q 394 678 496 678 q 230 632 288 678 q 172 503 172 586 q 230 378 172 421 q 394 335 287 335 m 400 -186 q 654 -26 654 -186 q 619 65 654 33 q 501 101 583 97 l 263 117 q 205 99 240 118 q 145 45 170 79 q 119 -31 119 10 q 193 -146 119 -106 q 400 -186 266 -186 z "},"ġ":{"ha":832,"x_min":63,"x_max":763,"o":"m 388 -237 q 211 -214 284 -237 q 100 -144 138 -190 q 63 -36 63 -99 q 81 37 63 5 q 124 89 100 69 q 177 128 147 109 l 194 140 q 172 154 190 143 q 144 180 154 165 q 135 215 135 195 q 162 269 135 244 q 242 308 190 293 q 146 388 174 344 q 118 500 118 432 q 152 623 118 571 q 250 702 185 674 q 403 729 314 729 q 516 713 468 729 q 607 661 565 697 q 685 695 636 674 q 763 728 733 716 l 763 647 l 635 619 q 657 561 647 597 q 667 500 667 526 q 637 389 667 438 q 546 311 608 340 q 393 283 485 283 l 378 283 q 235 262 279 281 q 192 217 192 243 q 205 192 192 201 q 250 177 218 183 q 340 167 281 171 l 503 157 q 660 104 609 151 q 711 -26 711 57 q 673 -141 711 -93 q 562 -213 635 -188 q 388 -237 490 -237 m 394 335 q 613 503 613 335 q 554 634 613 590 q 394 678 496 678 q 230 632 288 678 q 172 503 172 586 q 230 378 172 421 q 394 335 287 335 m 400 -186 q 654 -26 654 -186 q 619 65 654 33 q 501 101 583 97 l 263 117 q 205 99 240 118 q 145 45 170 79 q 119 -31 119 10 q 193 -146 119 -106 q 400 -186 266 -186 m 365 956 l 432 956 l 432 872 l 365 872 l 365 956 z "},"h":{"ha":779,"x_min":125,"x_max":668,"o":"m 125 1032 l 175 1032 l 175 611 q 269 698 204 665 q 418 732 333 732 q 546 707 489 732 q 635 636 603 681 q 668 532 668 590 l 668 0 l 614 0 l 614 511 q 561 635 614 590 q 417 679 508 679 q 297 659 351 679 q 211 599 243 640 q 179 500 179 559 l 179 0 l 125 0 l 125 1032 z "},"ħ":{"ha":776,"x_min":28,"x_max":665,"o":"m 415 732 q 543 707 486 732 q 633 636 600 681 q 665 532 665 590 l 665 0 l 611 0 l 611 511 q 558 635 611 590 q 414 679 506 679 q 294 659 348 679 q 208 599 240 640 q 176 500 176 559 l 176 0 l 122 0 l 122 849 l 28 849 l 28 896 l 122 896 l 122 1032 l 172 1032 l 172 896 l 419 896 l 419 849 l 172 849 l 172 611 q 266 698 201 665 q 415 732 331 732 z "},"ĥ":{"ha":779,"x_min":125,"x_max":668,"o":"m 125 1032 l 175 1032 l 175 611 q 269 698 204 665 q 418 732 333 732 q 546 707 489 732 q 635 636 603 681 q 668 532 668 590 l 668 0 l 614 0 l 614 511 q 561 635 614 590 q 417 679 508 679 q 297 659 351 679 q 211 599 243 640 q 179 500 179 559 l 179 0 l 125 0 l 125 1032 m 442 956 l 333 872 l 256 872 l 421 1004 l 465 1004 l 628 872 l 544 872 l 442 956 z "},"ḥ":{"ha":779,"x_min":125,"x_max":668,"o":"m 125 1032 l 175 1032 l 175 611 q 269 698 204 665 q 418 732 333 732 q 546 707 489 732 q 635 636 603 681 q 668 532 668 590 l 668 0 l 614 0 l 614 511 q 561 635 614 590 q 417 679 508 679 q 297 659 351 679 q 211 599 243 640 q 179 500 179 559 l 179 0 l 125 0 l 125 1032 z "},"i":{"ha":344,"x_min":139,"x_max":206,"o":"m 206 899 l 139 899 l 139 982 l 206 982 l 206 899 m 200 0 l 146 0 l 146 718 l 200 718 l 200 0 z "},"ı":{"ha":332,"x_min":139,"x_max":193,"o":"m 193 0 l 139 0 l 139 718 l 193 718 l 193 0 z "},"í":{"ha":332,"x_min":-8,"x_max":338,"o":"m 193 0 l 139 0 l 139 718 l 193 718 l 193 0 m 338 953 l 6 844 l -8 888 l 318 1015 l 338 953 z "},"ĭ":{"ha":332,"x_min":-4,"x_max":350,"o":"m 193 0 l 139 0 l 139 718 l 193 718 l 193 0 m 350 1001 q 319 946 342 974 q 258 898 297 917 q 169 878 220 878 q 82 896 119 878 q 24 943 45 915 q -4 1001 3 971 l 61 1001 q 74 980 63 999 q 111 947 86 960 q 169 933 137 933 q 238 953 212 933 q 282 1001 264 973 l 350 1001 z "},"î":{"ha":332,"x_min":-21,"x_max":351,"o":"m 193 0 l 139 0 l 139 718 l 193 718 l 193 0 m 165 956 l 57 872 l -21 872 l 144 1004 l 189 1004 l 351 872 l 268 872 l 165 956 z "},"ȉ":{"ha":332,"x_min":-101,"x_max":301,"o":"m 193 0 l 139 0 l 139 718 l 193 718 l 193 0 m 111 826 l 88 790 l -101 967 l -60 1018 l 111 826 m 301 826 l 276 790 l 89 967 l 131 1018 l 301 826 z "},"ï":{"ha":332,"x_min":43,"x_max":285,"o":"m 193 0 l 139 0 l 139 718 l 193 718 l 193 0 m 43 982 l 110 982 l 110 899 l 43 899 l 43 982 m 218 982 l 285 982 l 285 899 l 218 899 l 218 982 z "},"ị":{"ha":346,"x_min":139,"x_max":207,"o":"m 207 899 l 140 899 l 140 982 l 207 982 l 207 899 m 201 0 l 147 0 l 147 718 l 201 718 l 201 0 z "},"ì":{"ha":332,"x_min":-32,"x_max":314,"o":"m 193 0 l 139 0 l 139 718 l 193 718 l 193 0 m 314 888 l 300 844 l -32 953 l -12 1015 l 314 888 z "},"ỉ":{"ha":332,"x_min":72,"x_max":270,"o":"m 193 0 l 139 0 l 139 718 l 193 718 l 193 0 m 100 953 q 165 976 134 976 q 210 953 196 976 q 217 929 217 942 q 202 890 217 910 q 163 854 188 870 l 190 813 q 249 865 228 836 q 270 926 270 894 q 251 982 270 954 q 215 1015 237 1003 q 165 1026 192 1026 q 72 996 119 1026 l 100 953 z "},"ȋ":{"ha":332,"x_min":-12,"x_max":342,"o":"m 193 0 l 139 0 l 139 718 l 193 718 l 193 0 m 274 940 q 230 989 256 969 q 161 1008 203 1008 q 107 997 128 1008 q 76 973 85 985 q 53 940 67 962 l -12 940 q 16 999 -6 971 q 74 1045 37 1027 q 161 1064 111 1064 q 250 1044 212 1064 q 311 996 288 1024 q 342 940 334 967 l 274 940 z "},"ī":{"ha":332,"x_min":-6,"x_max":335,"o":"m 193 0 l 139 0 l 139 718 l 193 718 l 193 0 m 335 926 l -6 926 l -6 978 l 335 978 l 335 926 z "},"į":{"ha":332,"x_min":-7,"x_max":229,"o":"m 199 872 l 132 872 l 132 956 l 199 956 l 199 872 m 131 -181 q 189 -174 161 -181 q 229 -160 217 -167 l 229 -203 q 181 -219 212 -212 q 117 -226 149 -226 q 24 -198 55 -226 q -7 -121 -7 -169 q 26 -42 -7 -74 q 139 15 59 -9 l 139 718 l 193 718 l 193 0 l 180 0 q 83 -59 113 -31 q 53 -124 53 -87 q 71 -166 53 -152 q 131 -181 90 -181 z "},"ĩ":{"ha":332,"x_min":-12,"x_max":344,"o":"m 193 0 l 139 0 l 139 718 l 193 718 l 193 0 m 344 943 q 300 919 321 928 q 244 911 280 911 q 201 916 219 911 q 158 929 183 920 q 121 941 135 938 q 90 944 108 944 q 50 938 67 944 q 16 919 34 931 q 4 911 6 912 l -12 950 q 34 980 13 970 q 85 990 56 990 q 123 986 105 990 q 165 973 141 981 q 209 960 192 964 q 246 956 226 956 q 286 962 269 956 q 325 985 302 969 l 344 943 z "},"j":{"ha":331,"x_min":-42,"x_max":206,"o":"m 206 899 l 139 899 l 139 982 l 206 982 l 206 899 m 199 -69 q 186 -162 199 -128 q 140 -214 173 -197 q 46 -231 107 -231 q -15 -227 6 -231 q -42 -218 -37 -224 l -42 -182 l 44 -181 q 122 -153 99 -179 q 144 -62 144 -126 l 144 718 l 199 718 l 199 -69 z "},"ȷ":{"ha":325,"x_min":-42,"x_max":200,"o":"m 200 -69 q 187 -162 200 -128 q 141 -214 174 -197 q 47 -231 108 -231 q -13 -230 5 -231 q -36 -227 -31 -229 q -42 -218 -42 -224 l -42 -182 l 46 -181 q 123 -153 99 -179 q 146 -62 146 -126 l 146 718 l 200 718 l 200 -69 z "},"ĵ":{"ha":325,"x_min":-42,"x_max":358,"o":"m 200 -69 q 187 -162 200 -128 q 141 -214 174 -197 q 47 -231 108 -231 q -13 -230 5 -231 q -36 -227 -31 -229 q -42 -218 -42 -224 l -42 -182 l 46 -181 q 123 -153 99 -179 q 146 -62 146 -126 l 146 718 l 200 718 l 200 -69 m 172 956 l 64 872 l -14 872 l 151 1004 l 196 1004 l 358 872 l 275 872 l 172 956 z "},"k":{"ha":756,"x_min":125,"x_max":693,"o":"m 624 0 l 368 411 l 179 219 l 179 0 l 125 0 l 125 1032 l 179 1032 l 179 297 l 590 718 l 667 718 l 410 457 l 693 0 l 624 0 z "},"ķ":{"ha":756,"x_min":125,"x_max":693,"o":"m 624 0 l 368 411 l 179 219 l 179 0 l 125 0 l 125 1032 l 179 1032 l 179 297 l 590 718 l 667 718 l 410 457 l 693 0 l 624 0 z "},"ĸ":{"ha":756,"x_min":125,"x_max":693,"o":"m 624 0 l 368 411 l 179 219 l 179 0 l 125 0 l 125 718 l 179 718 l 179 297 l 590 718 l 667 718 l 410 457 l 693 0 l 624 0 z "},"l":{"ha":374,"x_min":132,"x_max":311,"o":"m 265 -6 q 165 42 197 -6 q 132 168 132 89 l 132 1032 l 186 1032 l 186 168 q 210 72 186 103 q 267 40 233 40 l 311 40 l 311 0 q 265 -6 289 -6 z "},"ĺ":{"ha":374,"x_min":-19,"x_max":326,"o":"m 265 -6 q 165 42 197 -6 q 132 168 132 89 l 132 1032 l 186 1032 l 186 168 q 210 72 186 103 q 267 40 233 40 l 311 40 l 311 0 q 265 -6 289 -6 m 326 1293 l -6 1185 l -19 1228 l 307 1356 l 326 1293 z "},"ľ":{"ha":374,"x_min":132,"x_max":358,"o":"m 265 -6 q 165 42 197 -6 q 132 168 132 89 l 132 1032 l 186 1032 l 186 168 q 210 72 186 103 q 267 40 233 40 l 311 40 l 311 0 q 265 -6 289 -6 m 311 883 l 285 889 l 285 1004 l 358 1004 l 358 883 l 308 768 l 263 768 l 311 883 z "},"ļ":{"ha":374,"x_min":108,"x_max":311,"o":"m 265 -6 q 165 42 197 -6 q 132 168 132 89 l 132 1032 l 186 1032 l 186 168 q 210 72 186 103 q 267 40 233 40 l 311 40 l 311 0 q 265 -6 289 -6 z "},"ŀ":{"ha":393,"x_min":132,"x_max":432,"o":"m 265 -6 q 165 42 197 -6 q 132 168 132 89 l 132 1032 l 186 1032 l 186 168 q 210 72 186 103 q 267 40 233 40 l 311 40 l 311 0 q 265 -6 289 -6 m 432 349 l 321 349 l 321 456 l 432 456 l 432 349 z "},"ł":{"ha":300,"x_min":0,"x_max":321,"o":"m 192 417 l 192 168 q 215 72 192 103 q 272 40 239 40 l 317 40 l 317 0 q 271 -6 294 -6 q 170 42 203 -6 q 138 168 138 89 l 138 366 l 0 236 l 0 299 l 138 427 l 138 1032 l 192 1032 l 192 478 l 321 599 l 321 539 l 192 417 z "},"m":{"ha":1158,"x_min":125,"x_max":1047,"o":"m 125 718 l 175 718 l 175 611 q 382 732 241 732 q 468 718 425 732 q 545 677 511 704 q 594 613 579 650 q 684 701 627 669 q 814 732 742 732 q 978 676 910 732 q 1047 465 1047 619 l 1047 0 l 993 0 l 993 465 q 944 632 993 585 q 814 679 895 679 q 721 663 767 679 q 644 606 675 646 q 613 500 613 566 l 613 0 l 558 0 l 558 522 q 532 608 558 572 q 464 661 505 643 q 381 679 423 679 q 286 660 332 679 q 209 601 240 642 q 179 500 179 561 l 179 0 l 125 0 l 125 718 z "},"n":{"ha":779,"x_min":125,"x_max":668,"o":"m 125 718 l 175 718 l 175 611 q 268 698 204 665 q 417 732 333 732 q 547 703 490 732 q 636 614 603 674 q 668 465 668 554 l 668 0 l 614 0 l 614 465 q 562 624 614 568 q 417 679 510 679 q 297 659 351 679 q 211 599 243 640 q 179 500 179 559 l 179 0 l 125 0 l 125 718 z "},"ń":{"ha":779,"x_min":125,"x_max":668,"o":"m 125 718 l 175 718 l 175 611 q 268 698 204 665 q 417 732 333 732 q 547 703 490 732 q 636 614 603 674 q 668 465 668 554 l 668 0 l 614 0 l 614 465 q 562 624 614 568 q 417 679 510 679 q 297 659 351 679 q 211 599 243 640 q 179 500 179 559 l 179 0 l 125 0 l 125 718 m 583 953 l 251 844 l 238 888 l 564 1015 l 583 953 z "},"ň":{"ha":779,"x_min":125,"x_max":668,"o":"m 125 718 l 175 718 l 175 611 q 268 698 204 665 q 417 732 333 732 q 547 703 490 732 q 636 614 603 674 q 668 465 668 554 l 668 0 l 614 0 l 614 465 q 562 624 614 568 q 417 679 510 679 q 297 659 351 679 q 211 599 243 640 q 179 500 179 559 l 179 0 l 125 0 l 125 718 m 597 1004 l 435 872 l 390 872 l 224 1004 l 303 1004 l 411 921 l 514 1004 l 597 1004 z "},"ņ":{"ha":779,"x_min":125,"x_max":668,"o":"m 125 718 l 175 718 l 175 611 q 268 698 204 665 q 417 732 333 732 q 547 703 490 732 q 636 614 603 674 q 668 465 668 554 l 668 0 l 614 0 l 614 465 q 562 624 614 568 q 417 679 510 679 q 297 659 351 679 q 211 599 243 640 q 179 500 179 559 l 179 0 l 125 0 l 125 718 z "},"ṅ":{"ha":779,"x_min":125,"x_max":668,"o":"m 125 718 l 175 718 l 175 611 q 268 698 204 665 q 417 732 333 732 q 547 703 490 732 q 636 614 603 674 q 668 465 668 554 l 668 0 l 614 0 l 614 465 q 562 624 614 568 q 417 679 510 679 q 297 659 351 679 q 211 599 243 640 q 179 500 179 559 l 179 0 l 125 0 l 125 718 m 378 956 l 444 956 l 444 872 l 378 872 l 378 956 z "},"ŋ":{"ha":793,"x_min":125,"x_max":668,"o":"m 514 -231 q 462 -230 477 -231 q 441 -226 447 -229 q 436 -218 436 -224 l 436 -185 l 513 -183 q 590 -155 567 -182 q 614 -62 614 -127 l 614 503 q 573 634 614 588 q 442 681 533 681 q 179 553 323 681 l 179 0 l 125 0 l 125 718 l 175 718 l 175 610 q 281 685 236 658 q 364 722 325 711 q 449 732 403 732 q 566 707 517 732 q 642 636 616 682 q 668 532 668 591 l 668 -56 q 514 -231 668 -231 z "},"ñ":{"ha":779,"x_min":125,"x_max":668,"o":"m 125 718 l 175 718 l 175 611 q 268 698 204 665 q 417 732 333 732 q 547 703 490 732 q 636 614 603 674 q 668 465 668 554 l 668 0 l 614 0 l 614 465 q 562 624 614 568 q 417 679 510 679 q 297 659 351 679 q 211 599 243 640 q 179 500 179 559 l 179 0 l 125 0 l 125 718 m 590 943 q 546 919 567 928 q 490 911 526 911 q 447 916 465 911 q 403 929 429 920 q 367 941 381 938 q 336 944 353 944 q 296 938 313 944 q 262 919 280 931 q 250 911 251 912 l 233 950 q 280 980 258 970 q 331 990 301 990 q 369 986 351 990 q 411 973 387 981 q 455 960 438 964 q 492 956 472 956 q 532 962 515 956 q 571 985 548 969 l 590 943 z "},"o":{"ha":771,"x_min":76,"x_max":694,"o":"m 386 -14 q 218 32 288 -14 q 113 161 149 78 q 76 354 76 244 q 113 551 76 465 q 220 684 150 636 q 388 732 290 732 q 553 684 483 732 q 658 552 622 637 q 694 357 694 467 q 658 163 694 247 q 552 33 622 79 q 386 -14 483 -14 m 389 38 q 574 123 511 38 q 638 357 638 209 q 609 527 638 454 q 525 639 581 599 q 388 679 469 679 q 249 639 306 679 q 163 526 192 599 q 133 357 133 453 q 163 189 133 261 q 249 77 192 117 q 389 38 306 38 z "},"ó":{"ha":771,"x_min":76,"x_max":694,"o":"m 386 -14 q 218 32 288 -14 q 113 161 149 78 q 76 354 76 244 q 113 551 76 465 q 220 684 150 636 q 388 732 290 732 q 553 684 483 732 q 658 552 622 637 q 694 357 694 467 q 658 163 694 247 q 552 33 622 79 q 386 -14 483 -14 m 389 38 q 574 123 511 38 q 638 357 638 209 q 609 527 638 454 q 525 639 581 599 q 388 679 469 679 q 249 639 306 679 q 163 526 192 599 q 133 357 133 453 q 163 189 133 261 q 249 77 192 117 q 389 38 306 38 m 561 953 l 229 844 l 215 888 l 542 1015 l 561 953 z "},"ŏ":{"ha":771,"x_min":76,"x_max":694,"o":"m 386 -14 q 218 32 288 -14 q 113 161 149 78 q 76 354 76 244 q 113 551 76 465 q 220 684 150 636 q 388 732 290 732 q 553 684 483 732 q 658 552 622 637 q 694 357 694 467 q 658 163 694 247 q 552 33 622 79 q 386 -14 483 -14 m 389 38 q 574 123 511 38 q 638 357 638 209 q 609 527 638 454 q 525 639 581 599 q 388 679 469 679 q 249 639 306 679 q 163 526 192 599 q 133 357 133 453 q 163 189 133 261 q 249 77 192 117 q 389 38 306 38 m 574 1001 q 543 946 566 974 q 482 898 520 917 q 393 878 444 878 q 306 896 343 878 q 248 943 269 915 q 219 1001 226 971 l 285 1001 q 298 980 286 999 q 335 947 310 960 q 393 933 360 933 q 461 953 435 933 q 506 1001 488 973 l 574 1001 z "},"ô":{"ha":771,"x_min":76,"x_max":694,"o":"m 386 -14 q 218 32 288 -14 q 113 161 149 78 q 76 354 76 244 q 113 551 76 465 q 220 684 150 636 q 388 732 290 732 q 553 684 483 732 q 658 552 622 637 q 694 357 694 467 q 658 163 694 247 q 552 33 622 79 q 386 -14 483 -14 m 389 38 q 574 123 511 38 q 638 357 638 209 q 609 527 638 454 q 525 639 581 599 q 388 679 469 679 q 249 639 306 679 q 163 526 192 599 q 133 357 133 453 q 163 189 133 261 q 249 77 192 117 q 389 38 306 38 m 389 956 l 281 872 l 203 872 l 368 1004 l 413 1004 l 575 872 l 492 872 l 389 956 z "},"ố":{"ha":771,"x_min":76,"x_max":694,"o":"m 386 -14 q 218 32 288 -14 q 113 161 149 78 q 76 354 76 244 q 113 551 76 465 q 220 684 150 636 q 388 732 290 732 q 553 684 483 732 q 658 552 622 637 q 694 357 694 467 q 658 163 694 247 q 552 33 622 79 q 386 -14 483 -14 m 389 38 q 574 123 511 38 q 638 357 638 209 q 609 527 638 454 q 525 639 581 599 q 388 679 469 679 q 249 639 306 679 q 163 526 192 599 q 133 357 133 453 q 163 189 133 261 q 249 77 192 117 q 389 38 306 38 z "},"ộ":{"ha":771,"x_min":76,"x_max":694,"o":"m 386 -14 q 218 32 288 -14 q 113 161 149 78 q 76 354 76 244 q 113 551 76 465 q 220 684 150 636 q 388 732 290 732 q 553 684 483 732 q 658 552 622 637 q 694 357 694 467 q 658 163 694 247 q 552 33 622 79 q 386 -14 483 -14 m 389 38 q 574 123 511 38 q 638 357 638 209 q 609 527 638 454 q 525 639 581 599 q 388 679 469 679 q 249 639 306 679 q 163 526 192 599 q 133 357 133 453 q 163 189 133 261 q 249 77 192 117 q 389 38 306 38 m 389 956 l 281 872 l 203 872 l 368 1004 l 413 1004 l 575 872 l 492 872 l 389 956 z "},"ồ":{"ha":771,"x_min":76,"x_max":694,"o":"m 386 -14 q 218 32 288 -14 q 113 161 149 78 q 76 354 76 244 q 113 551 76 465 q 220 684 150 636 q 388 732 290 732 q 553 684 483 732 q 658 552 622 637 q 694 357 694 467 q 658 163 694 247 q 552 33 622 79 q 386 -14 483 -14 m 389 38 q 574 123 511 38 q 638 357 638 209 q 609 527 638 454 q 525 639 581 599 q 388 679 469 679 q 249 639 306 679 q 163 526 192 599 q 133 357 133 453 q 163 189 133 261 q 249 77 192 117 q 389 38 306 38 z "},"ổ":{"ha":771,"x_min":76,"x_max":694,"o":"m 386 -14 q 218 32 288 -14 q 113 161 149 78 q 76 354 76 244 q 113 551 76 465 q 220 684 150 636 q 388 732 290 732 q 553 684 483 732 q 658 552 622 637 q 694 357 694 467 q 658 163 694 247 q 552 33 622 79 q 386 -14 483 -14 m 389 38 q 574 123 511 38 q 638 357 638 209 q 609 527 638 454 q 525 639 581 599 q 388 679 469 679 q 249 639 306 679 q 163 526 192 599 q 133 357 133 453 q 163 189 133 261 q 249 77 192 117 q 389 38 306 38 z "},"ỗ":{"ha":771,"x_min":76,"x_max":694,"o":"m 386 -14 q 218 32 288 -14 q 113 161 149 78 q 76 354 76 244 q 113 551 76 465 q 220 684 150 636 q 388 732 290 732 q 553 684 483 732 q 658 552 622 637 q 694 357 694 467 q 658 163 694 247 q 552 33 622 79 q 386 -14 483 -14 m 389 38 q 574 123 511 38 q 638 357 638 209 q 609 527 638 454 q 525 639 581 599 q 388 679 469 679 q 249 639 306 679 q 163 526 192 599 q 133 357 133 453 q 163 189 133 261 q 249 77 192 117 q 389 38 306 38 z "},"ȍ":{"ha":771,"x_min":76,"x_max":694,"o":"m 386 -14 q 218 32 288 -14 q 113 161 149 78 q 76 354 76 244 q 113 551 76 465 q 220 684 150 636 q 388 732 290 732 q 553 684 483 732 q 658 552 622 637 q 694 357 694 467 q 658 163 694 247 q 552 33 622 79 q 386 -14 483 -14 m 389 38 q 574 123 511 38 q 638 357 638 209 q 609 527 638 454 q 525 639 581 599 q 388 679 469 679 q 249 639 306 679 q 163 526 192 599 q 133 357 133 453 q 163 189 133 261 q 249 77 192 117 q 389 38 306 38 m 335 826 l 311 790 l 122 967 l 164 1018 l 335 826 m 525 826 l 500 790 l 313 967 l 354 1018 l 525 826 z "},"ö":{"ha":771,"x_min":76,"x_max":694,"o":"m 386 -14 q 218 32 288 -14 q 113 161 149 78 q 76 354 76 244 q 113 551 76 465 q 220 684 150 636 q 388 732 290 732 q 553 684 483 732 q 658 552 622 637 q 694 357 694 467 q 658 163 694 247 q 552 33 622 79 q 386 -14 483 -14 m 389 38 q 574 123 511 38 q 638 357 638 209 q 609 527 638 454 q 525 639 581 599 q 388 679 469 679 q 249 639 306 679 q 163 526 192 599 q 133 357 133 453 q 163 189 133 261 q 249 77 192 117 q 389 38 306 38 m 267 982 l 333 982 l 333 899 l 267 899 l 267 982 m 442 982 l 508 982 l 508 899 l 442 899 l 442 982 z "},"ọ":{"ha":771,"x_min":76,"x_max":694,"o":"m 386 -14 q 218 32 288 -14 q 113 161 149 78 q 76 354 76 244 q 113 551 76 465 q 220 684 150 636 q 388 732 290 732 q 553 684 483 732 q 658 552 622 637 q 694 357 694 467 q 658 163 694 247 q 552 33 622 79 q 386 -14 483 -14 m 389 38 q 574 123 511 38 q 638 357 638 209 q 609 527 638 454 q 525 639 581 599 q 388 679 469 679 q 249 639 306 679 q 163 526 192 599 q 133 357 133 453 q 163 189 133 261 q 249 77 192 117 q 389 38 306 38 z "},"ò":{"ha":771,"x_min":76,"x_max":694,"o":"m 386 -14 q 218 32 288 -14 q 113 161 149 78 q 76 354 76 244 q 113 551 76 465 q 220 684 150 636 q 388 732 290 732 q 553 684 483 732 q 658 552 622 637 q 694 357 694 467 q 658 163 694 247 q 552 33 622 79 q 386 -14 483 -14 m 389 38 q 574 123 511 38 q 638 357 638 209 q 609 527 638 454 q 525 639 581 599 q 388 679 469 679 q 249 639 306 679 q 163 526 192 599 q 133 357 133 453 q 163 189 133 261 q 249 77 192 117 q 389 38 306 38 m 538 888 l 524 844 l 192 953 l 211 1015 l 538 888 z "},"ỏ":{"ha":771,"x_min":76,"x_max":694,"o":"m 386 -14 q 218 32 288 -14 q 113 161 149 78 q 76 354 76 244 q 113 551 76 465 q 220 684 150 636 q 388 732 290 732 q 553 684 483 732 q 658 552 622 637 q 694 357 694 467 q 658 163 694 247 q 552 33 622 79 q 386 -14 483 -14 m 389 38 q 574 123 511 38 q 638 357 638 209 q 609 527 638 454 q 525 639 581 599 q 388 679 469 679 q 249 639 306 679 q 163 526 192 599 q 133 357 133 453 q 163 189 133 261 q 249 77 192 117 q 389 38 306 38 m 324 953 q 389 976 358 976 q 433 953 419 976 q 440 929 440 942 q 426 890 440 910 q 386 854 411 870 l 414 813 q 473 865 451 836 q 494 926 494 894 q 475 982 494 954 q 438 1015 460 1003 q 389 1026 416 1026 q 296 996 343 1026 l 324 953 z "},"ơ":{"ha":900,"x_min":76,"x_max":829,"o":"m 829 675 q 678 494 829 492 q 694 357 694 431 q 658 163 694 247 q 552 33 622 79 q 386 -14 483 -14 q 218 32 288 -14 q 113 161 149 78 q 76 354 76 244 q 113 551 76 465 q 220 684 150 636 q 388 732 290 732 q 552 685 483 732 q 658 553 622 638 q 717 563 696 553 q 747 599 738 573 q 758 675 757 626 l 829 675 m 389 38 q 574 123 511 38 q 638 357 638 209 q 609 527 638 454 q 525 639 581 599 q 388 679 469 679 q 249 639 306 679 q 163 526 192 599 q 133 357 133 453 q 163 189 133 261 q 249 77 192 117 q 389 38 306 38 z "},"ớ":{"ha":900,"x_min":76,"x_max":829,"o":"m 229 844 l 215 888 l 542 1015 l 561 953 l 229 844 m 829 675 q 678 494 829 492 q 694 357 694 431 q 658 163 694 247 q 552 33 622 79 q 386 -14 483 -14 q 218 32 288 -14 q 113 161 149 78 q 76 354 76 244 q 113 551 76 465 q 220 684 150 636 q 388 732 290 732 q 552 685 483 732 q 658 553 622 638 q 717 563 696 553 q 747 599 738 573 q 758 675 757 626 l 829 675 m 389 38 q 574 123 511 38 q 638 357 638 209 q 609 527 638 454 q 525 639 581 599 q 388 679 469 679 q 249 639 306 679 q 163 526 192 599 q 133 357 133 453 q 163 189 133 261 q 249 77 192 117 q 389 38 306 38 z "},"ợ":{"ha":900,"x_min":76,"x_max":829,"o":"m 829 675 q 678 494 829 492 q 694 357 694 431 q 658 163 694 247 q 552 33 622 79 q 386 -14 483 -14 q 218 32 288 -14 q 113 161 149 78 q 76 354 76 244 q 113 551 76 465 q 220 684 150 636 q 388 732 290 732 q 552 685 483 732 q 658 553 622 638 q 717 563 696 553 q 747 599 738 573 q 758 675 757 626 l 829 675 m 389 38 q 574 123 511 38 q 638 357 638 209 q 609 527 638 454 q 525 639 581 599 q 388 679 469 679 q 249 639 306 679 q 163 526 192 599 q 133 357 133 453 q 163 189 133 261 q 249 77 192 117 q 389 38 306 38 m 354 -133 l 421 -133 l 421 -217 l 354 -217 l 354 -133 z "},"ờ":{"ha":900,"x_min":76,"x_max":829,"o":"m 524 844 l 192 953 l 211 1015 l 538 888 l 524 844 m 829 675 q 678 494 829 492 q 694 357 694 431 q 658 163 694 247 q 552 33 622 79 q 386 -14 483 -14 q 218 32 288 -14 q 113 161 149 78 q 76 354 76 244 q 113 551 76 465 q 220 684 150 636 q 388 732 290 732 q 552 685 483 732 q 658 553 622 638 q 717 563 696 553 q 747 599 738 573 q 758 675 757 626 l 829 675 m 389 38 q 574 123 511 38 q 638 357 638 209 q 609 527 638 454 q 525 639 581 599 q 388 679 469 679 q 249 639 306 679 q 163 526 192 599 q 133 357 133 453 q 163 189 133 261 q 249 77 192 117 q 389 38 306 38 z "},"ở":{"ha":900,"x_min":76,"x_max":829,"o":"m 433 953 q 389 976 419 976 q 324 953 358 976 l 296 996 q 389 1026 343 1026 q 438 1015 416 1026 q 475 982 460 1003 q 494 926 494 954 q 473 865 494 894 q 414 813 451 836 l 386 854 q 426 890 411 870 q 440 929 440 910 q 433 953 440 942 m 829 675 q 678 494 829 492 q 694 357 694 431 q 658 163 694 247 q 552 33 622 79 q 386 -14 483 -14 q 218 32 288 -14 q 113 161 149 78 q 76 354 76 244 q 113 551 76 465 q 220 684 150 636 q 388 732 290 732 q 552 685 483 732 q 658 553 622 638 q 717 563 696 553 q 747 599 738 573 q 758 675 757 626 l 829 675 m 389 38 q 574 123 511 38 q 638 357 638 209 q 609 527 638 454 q 525 639 581 599 q 388 679 469 679 q 249 639 306 679 q 163 526 192 599 q 133 357 133 453 q 163 189 133 261 q 249 77 192 117 q 389 38 306 38 z "},"ỡ":{"ha":900,"x_min":76,"x_max":829,"o":"m 314 944 q 274 938 290 944 q 240 919 258 931 q 228 911 229 912 l 211 950 q 258 980 236 970 q 308 990 279 990 q 347 986 328 990 q 389 973 366 981 q 434 960 417 964 q 469 956 450 956 q 509 962 493 956 q 549 985 526 969 l 568 943 q 524 919 544 928 q 468 911 503 911 q 425 916 443 911 q 381 929 407 920 q 345 941 358 938 q 314 944 331 944 m 829 675 q 678 494 829 492 q 694 357 694 431 q 658 163 694 247 q 552 33 622 79 q 386 -14 483 -14 q 218 32 288 -14 q 113 161 149 78 q 76 354 76 244 q 113 551 76 465 q 220 684 150 636 q 388 732 290 732 q 552 685 483 732 q 658 553 622 638 q 717 563 696 553 q 747 599 738 573 q 758 675 757 626 l 829 675 m 389 38 q 574 123 511 38 q 638 357 638 209 q 609 527 638 454 q 525 639 581 599 q 388 679 469 679 q 249 639 306 679 q 163 526 192 599 q 133 357 133 453 q 163 189 133 261 q 249 77 192 117 q 389 38 306 38 z "},"ő":{"ha":771,"x_min":76,"x_max":694,"o":"m 386 -14 q 218 32 288 -14 q 113 161 149 78 q 76 354 76 244 q 113 551 76 465 q 220 684 150 636 q 388 732 290 732 q 553 684 483 732 q 658 552 622 637 q 694 357 694 467 q 658 163 694 247 q 552 33 622 79 q 386 -14 483 -14 m 389 38 q 574 123 511 38 q 638 357 638 209 q 609 527 638 454 q 525 639 581 599 q 388 679 469 679 q 249 639 306 679 q 163 526 192 599 q 133 357 133 453 q 163 189 133 261 q 249 77 192 117 q 389 38 306 38 m 465 967 l 278 790 l 253 826 l 424 1018 l 465 967 m 657 967 l 468 789 l 444 826 l 614 1018 l 657 967 z "},"ȏ":{"ha":771,"x_min":76,"x_max":694,"o":"m 386 -14 q 218 32 288 -14 q 113 161 149 78 q 76 354 76 244 q 113 551 76 465 q 220 684 150 636 q 388 732 290 732 q 553 684 483 732 q 658 552 622 637 q 694 357 694 467 q 658 163 694 247 q 552 33 622 79 q 386 -14 483 -14 m 389 38 q 574 123 511 38 q 638 357 638 209 q 609 527 638 454 q 525 639 581 599 q 388 679 469 679 q 249 639 306 679 q 163 526 192 599 q 133 357 133 453 q 163 189 133 261 q 249 77 192 117 q 389 38 306 38 m 497 940 q 453 989 479 969 q 385 1008 427 1008 q 330 997 352 1008 q 299 973 308 985 q 276 940 290 962 l 211 940 q 239 999 218 971 q 298 1045 260 1027 q 385 1064 335 1064 q 474 1044 435 1064 q 535 996 512 1024 q 565 940 558 967 l 497 940 z "},"ō":{"ha":771,"x_min":76,"x_max":694,"o":"m 386 -14 q 218 32 288 -14 q 113 161 149 78 q 76 354 76 244 q 113 551 76 465 q 220 684 150 636 q 388 732 290 732 q 553 684 483 732 q 658 552 622 637 q 694 357 694 467 q 658 163 694 247 q 552 33 622 79 q 386 -14 483 -14 m 389 38 q 574 123 511 38 q 638 357 638 209 q 609 527 638 454 q 525 639 581 599 q 388 679 469 679 q 249 639 306 679 q 163 526 192 599 q 133 357 133 453 q 163 189 133 261 q 249 77 192 117 q 389 38 306 38 m 558 926 l 218 926 l 218 978 l 558 978 l 558 926 z "},"ǫ":{"ha":771,"x_min":76,"x_max":694,"o":"m 473 -3 q 374 -63 405 -35 q 343 -128 343 -91 q 361 -170 343 -156 q 421 -185 380 -185 q 479 -178 451 -185 q 519 -164 507 -171 l 519 -207 q 471 -223 502 -216 q 407 -231 440 -231 q 314 -202 345 -231 q 283 -125 283 -173 q 302 -62 283 -90 q 365 -13 321 -35 q 208 39 273 -8 q 110 167 144 86 q 76 354 76 249 q 113 551 76 465 q 220 684 150 636 q 388 732 290 732 q 553 684 483 732 q 658 552 622 637 q 694 357 694 467 q 669 190 694 265 q 593 66 643 115 q 473 -3 543 16 m 133 357 q 163 189 133 261 q 249 77 192 117 q 389 38 306 38 q 574 123 511 38 q 638 357 638 209 q 609 527 638 454 q 525 639 581 599 q 388 679 469 679 q 249 639 306 679 q 163 526 192 599 q 133 357 133 453 z "},"ø":{"ha":778,"x_min":21,"x_max":757,"o":"m 643 570 q 688 357 688 480 q 651 163 688 247 q 545 33 615 79 q 379 -14 476 -14 q 249 12 306 -14 q 151 86 191 38 l 58 -6 l 21 33 l 120 131 q 69 354 69 223 q 106 551 69 465 q 213 684 143 636 q 381 732 283 732 q 515 702 456 732 q 615 617 574 673 l 719 721 l 757 682 l 643 570 m 126 357 q 163 173 126 251 l 576 579 q 495 653 544 628 q 381 679 446 679 q 242 639 299 679 q 156 526 185 599 q 126 357 126 453 m 631 357 q 601 529 631 456 l 192 126 q 272 60 224 83 q 382 38 320 38 q 567 123 504 38 q 631 357 631 209 z "},"ǿ":{"ha":778,"x_min":21,"x_max":757,"o":"m 643 570 q 688 357 688 480 q 651 163 688 247 q 545 33 615 79 q 379 -14 476 -14 q 249 12 306 -14 q 151 86 191 38 l 58 -6 l 21 33 l 120 131 q 69 354 69 223 q 106 551 69 465 q 213 684 143 636 q 381 732 283 732 q 515 702 456 732 q 615 617 574 673 l 719 721 l 757 682 l 643 570 m 126 357 q 163 173 126 251 l 576 579 q 495 653 544 628 q 381 679 446 679 q 242 639 299 679 q 156 526 185 599 q 126 357 126 453 m 631 357 q 601 529 631 456 l 192 126 q 272 60 224 83 q 382 38 320 38 q 567 123 504 38 q 631 357 631 209 m 563 953 l 231 844 l 217 888 l 543 1015 l 563 953 z "},"õ":{"ha":771,"x_min":76,"x_max":694,"o":"m 386 -14 q 218 32 288 -14 q 113 161 149 78 q 76 354 76 244 q 113 551 76 465 q 220 684 150 636 q 388 732 290 732 q 553 684 483 732 q 658 552 622 637 q 694 357 694 467 q 658 163 694 247 q 552 33 622 79 q 386 -14 483 -14 m 389 38 q 574 123 511 38 q 638 357 638 209 q 609 527 638 454 q 525 639 581 599 q 388 679 469 679 q 249 639 306 679 q 163 526 192 599 q 133 357 133 453 q 163 189 133 261 q 249 77 192 117 q 389 38 306 38 m 568 943 q 524 919 544 928 q 468 911 503 911 q 425 916 443 911 q 381 929 407 920 q 345 941 358 938 q 314 944 331 944 q 274 938 290 944 q 240 919 258 931 q 228 911 229 912 l 211 950 q 258 980 236 970 q 308 990 279 990 q 347 986 328 990 q 389 973 365 981 q 433 960 415 964 q 469 956 450 956 q 509 962 493 956 q 549 985 526 969 l 568 943 z "},"œ":{"ha":1390,"x_min":76,"x_max":1314,"o":"m 406 -14 q 232 32 307 -14 q 117 161 158 78 q 76 354 76 244 q 118 551 76 466 q 234 684 159 637 q 407 732 309 732 q 582 682 506 732 q 696 544 657 633 q 706 535 701 535 q 714 544 710 535 q 827 682 751 632 q 1000 732 903 732 q 1169 685 1099 732 q 1277 552 1240 639 q 1314 344 1314 465 l 733 344 q 770 192 733 263 q 869 81 807 122 q 1004 39 931 39 q 1148 74 1086 39 q 1247 175 1210 108 l 1293 144 q 1004 -14 1197 -14 q 832 33 907 -14 q 715 163 756 79 q 705 175 710 175 q 690 158 698 175 q 575 31 649 76 q 406 -14 501 -14 m 408 39 q 550 78 490 39 q 644 190 611 118 q 678 357 678 262 q 644 524 678 451 q 548 638 610 597 q 407 678 487 678 q 264 638 326 678 q 167 525 201 597 q 133 357 133 452 q 168 191 133 263 q 264 79 202 119 q 408 39 326 39 m 1003 678 q 865 641 926 678 q 770 540 804 605 q 736 394 735 475 l 1258 393 q 1226 538 1258 472 q 1135 640 1194 603 q 1003 678 1077 678 z "},"p":{"ha":799,"x_min":125,"x_max":722,"o":"m 125 718 l 176 718 l 176 611 q 206 647 179 615 q 288 706 232 680 q 413 732 344 732 q 572 691 501 732 q 682 570 642 651 q 722 372 722 489 q 682 170 722 258 q 569 34 642 83 q 397 -14 495 -14 q 179 94 273 -14 l 179 -224 l 125 -224 l 125 718 m 396 38 q 535 77 474 38 q 631 191 596 117 q 665 367 665 266 q 630 540 665 470 q 535 645 594 610 q 406 679 476 679 q 290 650 342 679 q 208 578 238 622 q 179 493 179 535 l 179 140 q 284 64 231 90 q 396 38 336 38 z "},"þ":{"ha":799,"x_min":125,"x_max":722,"o":"m 176 611 q 206 647 179 615 q 288 706 232 680 q 413 732 344 732 q 572 691 501 732 q 682 570 642 651 q 722 372 722 489 q 682 170 722 258 q 569 34 642 83 q 397 -14 495 -14 q 284 6 334 -14 q 197 54 234 25 q 185 61 190 61 q 179 44 179 61 l 179 -224 l 125 -224 l 125 1004 l 176 1004 l 176 611 m 179 140 q 284 64 231 90 q 396 38 336 38 q 535 77 474 38 q 631 191 596 117 q 665 367 665 266 q 630 540 665 470 q 535 645 594 610 q 406 679 476 679 q 290 650 342 679 q 208 578 238 622 q 179 493 179 535 l 179 140 z "},"q":{"ha":799,"x_min":76,"x_max":674,"o":"m 619 -224 l 619 133 q 540 25 597 65 q 401 -14 483 -14 q 229 34 303 -14 q 116 170 156 83 q 76 372 76 258 q 116 570 76 489 q 226 691 156 651 q 385 732 296 732 q 501 710 453 732 q 566 671 549 688 q 622 611 583 655 l 622 718 l 674 718 l 674 -224 l 619 -224 m 403 38 q 523 70 474 38 q 595 153 572 103 q 619 253 619 203 l 619 493 q 590 578 619 534 q 508 650 560 622 q 392 679 456 679 q 262 645 321 679 q 168 540 203 610 q 133 367 133 470 q 168 191 133 266 q 264 77 203 117 q 403 38 325 38 z "},"r":{"ha":497,"x_min":125,"x_max":449,"o":"m 125 718 l 175 718 l 175 611 q 277 698 204 665 q 449 732 350 732 l 449 676 q 248 631 317 677 q 179 500 179 585 l 179 0 l 125 0 l 125 718 z "},"ŕ":{"ha":497,"x_min":103,"x_max":449,"o":"m 125 718 l 175 718 l 175 611 q 277 698 204 665 q 449 732 350 732 l 449 676 q 248 631 317 677 q 179 500 179 585 l 179 0 l 125 0 l 125 718 m 449 953 l 117 844 l 103 888 l 429 1015 l 449 953 z "},"ř":{"ha":497,"x_min":89,"x_max":463,"o":"m 125 718 l 175 718 l 175 611 q 277 698 204 665 q 449 732 350 732 l 449 676 q 248 631 317 677 q 179 500 179 585 l 179 0 l 125 0 l 125 718 m 463 1004 l 300 872 l 256 872 l 89 1004 l 168 1004 l 276 921 l 379 1004 l 463 1004 z "},"ŗ":{"ha":497,"x_min":72,"x_max":449,"o":"m 125 718 l 175 718 l 175 611 q 277 698 204 665 q 449 732 350 732 l 449 676 q 248 631 317 677 q 179 500 179 585 l 179 0 l 125 0 l 125 718 z "},"ȑ":{"ha":497,"x_min":10,"x_max":449,"o":"m 125 718 l 175 718 l 175 611 q 277 698 204 665 q 449 732 350 732 l 449 676 q 248 631 317 677 q 179 500 179 585 l 179 0 l 125 0 l 125 718 m 222 826 l 199 790 l 10 967 l 51 1018 l 222 826 m 413 826 l 388 790 l 200 967 l 242 1018 l 413 826 z "},"ṛ":{"ha":497,"x_min":117,"x_max":449,"o":"m 125 718 l 175 718 l 175 611 q 277 698 204 665 q 449 732 350 732 l 449 676 q 248 631 317 677 q 179 500 179 585 l 179 0 l 125 0 l 125 718 z "},"ȓ":{"ha":497,"x_min":99,"x_max":453,"o":"m 125 718 l 175 718 l 175 611 q 277 698 204 665 q 449 732 350 732 l 449 676 q 248 631 317 677 q 179 500 179 585 l 179 0 l 125 0 l 125 718 m 385 940 q 341 989 367 969 q 272 1008 315 1008 q 218 997 240 1008 q 187 973 196 985 q 164 940 178 962 l 99 940 q 127 999 106 971 q 185 1045 148 1027 q 272 1064 222 1064 q 361 1044 323 1064 q 422 996 399 1024 q 453 940 445 967 l 385 940 z "},"s":{"ha":706,"x_min":90,"x_max":615,"o":"m 365 -14 q 230 10 290 -14 q 134 81 171 34 q 90 192 98 127 l 151 192 q 222 80 166 118 q 365 42 277 42 q 506 80 453 42 q 558 185 558 117 q 528 264 558 233 q 446 311 499 296 l 286 358 q 159 423 202 383 q 117 531 117 463 q 149 643 117 598 q 237 710 181 688 q 364 732 293 732 q 482 710 431 732 q 564 645 534 688 q 597 542 594 602 l 538 542 q 484 640 530 603 q 364 676 439 676 q 275 663 319 676 q 203 617 232 649 q 174 531 174 584 q 205 457 174 484 q 301 413 237 431 l 472 365 q 581 297 546 344 q 615 188 615 249 q 582 78 615 124 q 491 9 548 33 q 365 -14 434 -14 z "},"ś":{"ha":706,"x_min":90,"x_max":615,"o":"m 365 -14 q 230 10 290 -14 q 134 81 171 34 q 90 192 98 127 l 151 192 q 222 80 166 118 q 365 42 277 42 q 506 80 453 42 q 558 185 558 117 q 528 264 558 233 q 446 311 499 296 l 286 358 q 159 423 202 383 q 117 531 117 463 q 149 643 117 598 q 237 710 181 688 q 364 732 293 732 q 482 710 431 732 q 564 645 534 688 q 597 542 594 602 l 538 542 q 484 640 530 603 q 364 676 439 676 q 275 663 319 676 q 203 617 232 649 q 174 531 174 584 q 205 457 174 484 q 301 413 237 431 l 472 365 q 581 297 546 344 q 615 188 615 249 q 582 78 615 124 q 491 9 548 33 q 365 -14 434 -14 m 508 953 l 176 844 l 163 888 l 489 1015 l 508 953 z "},"š":{"ha":706,"x_min":90,"x_max":615,"o":"m 365 -14 q 230 10 290 -14 q 134 81 171 34 q 90 192 98 127 l 151 192 q 222 80 166 118 q 365 42 277 42 q 506 80 453 42 q 558 185 558 117 q 528 264 558 233 q 446 311 499 296 l 286 358 q 159 423 202 383 q 117 531 117 463 q 149 643 117 598 q 237 710 181 688 q 364 732 293 732 q 482 710 431 732 q 564 645 534 688 q 597 542 594 602 l 538 542 q 484 640 530 603 q 364 676 439 676 q 275 663 319 676 q 203 617 232 649 q 174 531 174 584 q 205 457 174 484 q 301 413 237 431 l 472 365 q 581 297 546 344 q 615 188 615 249 q 582 78 615 124 q 491 9 548 33 q 365 -14 434 -14 m 522 1004 l 360 872 l 315 872 l 149 1004 l 228 1004 l 336 921 l 439 1004 l 522 1004 z "},"ş":{"ha":706,"x_min":90,"x_max":615,"o":"m 364 -14 l 338 -79 q 421 -111 396 -84 q 446 -175 446 -137 q 408 -250 446 -224 q 311 -276 369 -276 q 207 -244 251 -276 l 222 -206 q 257 -228 238 -221 q 306 -236 276 -236 q 367 -222 347 -236 q 386 -178 386 -207 q 361 -130 386 -146 q 282 -112 335 -115 q 276 -107 274 -112 l 318 -11 q 161 52 222 -1 q 90 192 101 105 l 151 192 q 222 80 166 118 q 365 42 277 42 q 506 80 453 42 q 558 185 558 117 q 528 264 558 233 q 446 311 499 296 l 286 358 q 159 423 202 383 q 117 531 117 463 q 149 643 117 598 q 237 710 181 688 q 364 732 293 732 q 482 710 431 732 q 564 645 534 688 q 597 542 594 602 l 538 542 q 484 640 530 603 q 364 676 439 676 q 275 663 319 676 q 203 617 232 649 q 174 531 174 584 q 205 457 174 484 q 301 413 237 431 l 472 365 q 581 297 546 344 q 615 188 615 249 q 582 78 615 124 q 491 9 548 33 q 365 -14 434 -14 l 364 -14 z "},"ŝ":{"ha":706,"x_min":90,"x_max":615,"o":"m 365 -14 q 230 10 290 -14 q 134 81 171 34 q 90 192 98 127 l 151 192 q 222 80 166 118 q 365 42 277 42 q 506 80 453 42 q 558 185 558 117 q 528 264 558 233 q 446 311 499 296 l 286 358 q 159 423 202 383 q 117 531 117 463 q 149 643 117 598 q 237 710 181 688 q 364 732 293 732 q 482 710 431 732 q 564 645 534 688 q 597 542 594 602 l 538 542 q 484 640 530 603 q 364 676 439 676 q 275 663 319 676 q 203 617 232 649 q 174 531 174 584 q 205 457 174 484 q 301 413 237 431 l 472 365 q 581 297 546 344 q 615 188 615 249 q 582 78 615 124 q 491 9 548 33 q 365 -14 434 -14 m 336 956 l 228 872 l 150 872 l 315 1004 l 360 1004 l 522 872 l 439 872 l 336 956 z "},"ș":{"ha":706,"x_min":90,"x_max":615,"o":"m 365 -14 q 230 10 290 -14 q 134 81 171 34 q 90 192 98 127 l 151 192 q 222 80 166 118 q 365 42 277 42 q 506 80 453 42 q 558 185 558 117 q 528 264 558 233 q 446 311 499 296 l 286 358 q 159 423 202 383 q 117 531 117 463 q 149 643 117 598 q 237 710 181 688 q 364 732 293 732 q 482 710 431 732 q 564 645 534 688 q 597 542 594 602 l 538 542 q 484 640 530 603 q 364 676 439 676 q 275 663 319 676 q 203 617 232 649 q 174 531 174 584 q 205 457 174 484 q 301 413 237 431 l 472 365 q 581 297 546 344 q 615 188 615 249 q 582 78 615 124 q 491 9 548 33 q 365 -14 434 -14 z "},"ṣ":{"ha":706,"x_min":90,"x_max":615,"o":"m 365 -14 q 230 10 290 -14 q 134 81 171 34 q 90 192 98 127 l 151 192 q 222 80 166 118 q 365 42 277 42 q 506 80 453 42 q 558 185 558 117 q 528 264 558 233 q 446 311 499 296 l 286 358 q 159 423 202 383 q 117 531 117 463 q 149 643 117 598 q 237 710 181 688 q 364 732 293 732 q 482 710 431 732 q 564 645 534 688 q 597 542 594 602 l 538 542 q 484 640 530 603 q 364 676 439 676 q 275 663 319 676 q 203 617 232 649 q 174 531 174 584 q 205 457 174 484 q 301 413 237 431 l 472 365 q 581 297 546 344 q 615 188 615 249 q 582 78 615 124 q 491 9 548 33 q 365 -14 434 -14 z "},"ß":{"ha":804,"x_min":42,"x_max":714,"o":"m 421 1004 q 542 978 496 1004 q 607 911 588 951 q 626 825 626 871 q 608 747 626 778 q 564 697 590 716 q 492 656 538 678 l 474 646 q 404 606 424 619 q 373 577 383 592 q 363 539 363 562 q 372 503 363 516 q 403 480 382 490 q 469 457 424 471 q 589 412 542 433 q 674 342 635 391 q 714 214 714 293 q 680 91 714 142 q 587 13 645 39 q 460 -14 529 -14 q 356 0 411 -14 q 267 36 301 13 l 297 82 q 370 48 337 59 q 450 38 404 38 q 602 83 547 38 q 657 210 657 129 q 629 305 657 268 q 560 362 601 342 q 453 403 518 382 q 376 429 403 417 q 327 467 349 441 q 306 538 306 493 q 320 596 306 571 q 364 643 334 622 q 444 690 393 665 q 461 699 456 696 q 518 732 497 717 q 555 770 540 747 q 569 829 569 794 q 527 920 569 887 q 410 953 485 953 q 256 895 314 953 q 199 725 199 838 l 199 0 l 144 0 l 144 671 l 42 671 l 42 718 l 143 718 q 178 871 143 806 q 276 970 213 935 q 421 1004 339 1004 z "},"t":{"ha":471,"x_min":56,"x_max":401,"o":"m 229 671 l 229 168 q 240 94 229 118 q 273 62 250 70 q 340 54 295 54 l 401 54 l 401 7 q 314 0 379 0 q 229 16 260 0 q 185 67 199 33 q 172 161 172 102 l 172 671 l 56 671 l 56 718 l 172 718 l 186 919 l 229 919 l 229 718 l 394 718 l 394 671 l 229 671 z "},"ŧ":{"ha":458,"x_min":50,"x_max":396,"o":"m 396 54 l 396 7 q 308 0 374 0 q 224 16 254 0 q 180 67 193 33 q 167 161 167 102 l 167 379 l 63 379 l 63 426 l 167 426 l 167 671 l 50 671 l 50 718 l 167 718 l 181 919 l 224 919 l 224 718 l 389 718 l 389 671 l 224 671 l 224 426 l 372 426 l 372 379 l 224 379 l 224 168 q 234 94 224 118 q 267 62 244 70 q 335 54 290 54 l 396 54 z "},"ť":{"ha":471,"x_min":56,"x_max":482,"o":"m 229 671 l 229 168 q 240 94 229 118 q 273 62 250 70 q 340 54 295 54 l 401 54 l 401 7 q 314 0 379 0 q 229 16 260 0 q 185 67 199 33 q 172 161 172 102 l 172 671 l 56 671 l 56 718 l 172 718 l 186 919 l 229 919 l 229 718 l 394 718 l 394 671 l 229 671 m 435 901 l 408 907 l 408 1022 l 482 1022 l 482 901 l 432 786 l 386 786 l 435 901 z "},"ţ":{"ha":471,"x_min":56,"x_max":401,"o":"m 301 0 l 269 -79 q 353 -111 328 -84 q 378 -175 378 -137 q 340 -250 378 -224 q 243 -276 301 -276 q 139 -244 183 -276 l 154 -206 q 189 -228 170 -221 q 238 -236 208 -236 q 299 -222 279 -236 q 318 -178 318 -207 q 293 -130 318 -146 q 214 -112 267 -115 q 208 -107 206 -112 l 258 6 q 192 53 211 17 q 172 161 172 90 l 172 671 l 56 671 l 56 718 l 172 718 l 186 919 l 229 919 l 229 718 l 394 718 l 394 671 l 229 671 l 229 168 q 240 94 229 118 q 273 62 250 70 q 340 54 295 54 l 401 54 l 401 7 q 314 0 379 0 l 301 0 z "},"ț":{"ha":471,"x_min":56,"x_max":401,"o":"m 229 671 l 229 168 q 240 94 229 118 q 273 62 250 70 q 340 54 295 54 l 401 54 l 401 7 q 314 0 379 0 q 229 16 260 0 q 185 67 199 33 q 172 161 172 102 l 172 671 l 56 671 l 56 718 l 172 718 l 186 919 l 229 919 l 229 718 l 394 718 l 394 671 l 229 671 z "},"ṭ":{"ha":471,"x_min":56,"x_max":401,"o":"m 229 671 l 229 168 q 240 94 229 118 q 273 62 250 70 q 340 54 295 54 l 401 54 l 401 7 q 314 0 379 0 q 229 16 260 0 q 185 67 199 33 q 172 161 172 102 l 172 671 l 56 671 l 56 718 l 172 718 l 186 919 l 229 919 l 229 718 l 394 718 l 394 671 l 229 671 z "},"u":{"ha":793,"x_min":125,"x_max":668,"o":"m 399 -12 q 270 12 332 -12 q 166 94 208 37 q 125 242 125 151 l 125 721 l 179 721 l 179 242 q 212 123 179 168 q 293 59 245 78 q 392 40 342 40 q 501 64 450 40 q 583 135 551 87 q 614 253 614 183 l 614 721 l 668 721 l 668 1 l 618 1 l 614 133 q 570 58 601 91 q 495 6 540 24 q 399 -12 451 -12 z "},"ú":{"ha":793,"x_min":125,"x_max":668,"o":"m 399 -12 q 270 12 332 -12 q 166 94 208 37 q 125 242 125 151 l 125 721 l 179 721 l 179 242 q 212 123 179 168 q 293 59 245 78 q 392 40 342 40 q 501 64 450 40 q 583 135 551 87 q 614 253 614 183 l 614 721 l 668 721 l 668 1 l 618 1 l 614 133 q 570 58 601 91 q 495 6 540 24 q 399 -12 451 -12 m 568 953 l 236 844 l 222 888 l 549 1015 l 568 953 z "},"ŭ":{"ha":793,"x_min":125,"x_max":668,"o":"m 399 -12 q 270 12 332 -12 q 166 94 208 37 q 125 242 125 151 l 125 721 l 179 721 l 179 242 q 212 123 179 168 q 293 59 245 78 q 392 40 342 40 q 501 64 450 40 q 583 135 551 87 q 614 253 614 183 l 614 721 l 668 721 l 668 1 l 618 1 l 614 133 q 570 58 601 91 q 495 6 540 24 q 399 -12 451 -12 m 581 1001 q 550 946 573 974 q 489 898 527 917 q 400 878 451 878 q 313 896 350 878 q 255 943 276 915 q 226 1001 233 971 l 292 1001 q 305 980 293 999 q 342 947 317 960 q 400 933 367 933 q 468 953 442 933 q 513 1001 494 973 l 581 1001 z "},"û":{"ha":793,"x_min":125,"x_max":668,"o":"m 399 -12 q 270 12 332 -12 q 166 94 208 37 q 125 242 125 151 l 125 721 l 179 721 l 179 242 q 212 123 179 168 q 293 59 245 78 q 392 40 342 40 q 501 64 450 40 q 583 135 551 87 q 614 253 614 183 l 614 721 l 668 721 l 668 1 l 618 1 l 614 133 q 570 58 601 91 q 495 6 540 24 q 399 -12 451 -12 m 396 956 l 288 872 l 210 872 l 375 1004 l 419 1004 l 582 872 l 499 872 l 396 956 z "},"ȕ":{"ha":793,"x_min":125,"x_max":668,"o":"m 399 -12 q 270 12 332 -12 q 166 94 208 37 q 125 242 125 151 l 125 721 l 179 721 l 179 242 q 212 123 179 168 q 293 59 245 78 q 392 40 342 40 q 501 64 450 40 q 583 135 551 87 q 614 253 614 183 l 614 721 l 668 721 l 668 1 l 618 1 l 614 133 q 570 58 601 91 q 495 6 540 24 q 399 -12 451 -12 m 342 826 l 318 790 l 129 967 l 171 1018 l 342 826 m 532 826 l 507 790 l 319 967 l 361 1018 l 532 826 z "},"ü":{"ha":793,"x_min":125,"x_max":668,"o":"m 399 -12 q 270 12 332 -12 q 166 94 208 37 q 125 242 125 151 l 125 721 l 179 721 l 179 242 q 212 123 179 168 q 293 59 245 78 q 392 40 342 40 q 501 64 450 40 q 583 135 551 87 q 614 253 614 183 l 614 721 l 668 721 l 668 1 l 618 1 l 614 133 q 570 58 601 91 q 495 6 540 24 q 399 -12 451 -12 m 274 982 l 340 982 l 340 899 l 274 899 l 274 982 m 449 982 l 515 982 l 515 899 l 449 899 l 449 982 z "},"ụ":{"ha":793,"x_min":125,"x_max":668,"o":"m 399 -12 q 270 12 332 -12 q 166 94 208 37 q 125 242 125 151 l 125 721 l 179 721 l 179 242 q 212 123 179 168 q 293 59 245 78 q 392 40 342 40 q 501 64 450 40 q 583 135 551 87 q 614 253 614 183 l 614 721 l 668 721 l 668 1 l 618 1 l 614 133 q 570 58 601 91 q 495 6 540 24 q 399 -12 451 -12 z "},"ù":{"ha":793,"x_min":125,"x_max":668,"o":"m 399 -12 q 270 12 332 -12 q 166 94 208 37 q 125 242 125 151 l 125 721 l 179 721 l 179 242 q 212 123 179 168 q 293 59 245 78 q 392 40 342 40 q 501 64 450 40 q 583 135 551 87 q 614 253 614 183 l 614 721 l 668 721 l 668 1 l 618 1 l 614 133 q 570 58 601 91 q 495 6 540 24 q 399 -12 451 -12 m 544 888 l 531 844 l 199 953 l 218 1015 l 544 888 z "},"ủ":{"ha":793,"x_min":125,"x_max":668,"o":"m 399 -12 q 270 12 332 -12 q 166 94 208 37 q 125 242 125 151 l 125 721 l 179 721 l 179 242 q 212 123 179 168 q 293 59 245 78 q 392 40 342 40 q 501 64 450 40 q 583 135 551 87 q 614 253 614 183 l 614 721 l 668 721 l 668 1 l 618 1 l 614 133 q 570 58 601 91 q 495 6 540 24 q 399 -12 451 -12 m 331 953 q 396 976 365 976 q 440 953 426 976 q 447 929 447 942 q 433 890 447 910 q 393 854 418 870 l 421 813 q 480 865 458 836 q 501 926 501 894 q 482 982 501 954 q 445 1015 467 1003 q 396 1026 423 1026 q 303 996 350 1026 l 331 953 z "},"ư":{"ha":922,"x_min":125,"x_max":825,"o":"m 825 774 q 786 635 825 681 q 668 593 747 590 l 668 1 l 618 1 l 614 133 q 570 58 601 91 q 495 6 540 24 q 399 -12 451 -12 q 270 12 332 -12 q 166 94 208 37 q 125 242 125 151 l 125 721 l 179 721 l 179 242 q 212 123 179 168 q 293 59 245 78 q 392 40 342 40 q 501 64 450 40 q 583 135 551 87 q 614 253 614 183 l 614 721 l 668 721 l 668 651 q 718 665 700 653 q 744 701 735 676 q 754 774 753 727 l 825 774 z "},"ứ":{"ha":922,"x_min":125,"x_max":825,"o":"m 236 844 l 222 888 l 549 1015 l 568 953 l 236 844 m 825 774 q 786 635 825 681 q 668 593 747 590 l 668 1 l 618 1 l 614 133 q 570 58 601 91 q 495 6 540 24 q 399 -12 451 -12 q 270 12 332 -12 q 166 94 208 37 q 125 242 125 151 l 125 721 l 179 721 l 179 242 q 212 123 179 168 q 293 59 245 78 q 392 40 342 40 q 501 64 450 40 q 583 135 551 87 q 614 253 614 183 l 614 721 l 668 721 l 668 651 q 718 665 700 653 q 744 701 735 676 q 754 774 753 727 l 825 774 z "},"ự":{"ha":922,"x_min":125,"x_max":825,"o":"m 825 774 q 786 635 825 681 q 668 593 747 590 l 668 1 l 618 1 l 614 133 q 570 58 601 91 q 495 6 540 24 q 399 -12 451 -12 q 270 12 332 -12 q 166 94 208 37 q 125 242 125 151 l 125 721 l 179 721 l 179 242 q 212 123 179 168 q 293 59 245 78 q 392 40 342 40 q 501 64 450 40 q 583 135 551 87 q 614 253 614 183 l 614 721 l 668 721 l 668 651 q 718 665 700 653 q 744 701 735 676 q 754 774 753 727 l 825 774 m 360 -133 l 426 -133 l 426 -217 l 360 -217 l 360 -133 z "},"ừ":{"ha":922,"x_min":125,"x_max":825,"o":"m 531 844 l 199 953 l 218 1015 l 544 888 l 531 844 m 825 774 q 786 635 825 681 q 668 593 747 590 l 668 1 l 618 1 l 614 133 q 570 58 601 91 q 495 6 540 24 q 399 -12 451 -12 q 270 12 332 -12 q 166 94 208 37 q 125 242 125 151 l 125 721 l 179 721 l 179 242 q 212 123 179 168 q 293 59 245 78 q 392 40 342 40 q 501 64 450 40 q 583 135 551 87 q 614 253 614 183 l 614 721 l 668 721 l 668 651 q 718 665 700 653 q 744 701 735 676 q 754 774 753 727 l 825 774 z "},"ử":{"ha":922,"x_min":125,"x_max":825,"o":"m 440 953 q 396 976 426 976 q 331 953 365 976 l 303 996 q 396 1026 350 1026 q 445 1015 423 1026 q 482 982 467 1003 q 501 926 501 954 q 480 865 501 894 q 421 813 458 836 l 393 854 q 433 890 418 870 q 447 929 447 910 q 440 953 447 942 m 825 774 q 786 635 825 681 q 668 593 747 590 l 668 1 l 618 1 l 614 133 q 570 58 601 91 q 495 6 540 24 q 399 -12 451 -12 q 270 12 332 -12 q 166 94 208 37 q 125 242 125 151 l 125 721 l 179 721 l 179 242 q 212 123 179 168 q 293 59 245 78 q 392 40 342 40 q 501 64 450 40 q 583 135 551 87 q 614 253 614 183 l 614 721 l 668 721 l 668 651 q 718 665 700 653 q 744 701 735 676 q 754 774 753 727 l 825 774 z "},"ữ":{"ha":922,"x_min":125,"x_max":825,"o":"m 321 944 q 281 938 297 944 q 247 919 265 931 q 235 911 236 912 l 218 950 q 265 980 243 970 q 315 990 286 990 q 354 986 335 990 q 396 973 373 981 q 441 960 424 964 q 476 956 457 956 q 516 962 500 956 q 556 985 533 969 l 575 943 q 531 919 551 928 q 475 911 510 911 q 432 916 450 911 q 388 929 414 920 q 352 941 365 938 q 321 944 338 944 m 825 774 q 786 635 825 681 q 668 593 747 590 l 668 1 l 618 1 l 614 133 q 570 58 601 91 q 495 6 540 24 q 399 -12 451 -12 q 270 12 332 -12 q 166 94 208 37 q 125 242 125 151 l 125 721 l 179 721 l 179 242 q 212 123 179 168 q 293 59 245 78 q 392 40 342 40 q 501 64 450 40 q 583 135 551 87 q 614 253 614 183 l 614 721 l 668 721 l 668 651 q 718 665 700 653 q 744 701 735 676 q 754 774 753 727 l 825 774 z "},"ű":{"ha":793,"x_min":125,"x_max":668,"o":"m 399 -12 q 270 12 332 -12 q 166 94 208 37 q 125 242 125 151 l 125 721 l 179 721 l 179 242 q 212 123 179 168 q 293 59 245 78 q 392 40 342 40 q 501 64 450 40 q 583 135 551 87 q 614 253 614 183 l 614 721 l 668 721 l 668 1 l 618 1 l 614 133 q 570 58 601 91 q 495 6 540 24 q 399 -12 451 -12 m 472 967 l 285 790 l 260 826 l 431 1018 l 472 967 m 664 967 l 475 789 l 451 826 l 621 1018 l 664 967 z "},"ȗ":{"ha":793,"x_min":125,"x_max":668,"o":"m 399 -12 q 270 12 332 -12 q 166 94 208 37 q 125 242 125 151 l 125 721 l 179 721 l 179 242 q 212 123 179 168 q 293 59 245 78 q 392 40 342 40 q 501 64 450 40 q 583 135 551 87 q 614 253 614 183 l 614 721 l 668 721 l 668 1 l 618 1 l 614 133 q 570 58 601 91 q 495 6 540 24 q 399 -12 451 -12 m 504 940 q 460 989 486 969 q 392 1008 434 1008 q 337 997 359 1008 q 306 973 315 985 q 283 940 297 962 l 218 940 q 246 999 225 971 q 305 1045 267 1027 q 392 1064 342 1064 q 481 1044 442 1064 q 542 996 519 1024 q 572 940 565 967 l 504 940 z "},"ū":{"ha":793,"x_min":125,"x_max":668,"o":"m 399 -12 q 270 12 332 -12 q 166 94 208 37 q 125 242 125 151 l 125 721 l 179 721 l 179 242 q 212 123 179 168 q 293 59 245 78 q 392 40 342 40 q 501 64 450 40 q 583 135 551 87 q 614 253 614 183 l 614 721 l 668 721 l 668 1 l 618 1 l 614 133 q 570 58 601 91 q 495 6 540 24 q 399 -12 451 -12 m 565 926 l 225 926 l 225 978 l 565 978 l 565 926 z "},"ų":{"ha":793,"x_min":125,"x_max":703,"o":"m 604 -183 q 663 -176 635 -183 q 703 -162 690 -169 l 703 -206 q 654 -222 685 -215 q 590 -229 623 -229 q 498 -200 528 -229 q 467 -124 467 -172 q 501 -43 467 -76 q 617 14 535 -10 l 617 14 l 614 133 q 570 58 601 91 q 495 6 540 24 q 399 -12 451 -12 q 270 12 332 -12 q 166 94 208 37 q 125 242 125 151 l 125 721 l 179 721 l 179 242 q 212 123 179 168 q 293 59 245 78 q 392 40 342 40 q 501 64 450 40 q 583 135 551 87 q 614 253 614 183 l 614 721 l 668 721 l 668 1 l 663 1 q 558 -60 590 -32 q 526 -126 526 -89 q 545 -169 526 -155 q 604 -183 563 -183 z "},"ů":{"ha":793,"x_min":125,"x_max":668,"o":"m 399 -12 q 270 12 332 -12 q 166 94 208 37 q 125 242 125 151 l 125 721 l 179 721 l 179 242 q 212 123 179 168 q 293 59 245 78 q 392 40 342 40 q 501 64 450 40 q 583 135 551 87 q 614 253 614 183 l 614 721 l 668 721 l 668 1 l 618 1 l 614 133 q 570 58 601 91 q 495 6 540 24 q 399 -12 451 -12 m 532 949 q 514 880 532 911 q 465 832 496 849 q 396 814 433 814 q 328 832 359 814 q 279 882 297 850 q 261 951 261 913 q 280 1017 261 987 q 329 1064 298 1047 q 396 1082 360 1082 q 465 1064 433 1082 q 514 1016 496 1047 q 532 949 532 985 m 474 949 q 451 1006 474 983 q 394 1028 428 1028 q 339 1006 363 1028 q 315 949 315 983 q 326 909 315 928 q 356 879 338 890 q 394 868 374 868 q 450 892 427 868 q 474 949 474 916 z "},"ũ":{"ha":793,"x_min":125,"x_max":668,"o":"m 399 -12 q 270 12 332 -12 q 166 94 208 37 q 125 242 125 151 l 125 721 l 179 721 l 179 242 q 212 123 179 168 q 293 59 245 78 q 392 40 342 40 q 501 64 450 40 q 583 135 551 87 q 614 253 614 183 l 614 721 l 668 721 l 668 1 l 618 1 l 614 133 q 570 58 601 91 q 495 6 540 24 q 399 -12 451 -12 m 575 943 q 531 919 551 928 q 475 911 510 911 q 432 916 450 911 q 388 929 414 920 q 352 941 365 938 q 321 944 338 944 q 281 938 297 944 q 247 919 265 931 q 235 911 236 912 l 218 950 q 265 980 243 970 q 315 990 286 990 q 353 986 335 990 q 396 973 372 981 q 440 960 422 964 q 476 956 457 956 q 516 962 500 956 q 556 985 533 969 l 575 943 z "},"v":{"ha":694,"x_min":56,"x_max":639,"o":"m 392 0 l 304 0 l 56 718 l 114 718 l 338 61 l 356 61 l 585 718 l 639 718 l 392 0 z "},"w":{"ha":1078,"x_min":56,"x_max":1022,"o":"m 824 0 l 732 0 l 539 625 l 361 0 l 267 0 l 56 718 l 114 718 l 306 60 l 322 60 l 514 718 l 564 718 l 767 63 l 783 63 l 965 718 l 1022 718 l 824 0 z "},"ẃ":{"ha":1078,"x_min":56,"x_max":1022,"o":"m 824 0 l 732 0 l 539 625 l 361 0 l 267 0 l 56 718 l 114 718 l 306 60 l 322 60 l 514 718 l 564 718 l 767 63 l 783 63 l 965 718 l 1022 718 l 824 0 m 717 953 l 385 844 l 371 888 l 697 1015 l 717 953 z "},"ŵ":{"ha":1078,"x_min":56,"x_max":1022,"o":"m 824 0 l 732 0 l 539 625 l 361 0 l 267 0 l 56 718 l 114 718 l 306 60 l 322 60 l 514 718 l 564 718 l 767 63 l 783 63 l 965 718 l 1022 718 l 824 0 m 544 956 l 436 872 l 358 872 l 524 1004 l 568 1004 l 731 872 l 647 872 l 544 956 z "},"ẅ":{"ha":1078,"x_min":56,"x_max":1022,"o":"m 824 0 l 732 0 l 539 625 l 361 0 l 267 0 l 56 718 l 114 718 l 306 60 l 322 60 l 514 718 l 564 718 l 767 63 l 783 63 l 965 718 l 1022 718 l 824 0 m 422 982 l 489 982 l 489 899 l 422 899 l 422 982 m 597 982 l 664 982 l 664 899 l 597 899 l 597 982 z "},"ẁ":{"ha":1078,"x_min":56,"x_max":1022,"o":"m 824 0 l 732 0 l 539 625 l 361 0 l 267 0 l 56 718 l 114 718 l 306 60 l 322 60 l 514 718 l 564 718 l 767 63 l 783 63 l 965 718 l 1022 718 l 824 0 m 693 888 l 679 844 l 347 953 l 367 1015 l 693 888 z "},"x":{"ha":751,"x_min":63,"x_max":689,"o":"m 621 0 l 375 329 l 131 0 l 63 0 l 340 372 l 83 718 l 151 718 l 375 415 l 600 718 l 668 718 l 411 372 l 689 0 l 621 0 z "},"y":{"ha":721,"x_min":56,"x_max":665,"o":"m 164 -229 q 108 -226 130 -229 q 78 -218 86 -223 l 78 -181 l 154 -181 q 249 -157 216 -181 q 300 -92 283 -134 l 336 4 l 56 718 l 114 718 l 365 78 l 613 718 l 665 718 l 351 -104 q 278 -199 325 -169 q 164 -229 231 -229 z "},"ý":{"ha":721,"x_min":56,"x_max":665,"o":"m 164 -229 q 108 -226 130 -229 q 78 -218 86 -223 l 78 -181 l 154 -181 q 249 -157 216 -181 q 300 -92 283 -134 l 336 4 l 56 718 l 114 718 l 365 78 l 613 718 l 665 718 l 351 -104 q 278 -199 325 -169 q 164 -229 231 -229 m 536 953 l 204 844 l 190 888 l 517 1015 l 536 953 z "},"ŷ":{"ha":721,"x_min":56,"x_max":665,"o":"m 164 -229 q 108 -226 130 -229 q 78 -218 86 -223 l 78 -181 l 154 -181 q 249 -157 216 -181 q 300 -92 283 -134 l 336 4 l 56 718 l 114 718 l 365 78 l 613 718 l 665 718 l 351 -104 q 278 -199 325 -169 q 164 -229 231 -229 m 364 956 l 256 872 l 178 872 l 343 1004 l 388 1004 l 550 872 l 467 872 l 364 956 z "},"ÿ":{"ha":721,"x_min":56,"x_max":665,"o":"m 164 -229 q 108 -226 130 -229 q 78 -218 86 -223 l 78 -181 l 154 -181 q 249 -157 216 -181 q 300 -92 283 -134 l 336 4 l 56 718 l 114 718 l 365 78 l 613 718 l 665 718 l 351 -104 q 278 -199 325 -169 q 164 -229 231 -229 m 242 982 l 308 982 l 308 899 l 242 899 l 242 982 m 417 982 l 483 982 l 483 899 l 417 899 l 417 982 z "},"ỵ":{"ha":721,"x_min":56,"x_max":665,"o":"m 164 -229 q 108 -226 130 -229 q 78 -218 86 -223 l 78 -181 l 154 -181 q 249 -157 216 -181 q 300 -92 283 -134 l 336 4 l 56 718 l 114 718 l 365 78 l 613 718 l 665 718 l 351 -104 q 278 -199 325 -169 q 164 -229 231 -229 z "},"ỳ":{"ha":721,"x_min":56,"x_max":665,"o":"m 164 -229 q 108 -226 130 -229 q 78 -218 86 -223 l 78 -181 l 154 -181 q 249 -157 216 -181 q 300 -92 283 -134 l 336 4 l 56 718 l 114 718 l 365 78 l 613 718 l 665 718 l 351 -104 q 278 -199 325 -169 q 164 -229 231 -229 m 513 888 l 499 844 l 167 953 l 186 1015 l 513 888 z "},"ỷ":{"ha":721,"x_min":56,"x_max":665,"o":"m 164 -229 q 108 -226 130 -229 q 78 -218 86 -223 l 78 -181 l 154 -181 q 249 -157 216 -181 q 300 -92 283 -134 l 336 4 l 56 718 l 114 718 l 365 78 l 613 718 l 665 718 l 351 -104 q 278 -199 325 -169 q 164 -229 231 -229 m 299 953 q 364 976 333 976 q 408 953 394 976 q 415 929 415 942 q 401 890 415 910 q 361 854 386 870 l 389 813 q 448 865 426 836 q 469 926 469 894 q 450 982 469 954 q 413 1015 435 1003 q 364 1026 391 1026 q 271 996 318 1026 l 299 953 z "},"ỹ":{"ha":721,"x_min":56,"x_max":665,"o":"m 164 -229 q 108 -226 130 -229 q 78 -218 86 -223 l 78 -181 l 154 -181 q 249 -157 216 -181 q 300 -92 283 -134 l 336 4 l 56 718 l 114 718 l 365 78 l 613 718 l 665 718 l 351 -104 q 278 -199 325 -169 q 164 -229 231 -229 m 543 943 q 499 919 519 928 q 443 911 478 911 q 400 916 418 911 q 356 929 382 920 q 320 941 333 938 q 289 944 306 944 q 249 938 265 944 q 215 919 233 931 q 203 911 204 912 l 186 950 q 233 980 211 970 q 283 990 254 990 q 322 986 303 990 q 364 973 340 981 q 408 960 390 964 q 444 956 425 956 q 484 962 468 956 q 524 985 501 969 l 543 943 z "},"z":{"ha":675,"x_min":76,"x_max":599,"o":"m 76 53 l 529 671 l 106 671 l 106 718 l 589 718 l 589 661 l 139 47 l 599 47 l 599 0 l 76 0 l 76 53 z "},"ź":{"ha":675,"x_min":76,"x_max":599,"o":"m 76 53 l 529 671 l 106 671 l 106 718 l 589 718 l 589 661 l 139 47 l 599 47 l 599 0 l 76 0 l 76 53 m 519 953 l 188 844 l 174 888 l 500 1015 l 519 953 z "},"ž":{"ha":675,"x_min":76,"x_max":599,"o":"m 76 53 l 529 671 l 106 671 l 106 718 l 589 718 l 589 661 l 139 47 l 599 47 l 599 0 l 76 0 l 76 53 m 533 1004 l 371 872 l 326 872 l 160 1004 l 239 1004 l 347 921 l 450 1004 l 533 1004 z "},"ż":{"ha":675,"x_min":76,"x_max":599,"o":"m 76 53 l 529 671 l 106 671 l 106 718 l 589 718 l 589 661 l 139 47 l 599 47 l 599 0 l 76 0 l 76 53 m 314 956 l 381 956 l 381 872 l 314 872 l 314 956 z "},"ẓ":{"ha":675,"x_min":76,"x_max":599,"o":"m 76 53 l 529 671 l 106 671 l 106 718 l 589 718 l 589 661 l 139 47 l 599 47 l 599 0 l 76 0 l 76 53 z "},"ﬁ":{"ha":892,"x_min":56,"x_max":753,"o":"m 478 671 l 281 671 l 281 0 l 226 0 l 226 671 l 56 671 l 56 718 l 226 718 l 226 838 q 263 963 226 922 q 379 1004 299 1004 l 485 1004 l 485 957 l 365 957 q 299 931 317 957 q 281 849 281 904 l 281 718 l 478 718 l 478 671 m 753 899 l 686 899 l 686 982 l 753 982 l 753 899 m 747 0 l 693 0 l 693 718 l 747 718 l 747 0 z "},"ﬂ":{"ha":921,"x_min":56,"x_max":858,"o":"m 478 671 l 281 671 l 281 0 l 226 0 l 226 671 l 56 671 l 56 718 l 226 718 l 226 838 q 263 963 226 922 q 379 1004 299 1004 l 485 1004 l 485 957 l 365 957 q 299 931 317 957 q 281 849 281 904 l 281 718 l 478 718 l 478 671 m 813 -6 q 712 42 744 -6 q 679 168 679 89 l 679 1032 l 733 1032 l 733 168 q 757 72 733 103 q 814 40 781 40 l 858 40 l 858 0 q 813 -6 836 -6 z "},"ª":{"ha":564,"x_min":76,"x_max":453,"o":"m 228 549 q 117 581 157 549 q 76 672 76 614 q 131 773 76 736 q 292 819 185 809 l 390 829 l 390 864 q 265 968 390 968 q 189 952 220 968 q 131 894 158 936 l 88 913 q 160 987 112 960 q 271 1014 208 1014 q 395 972 351 1014 q 439 858 439 931 l 439 706 q 444 615 439 662 l 453 557 l 400 557 l 389 626 q 314 567 351 585 q 228 549 276 549 m 239 592 q 298 602 271 592 q 349 635 324 613 q 380 670 369 653 q 390 706 390 688 l 390 786 l 308 779 q 129 674 129 765 q 159 614 129 636 q 239 592 190 592 z "},"º":{"ha":568,"x_min":76,"x_max":492,"o":"m 283 1017 q 394 988 347 1017 q 466 905 441 958 q 492 782 492 852 q 467 662 492 714 q 396 581 443 610 q 283 551 349 551 q 171 581 217 551 q 100 662 124 610 q 76 782 76 714 q 101 905 76 852 q 173 988 126 958 q 283 1017 220 1017 m 283 969 q 171 919 210 969 q 132 786 132 869 q 171 647 132 698 q 283 596 210 596 q 397 647 357 596 q 436 786 436 698 q 397 919 436 869 q 283 969 357 969 z "},"π":{"ha":893,"x_min":42,"x_max":851,"o":"m 669 671 l 669 0 l 615 0 l 614 671 l 243 671 q 219 287 243 471 q 161 0 196 103 l 115 0 q 171 300 149 127 q 193 657 193 472 q 190 667 193 663 q 182 671 187 671 l 42 671 l 42 718 l 851 718 l 851 671 l 669 671 z "},"⁰":{"ha":553,"x_min":20,"x_max":434,"o":"m 227 1172 q 336 1136 290 1172 q 408 1027 383 1100 q 434 847 434 954 q 408 667 434 739 q 336 559 383 594 q 226 523 290 523 q 75 604 131 523 q 20 844 20 685 q 46 1026 20 953 q 118 1136 72 1099 q 227 1172 165 1172 m 228 559 q 351 629 309 559 q 393 847 393 699 q 227 1137 393 1137 q 103 1066 147 1137 q 60 847 60 994 q 103 630 60 700 q 228 559 147 559 z "},"¹":{"ha":399,"x_min":8,"x_max":176,"o":"m 139 1060 l 8 1060 l 8 1094 q 96 1100 67 1094 q 135 1120 125 1106 q 146 1160 146 1134 l 176 1160 l 176 528 l 139 528 l 139 1060 z "},"²":{"ha":467,"x_min":34,"x_max":432,"o":"m 50 588 q 74 683 50 643 q 133 749 99 723 q 226 811 167 776 q 313 867 281 844 q 366 925 344 891 q 388 1006 388 960 q 369 1075 388 1045 q 316 1120 350 1104 q 235 1137 281 1137 q 150 1118 186 1137 q 94 1066 114 1099 q 73 991 75 1033 l 34 991 q 61 1083 36 1041 q 131 1149 85 1124 q 239 1174 176 1174 q 336 1152 294 1174 q 402 1093 378 1131 q 425 1005 425 1055 q 401 910 425 950 q 342 843 377 870 q 249 783 307 817 q 163 727 194 751 q 109 669 131 703 q 88 588 88 635 l 88 569 l 432 569 l 432 533 l 50 533 l 50 588 z "},"³":{"ha":533,"x_min":35,"x_max":463,"o":"m 48 991 q 75 1085 48 1044 q 146 1150 101 1127 q 243 1174 190 1174 q 349 1154 303 1174 q 419 1099 394 1135 q 444 1017 444 1064 q 412 930 444 969 q 318 869 379 890 q 426 806 390 849 q 463 703 463 763 q 436 610 463 651 q 359 547 408 569 q 243 524 309 524 q 141 546 188 524 q 66 608 94 568 q 35 701 38 649 l 74 701 q 128 599 83 637 q 244 560 174 560 q 339 578 298 560 q 402 627 380 595 q 425 700 425 659 q 399 781 425 748 q 328 831 373 815 q 228 848 283 848 l 175 848 l 175 883 l 228 883 q 317 902 276 883 q 382 952 358 922 q 406 1017 406 983 q 388 1076 406 1048 q 333 1121 369 1103 q 245 1138 297 1138 q 169 1121 206 1138 q 109 1071 133 1104 q 86 991 86 1038 l 48 991 z "},"⁴":{"ha":557,"x_min":28,"x_max":480,"o":"m 368 1160 l 368 747 l 480 747 l 480 710 l 368 710 l 368 528 l 333 528 l 333 710 l 28 710 l 28 753 l 329 1160 l 368 1160 m 329 747 l 329 1101 l 65 747 l 329 747 z "},"⁵":{"ha":535,"x_min":41,"x_max":479,"o":"m 444 1160 l 444 1124 l 132 1124 l 112 869 q 181 923 139 906 q 276 940 223 940 q 375 916 328 940 q 450 846 422 892 q 479 735 479 800 q 452 622 479 671 q 377 546 426 573 q 266 519 329 519 q 165 541 212 519 q 86 602 119 563 q 41 694 53 642 l 81 694 q 151 591 101 629 q 267 553 200 553 q 393 601 347 553 q 440 734 440 649 q 417 825 440 786 q 357 884 394 864 q 276 905 319 905 q 213 899 240 905 q 161 875 187 893 q 110 823 135 857 l 67 823 l 95 1160 l 444 1160 z "},"⁶":{"ha":496,"x_min":48,"x_max":467,"o":"m 277 1182 q 398 1143 347 1182 q 464 1036 449 1104 l 428 1036 q 374 1117 414 1087 q 277 1148 334 1148 q 133 1073 182 1148 q 83 846 83 998 q 84 807 83 820 q 119 884 93 850 q 183 936 144 917 q 265 955 221 955 q 372 931 326 955 q 442 860 417 906 q 467 749 467 813 q 444 635 467 684 q 375 559 420 586 q 268 533 331 533 q 152 570 202 533 q 75 679 103 608 q 48 851 48 751 q 106 1093 48 1004 q 277 1182 165 1182 m 269 919 q 188 899 226 919 q 126 843 149 878 q 103 764 103 807 q 123 665 102 709 q 182 594 144 620 q 271 569 221 569 q 353 591 317 569 q 408 654 389 613 q 428 747 428 694 q 388 874 428 828 q 269 919 349 919 z "},"⁷":{"ha":492,"x_min":49,"x_max":464,"o":"m 464 1160 l 464 1124 q 349 922 406 1038 q 253 698 293 806 q 201 528 213 590 l 162 528 q 213 698 178 598 q 302 910 249 798 q 419 1124 355 1023 l 49 1124 l 49 1160 l 464 1160 z "},"⁸":{"ha":536,"x_min":34,"x_max":488,"o":"m 260 1177 q 363 1157 317 1177 q 433 1100 408 1138 q 459 1010 459 1062 q 432 924 459 958 q 353 872 404 891 q 418 841 388 865 q 468 781 449 816 q 488 709 488 745 q 460 616 488 656 q 381 555 432 576 q 260 533 329 533 q 141 555 192 533 q 62 617 90 576 q 34 709 34 657 q 53 781 34 745 q 103 841 72 816 q 169 872 135 865 q 90 925 117 891 q 63 1010 63 958 q 88 1100 63 1062 q 159 1157 114 1138 q 260 1177 204 1177 m 260 891 q 378 922 335 891 q 421 1012 421 953 q 377 1107 421 1072 q 260 1142 333 1142 q 177 1126 213 1142 q 121 1081 141 1110 q 101 1012 101 1051 q 144 922 101 953 q 260 891 187 891 m 260 567 q 360 584 317 567 q 426 633 403 601 q 449 706 449 665 q 426 781 449 748 q 359 833 402 814 q 260 851 317 851 q 163 833 205 851 q 97 781 120 814 q 73 706 73 748 q 96 633 73 665 q 162 584 119 601 q 260 567 205 567 z "},"⁹":{"ha":542,"x_min":27,"x_max":451,"o":"m 219 533 q 95 572 149 533 q 27 678 42 610 l 63 678 q 119 598 77 628 q 219 567 161 567 q 366 643 315 567 q 417 871 417 719 q 416 908 417 895 q 381 832 407 865 q 317 779 355 798 q 235 760 279 760 q 129 785 174 760 q 58 855 83 809 q 33 966 33 901 q 57 1080 33 1031 q 125 1155 80 1128 q 232 1182 169 1182 q 347 1145 298 1182 q 424 1036 397 1108 q 451 864 451 964 q 424 689 451 764 q 346 574 398 615 q 219 533 294 533 m 231 796 q 312 816 274 796 q 373 873 350 837 q 397 951 397 908 q 377 1050 397 1006 q 318 1121 356 1095 q 229 1147 279 1147 q 147 1124 183 1147 q 91 1061 111 1101 q 72 968 72 1021 q 111 842 72 888 q 231 796 151 796 z "},"⁄":{"ha":340,"x_min":-194,"x_max":535,"o":"m -140 -6 l -194 -6 l 483 1015 l 535 1015 l -140 -6 z "},"½":{"ha":1282,"x_min":8,"x_max":1199,"o":"m 139 915 l 8 915 l 8 949 q 96 956 67 949 q 135 976 125 962 q 146 1015 146 990 l 176 1015 l 176 383 l 139 383 l 139 915 m 258 -6 l 204 -6 l 882 1015 l 933 1015 l 258 -6 m 817 55 q 841 150 817 110 q 900 216 865 190 q 993 278 934 242 q 1079 334 1047 310 q 1133 392 1111 358 q 1155 473 1155 426 q 1136 541 1155 512 q 1082 587 1117 571 q 1002 603 1048 603 q 917 584 953 603 q 861 532 881 565 q 840 458 842 499 l 801 458 q 827 549 803 508 q 898 616 852 591 q 1006 640 943 640 q 1103 619 1061 640 q 1168 560 1145 598 q 1192 472 1192 522 q 1168 377 1192 417 q 1109 310 1144 337 q 1016 250 1074 283 q 930 194 961 217 q 876 136 898 170 q 854 55 854 101 l 854 36 l 1199 36 l 1199 0 l 817 0 l 817 55 z "},"⅓":{"ha":1272,"x_min":8,"x_max":1202,"o":"m 139 915 l 8 915 l 8 949 q 96 956 67 949 q 135 976 125 962 q 146 1015 146 990 l 176 1015 l 176 383 l 139 383 l 139 915 m 258 -6 l 204 -6 l 882 1015 l 933 1015 l 258 -6 m 787 453 q 814 548 787 506 q 885 613 840 590 q 982 636 929 636 q 1088 617 1042 636 q 1158 562 1133 597 q 1183 480 1183 526 q 1151 392 1183 431 q 1057 331 1118 353 q 1165 268 1128 312 q 1202 165 1202 225 q 1175 73 1202 113 q 1098 9 1147 32 q 982 -13 1048 -13 q 880 9 926 -13 q 805 71 833 31 q 774 164 776 111 l 813 164 q 867 61 822 99 q 983 23 913 23 q 1078 40 1037 23 q 1141 90 1119 58 q 1164 163 1164 122 q 1138 244 1164 210 q 1067 294 1112 277 q 967 310 1022 310 l 914 310 l 914 346 l 967 346 q 1056 365 1015 346 q 1120 415 1097 384 q 1144 480 1144 446 q 1126 538 1144 510 q 1072 583 1108 566 q 984 601 1035 601 q 908 584 945 601 q 848 533 872 567 q 825 453 825 500 l 787 453 z "},"⅔":{"ha":1368,"x_min":34,"x_max":1298,"o":"m 50 442 q 74 537 50 497 q 133 603 99 577 q 226 665 167 630 q 313 722 281 698 q 366 780 344 745 q 388 860 388 814 q 369 929 388 899 q 316 975 350 958 q 235 991 281 991 q 150 972 186 991 q 94 920 114 953 q 73 845 75 887 l 34 845 q 61 937 36 895 q 131 1003 85 978 q 239 1028 176 1028 q 336 1007 294 1028 q 402 947 378 985 q 425 859 425 909 q 401 764 425 804 q 342 698 377 724 q 249 638 307 671 q 163 581 194 605 q 109 523 131 558 q 88 442 88 489 l 88 424 l 432 424 l 432 388 l 50 388 l 50 442 m 354 -6 l 300 -6 l 978 1015 l 1029 1015 l 354 -6 m 883 453 q 909 548 883 506 q 981 613 936 590 q 1078 636 1025 636 q 1184 617 1138 636 q 1254 562 1229 597 q 1279 480 1279 526 q 1247 392 1279 431 q 1153 331 1214 353 q 1261 268 1224 312 q 1298 165 1298 225 q 1270 73 1298 113 q 1193 9 1243 32 q 1078 -13 1144 -13 q 976 9 1022 -13 q 901 71 929 31 q 870 164 872 111 l 908 164 q 963 61 917 99 q 1079 23 1008 23 q 1174 40 1133 23 q 1237 90 1215 58 q 1260 163 1260 122 q 1234 244 1260 210 q 1163 294 1208 277 q 1063 310 1118 310 l 1010 310 l 1010 346 l 1063 346 q 1152 365 1111 346 q 1216 415 1192 384 q 1240 480 1240 446 q 1222 538 1240 510 q 1168 583 1204 566 q 1080 601 1131 601 q 1004 584 1041 601 q 944 533 967 567 q 921 453 921 500 l 883 453 z "},"¼":{"ha":1213,"x_min":8,"x_max":1135,"o":"m 139 915 l 8 915 l 8 949 q 96 956 67 949 q 135 976 125 962 q 146 1015 146 990 l 176 1015 l 176 383 l 139 383 l 139 915 m 258 -6 l 204 -6 l 882 1015 l 933 1015 l 258 -6 m 1024 632 l 1024 219 l 1135 219 l 1135 183 l 1024 183 l 1024 0 l 988 0 l 988 183 l 684 183 l 684 226 l 985 632 l 1024 632 m 985 219 l 985 573 l 721 219 l 985 219 z "},"¾":{"ha":1347,"x_min":35,"x_max":1270,"o":"m 48 845 q 75 940 48 898 q 146 1005 101 981 q 243 1028 190 1028 q 349 1008 303 1028 q 419 953 394 989 q 444 872 444 918 q 412 784 444 823 q 318 723 379 744 q 426 660 390 703 q 463 557 463 617 q 436 464 463 505 q 359 401 408 424 q 243 378 309 378 q 141 400 188 378 q 66 463 94 422 q 35 556 38 503 l 74 556 q 128 453 83 491 q 244 415 174 415 q 339 432 298 415 q 402 481 380 449 q 425 554 425 513 q 399 635 425 602 q 328 685 373 669 q 228 702 283 702 l 175 702 l 175 738 l 228 738 q 317 757 276 738 q 382 807 358 776 q 406 872 406 838 q 388 930 406 902 q 333 975 369 958 q 245 992 297 992 q 169 975 206 992 q 109 925 133 958 q 86 845 86 892 l 48 845 m 393 -6 l 339 -6 l 1017 1015 l 1068 1015 l 393 -6 m 1158 632 l 1158 219 l 1270 219 l 1270 183 l 1158 183 l 1158 0 l 1123 0 l 1123 183 l 819 183 l 819 226 l 1119 632 l 1158 632 m 1119 219 l 1119 573 l 856 219 l 1119 219 z "},"⅛":{"ha":1275,"x_min":8,"x_max":1226,"o":"m 139 915 l 8 915 l 8 949 q 96 956 67 949 q 135 976 125 962 q 146 1015 146 990 l 176 1015 l 176 383 l 139 383 l 139 915 m 258 -6 l 204 -6 l 882 1015 l 933 1015 l 258 -6 m 999 638 q 1101 618 1056 638 q 1172 561 1147 599 q 1198 472 1198 523 q 1170 385 1198 419 q 1092 333 1143 352 q 1157 302 1126 326 q 1207 242 1188 277 q 1226 170 1226 206 q 1199 77 1226 117 q 1119 16 1171 38 q 999 -6 1068 -6 q 880 16 931 -6 q 801 78 828 38 q 773 170 773 118 q 792 242 773 206 q 842 302 811 277 q 908 333 874 326 q 829 386 856 352 q 801 472 801 419 q 827 561 801 523 q 898 618 853 599 q 999 638 943 638 m 999 352 q 1117 383 1074 352 q 1160 473 1160 415 q 1116 568 1160 533 q 999 603 1072 603 q 916 588 952 603 q 860 542 880 572 q 840 473 840 513 q 883 383 840 415 q 999 352 926 352 m 999 28 q 1099 45 1056 28 q 1165 94 1142 63 q 1188 167 1188 126 q 1165 242 1188 209 q 1098 294 1141 275 q 999 313 1056 313 q 901 294 944 313 q 835 242 859 275 q 812 167 812 209 q 835 94 812 126 q 901 45 858 63 q 999 28 944 28 z "},"⅜":{"ha":1410,"x_min":35,"x_max":1361,"o":"m 48 845 q 75 940 48 898 q 146 1005 101 981 q 243 1028 190 1028 q 349 1008 303 1028 q 419 953 394 989 q 444 872 444 918 q 412 784 444 823 q 318 723 379 744 q 426 660 390 703 q 463 557 463 617 q 436 464 463 505 q 359 401 408 424 q 243 378 309 378 q 141 400 188 378 q 66 463 94 422 q 35 556 38 503 l 74 556 q 128 453 83 491 q 244 415 174 415 q 339 432 298 415 q 402 481 380 449 q 425 554 425 513 q 399 635 425 602 q 328 685 373 669 q 228 702 283 702 l 175 702 l 175 738 l 228 738 q 317 757 276 738 q 382 807 358 776 q 406 872 406 838 q 388 930 406 902 q 333 975 369 958 q 245 992 297 992 q 169 975 206 992 q 109 925 133 958 q 86 845 86 892 l 48 845 m 393 -6 l 339 -6 l 1017 1015 l 1068 1015 l 393 -6 m 1134 638 q 1236 618 1191 638 q 1307 561 1281 599 q 1333 472 1333 523 q 1305 385 1333 419 q 1227 333 1278 352 q 1292 302 1261 326 q 1342 242 1323 277 q 1361 170 1361 206 q 1333 77 1361 117 q 1254 16 1306 38 q 1134 -6 1203 -6 q 1015 16 1066 -6 q 935 78 963 38 q 908 170 908 118 q 927 242 908 206 q 977 302 946 277 q 1042 333 1008 326 q 964 386 991 352 q 936 472 936 419 q 962 561 936 523 q 1033 618 988 599 q 1134 638 1078 638 m 1134 352 q 1251 383 1208 352 q 1294 473 1294 415 q 1250 568 1294 533 q 1134 603 1206 603 q 1051 588 1087 603 q 994 542 1015 572 q 974 473 974 513 q 1017 383 974 415 q 1134 352 1060 352 m 1134 28 q 1233 45 1190 28 q 1300 94 1276 63 q 1323 167 1323 126 q 1299 242 1323 209 q 1233 294 1276 275 q 1134 313 1190 313 q 1036 294 1078 313 q 970 242 994 275 q 947 167 947 209 q 970 94 947 126 q 1036 45 993 63 q 1134 28 1078 28 z "},"⅝":{"ha":1411,"x_min":41,"x_max":1363,"o":"m 444 1015 l 444 980 l 132 980 l 112 724 q 181 778 139 761 q 276 795 223 795 q 375 772 328 795 q 450 702 422 748 q 479 590 479 656 q 452 477 479 526 q 377 401 426 428 q 266 374 329 374 q 165 396 212 374 q 86 458 119 418 q 41 549 53 497 l 81 549 q 151 447 101 485 q 267 408 200 408 q 393 456 347 408 q 440 590 440 504 q 417 681 440 642 q 357 740 394 719 q 276 760 319 760 q 213 755 240 760 q 161 731 187 749 q 110 678 135 713 l 67 678 l 95 1015 l 444 1015 m 394 -6 l 340 -6 l 1018 1015 l 1069 1015 l 394 -6 m 1135 638 q 1238 618 1192 638 q 1308 561 1283 599 q 1334 472 1334 523 q 1307 385 1334 419 q 1228 333 1279 352 q 1293 302 1263 326 q 1343 242 1324 277 q 1363 170 1363 206 q 1335 77 1363 117 q 1256 16 1307 38 q 1135 -6 1204 -6 q 1016 16 1067 -6 q 937 78 965 38 q 909 170 909 118 q 928 242 909 206 q 978 302 947 277 q 1044 333 1010 326 q 965 386 992 352 q 938 472 938 419 q 963 561 938 523 q 1034 618 989 599 q 1135 638 1079 638 m 1135 352 q 1253 383 1210 352 q 1296 473 1296 415 q 1252 568 1296 533 q 1135 603 1208 603 q 1052 588 1088 603 q 996 542 1016 572 q 976 473 976 513 q 1019 383 976 415 q 1135 352 1062 352 m 1135 28 q 1235 45 1192 28 q 1301 94 1278 63 q 1324 167 1324 126 q 1301 242 1324 209 q 1234 294 1277 275 q 1135 313 1192 313 q 1038 294 1080 313 q 972 242 995 275 q 948 167 948 209 q 971 94 948 126 q 1037 45 994 63 q 1135 28 1080 28 z "},"⅞":{"ha":1368,"x_min":49,"x_max":1319,"o":"m 464 1014 l 464 978 q 349 776 406 892 q 253 552 293 660 q 201 382 213 444 l 162 382 q 213 552 178 452 q 302 765 249 652 q 419 978 355 877 l 49 978 l 49 1014 l 464 1014 m 351 -6 l 297 -6 l 975 1015 l 1026 1015 l 351 -6 m 1092 638 q 1194 618 1149 638 q 1265 561 1240 599 q 1291 472 1291 523 q 1264 385 1291 419 q 1185 333 1236 352 q 1250 302 1219 326 q 1300 242 1281 277 q 1319 170 1319 206 q 1292 77 1319 117 q 1213 16 1264 38 q 1092 -6 1161 -6 q 973 16 1024 -6 q 894 78 922 38 q 866 170 866 118 q 885 242 866 206 q 935 302 904 277 q 1001 333 967 326 q 922 386 949 352 q 894 472 894 419 q 920 561 894 523 q 991 618 946 599 q 1092 638 1036 638 m 1092 352 q 1210 383 1167 352 q 1253 473 1253 415 q 1209 568 1253 533 q 1092 603 1165 603 q 1009 588 1045 603 q 953 542 973 572 q 933 473 933 513 q 976 383 933 415 q 1092 352 1019 352 m 1092 28 q 1192 45 1149 28 q 1258 94 1235 63 q 1281 167 1281 126 q 1258 242 1281 209 q 1191 294 1234 275 q 1092 313 1149 313 q 994 294 1037 313 q 928 242 952 275 q 905 167 905 209 q 928 94 905 126 q 994 45 951 63 q 1092 28 1037 28 z "},".":{"ha":251,"x_min":83,"x_max":168,"o":"m 168 0 l 83 0 l 83 107 l 168 107 l 168 0 z "},",":{"ha":286,"x_min":56,"x_max":196,"o":"m 131 0 l 81 0 l 81 111 l 196 111 l 196 17 l 100 -154 l 56 -154 l 131 0 z "},":":{"ha":251,"x_min":83,"x_max":168,"o":"m 168 569 l 83 569 l 83 678 l 168 678 l 168 569 m 168 4 l 83 4 l 83 111 l 168 111 l 168 4 z "},";":{"ha":281,"x_min":83,"x_max":197,"o":"m 106 678 l 190 678 l 190 569 l 106 569 l 106 678 m 151 0 l 113 0 l 113 107 l 197 107 l 197 13 l 113 -182 l 83 -182 l 151 0 z "},"…":{"ha":897,"x_min":83,"x_max":807,"o":"m 807 0 l 722 0 l 722 107 l 807 107 l 807 0 m 168 0 l 83 0 l 83 107 l 168 107 l 168 0 m 488 0 l 403 0 l 403 107 l 488 107 l 488 0 z "},"!":{"ha":306,"x_min":111,"x_max":194,"o":"m 175 200 l 131 200 l 118 1004 l 189 1004 l 175 200 m 194 0 l 111 0 l 111 107 l 194 107 l 194 0 z "},"¡":{"ha":306,"x_min":111,"x_max":194,"o":"m 111 611 l 111 718 l 194 718 l 194 611 l 111 611 m 118 -224 l 131 517 l 175 517 l 189 -224 l 118 -224 z "},"?":{"ha":718,"x_min":49,"x_max":642,"o":"m 49 844 q 176 971 92 924 q 356 1018 259 1018 q 507 988 442 1018 q 607 902 572 958 q 642 772 642 847 q 623 668 642 715 q 576 583 603 620 q 501 492 548 546 q 424 400 452 438 q 375 312 395 362 q 356 203 356 263 l 299 203 q 319 323 299 269 q 369 418 340 378 q 449 516 399 458 q 519 601 493 567 q 562 679 544 636 q 579 772 579 722 q 552 873 579 830 q 474 938 524 915 q 356 961 423 961 q 252 941 304 961 q 160 889 199 922 q 106 818 121 856 l 49 844 m 369 0 l 286 0 l 286 107 l 369 107 l 369 0 z "},"¿":{"ha":683,"x_min":42,"x_max":635,"o":"m 314 718 l 399 718 l 399 611 l 314 611 l 314 718 m 635 -64 q 508 -190 591 -143 q 328 -237 425 -237 q 176 -207 241 -237 q 77 -120 112 -176 q 42 10 42 -65 q 60 102 42 62 q 105 173 78 143 q 177 243 131 202 q 257 320 227 287 q 307 402 287 354 q 328 515 328 451 l 385 515 q 363 390 385 444 q 310 301 341 337 q 228 220 279 265 q 162 155 187 182 q 120 92 137 128 q 104 10 104 56 q 132 -91 104 -48 q 210 -157 159 -134 q 328 -181 260 -181 q 432 -161 380 -181 q 523 -108 484 -141 q 578 -36 563 -74 l 635 -64 z "},"·":{"ha":278,"x_min":83,"x_max":194,"o":"m 194 453 l 83 453 l 83 560 l 194 560 l 194 453 z "},"•":{"ha":389,"x_min":97,"x_max":292,"o":"m 194 413 q 145 426 168 413 q 110 462 123 439 q 97 511 97 485 q 110 560 97 538 q 145 595 123 583 q 194 608 168 608 q 243 595 221 608 q 279 560 266 583 q 292 511 292 538 q 279 462 292 485 q 243 426 266 439 q 194 413 221 413 z "},"*":{"ha":438,"x_min":35,"x_max":417,"o":"m 228 778 l 121 611 l 76 640 l 196 794 l 35 842 l 50 886 l 206 829 l 196 1004 l 253 1004 l 246 829 l 403 894 l 417 851 l 258 796 l 374 650 l 329 617 l 228 778 z "},"#":{"ha":819,"x_min":63,"x_max":757,"o":"m 601 624 l 565 390 l 713 390 l 713 339 l 557 339 l 504 -1 l 453 7 l 504 339 l 282 339 l 229 -1 l 178 7 l 229 339 l 63 339 l 63 390 l 237 390 l 273 624 l 107 624 l 107 675 l 281 675 l 332 1006 l 383 999 l 333 675 l 556 675 l 607 1006 l 658 999 l 608 675 l 757 675 l 757 624 l 601 624 m 548 624 l 326 624 l 290 390 l 512 390 l 548 624 z "},"/":{"ha":444,"x_min":21,"x_max":424,"o":"m 365 1004 l 424 1004 l 79 -82 l 21 -82 l 365 1004 z "},"\\":{"ha":444,"x_min":21,"x_max":424,"o":"m 21 1004 l 79 1004 l 424 -82 l 364 -82 l 21 1004 z "},"(":{"ha":378,"x_min":111,"x_max":343,"o":"m 343 1083 q 223 779 268 939 q 178 464 178 619 q 215 162 178 311 q 326 -144 252 13 l 293 -144 q 157 156 202 13 q 111 465 111 299 q 165 789 111 629 q 310 1083 219 948 l 343 1083 z "},")":{"ha":392,"x_min":38,"x_max":269,"o":"m 71 1083 q 216 789 162 948 q 269 465 269 629 q 224 156 269 299 q 88 -144 178 13 l 54 -144 q 166 162 128 13 q 203 464 203 311 q 158 779 203 619 q 38 1083 113 939 l 71 1083 z "},"{":{"ha":376,"x_min":7,"x_max":349,"o":"m 164 883 q 201 971 164 938 q 310 1004 238 1004 l 349 1004 l 349 954 l 310 954 q 243 938 263 954 q 224 883 224 921 l 224 568 q 188 445 224 490 q 96 396 152 401 q 87 391 87 394 q 96 386 87 387 q 188 340 152 381 q 224 219 224 299 l 224 -99 q 243 -156 224 -139 q 311 -174 262 -174 l 349 -174 l 349 -224 l 311 -224 q 200 -189 235 -224 q 164 -99 164 -155 l 164 219 q 146 287 164 253 q 92 342 128 321 q 7 364 56 364 l 7 417 q 93 438 58 417 q 146 492 128 458 q 164 568 164 526 l 164 883 z "},"}":{"ha":389,"x_min":33,"x_max":375,"o":"m 218 568 q 236 492 218 526 q 289 438 253 458 q 375 417 324 417 l 375 364 q 290 342 326 364 q 236 287 254 321 q 218 219 218 253 l 218 -99 q 182 -189 218 -155 q 71 -224 147 -224 l 33 -224 l 33 -174 l 71 -174 q 139 -156 120 -174 q 158 -99 158 -139 l 158 219 q 194 340 158 299 q 286 386 230 381 q 295 391 295 387 q 286 396 295 394 q 194 445 230 401 q 158 568 158 490 l 158 883 q 139 938 158 921 q 72 954 119 954 l 33 954 l 33 1004 l 72 1004 q 181 971 144 1004 q 218 883 218 938 l 218 568 z "},"[":{"ha":374,"x_min":146,"x_max":346,"o":"m 346 1004 l 346 954 l 206 954 l 204 -174 l 344 -174 l 344 -224 l 147 -224 l 146 1004 l 346 1004 z "},"]":{"ha":403,"x_min":36,"x_max":236,"o":"m 235 -224 l 38 -224 l 38 -174 l 178 -174 l 176 954 l 36 954 l 36 1004 l 236 1004 l 235 -224 z "},"-":{"ha":507,"x_min":90,"x_max":417,"o":"m 417 333 l 90 332 l 90 386 l 417 388 l 417 333 z "},"­":{"ha":507,"x_min":90,"x_max":417,"o":"m 417 333 l 90 332 l 90 386 l 417 388 l 417 333 z "},"–":{"ha":724,"x_min":90,"x_max":633,"o":"m 633 325 l 90 324 l 90 378 l 633 379 l 633 325 z "},"—":{"ha":1158,"x_min":90,"x_max":1068,"o":"m 1068 325 l 90 324 l 90 378 l 1068 379 l 1068 325 z "},"_":{"ha":669,"x_min":90,"x_max":579,"o":"m 579 -136 l 90 -137 l 90 -83 l 579 -82 l 579 -136 z "},"‚":{"ha":286,"x_min":56,"x_max":196,"o":"m 129 0 l 81 0 l 81 111 l 196 111 l 196 17 l 100 -154 l 56 -154 l 129 0 z "},"„":{"ha":489,"x_min":56,"x_max":399,"o":"m 332 0 l 283 0 l 283 111 l 399 111 l 399 17 l 303 -154 l 258 -154 l 332 0 m 129 0 l 81 0 l 81 111 l 196 111 l 196 17 l 100 -154 l 56 -154 l 129 0 z "},"“":{"ha":499,"x_min":94,"x_max":433,"o":"m 94 835 l 192 1004 l 236 1004 l 161 850 l 210 850 l 210 739 l 94 739 l 94 835 m 293 835 l 389 1004 l 433 1004 l 358 850 l 408 850 l 408 739 l 293 739 l 293 835 z "},"”":{"ha":456,"x_min":69,"x_max":407,"o":"m 143 894 l 94 894 l 94 1004 l 210 1004 l 210 910 l 114 739 l 69 739 l 143 894 m 342 894 l 293 894 l 293 1004 l 407 1004 l 407 910 l 311 739 l 267 739 l 342 894 z "},"‘":{"ha":300,"x_min":94,"x_max":235,"o":"m 161 894 l 210 894 l 210 785 l 94 785 l 94 879 l 190 1050 l 235 1050 l 161 894 z "},"’":{"ha":258,"x_min":69,"x_max":210,"o":"m 143 894 l 94 894 l 94 1004 l 210 1004 l 210 910 l 114 739 l 69 739 l 143 894 z "},"«":{"ha":569,"x_min":42,"x_max":507,"o":"m 278 106 l 240 106 l 42 349 l 242 603 l 281 603 l 114 349 l 278 106 m 504 106 l 467 106 l 268 349 l 468 603 l 507 603 l 340 349 l 504 106 z "},"»":{"ha":568,"x_min":63,"x_max":526,"o":"m 63 603 l 100 603 l 300 349 l 101 106 l 65 106 l 229 349 l 63 603 m 289 603 l 326 603 l 526 349 l 328 106 l 292 106 l 456 349 l 289 603 z "},"‹":{"ha":343,"x_min":42,"x_max":281,"o":"m 278 106 l 240 106 l 42 349 l 242 603 l 281 603 l 114 349 l 278 106 z "},"›":{"ha":342,"x_min":63,"x_max":300,"o":"m 63 603 l 100 603 l 300 349 l 101 106 l 65 106 l 229 349 l 63 603 z "},"\"":{"ha":515,"x_min":111,"x_max":404,"o":"m 374 744 l 328 744 l 300 1004 l 404 1004 l 374 744 m 185 744 l 139 744 l 111 1004 l 215 1004 l 185 744 z "},"'":{"ha":326,"x_min":111,"x_max":215,"o":"m 185 744 l 139 744 l 111 1004 l 215 1004 l 185 744 z "}," ":{"ha":310,"x_min":0,"x_max":0,"o":""},"¢":{"ha":729,"x_min":76,"x_max":660,"o":"m 393 192 q 528 231 471 192 q 601 346 585 269 l 660 346 q 570 197 638 247 q 413 141 503 147 l 413 0 l 357 0 l 357 142 q 207 197 270 149 q 110 325 143 244 q 76 510 76 406 q 110 696 76 614 q 207 828 144 778 q 357 885 270 877 l 357 1004 l 413 1004 l 413 885 q 572 827 504 878 q 660 681 640 776 l 601 678 q 523 796 578 758 q 394 833 468 833 q 256 793 315 833 q 165 681 197 753 q 133 513 133 608 q 165 343 133 416 q 255 231 196 271 q 393 192 313 192 z "}}}
